<svg id="Слой_1" data-name="Слой 1" xmlns="http://www.w3.org/2000/svg" viewBox="0 0 800 560"><defs><style>.cls-1{fill:#fec703;}.cls-2{fill:#ee776b;}.cls-3{fill:#fff;}.cls-4{fill:#a7a7a7;}.cls-5{fill:#192e35;}.cls-6,.cls-7{fill:#010101;}.cls-6{opacity:0.2;}.cls-7{opacity:0.1;}.cls-8{fill:#f299bc;}</style></defs><path class="cls-1" d="M528.66,631.92a50.72,50.72,0,0,0,50.74,50.71v65H4.89v-65a50.73,50.73,0,1,0,0-101.45V455.51H579.4V581.18A50.74,50.74,0,0,0,528.66,631.92Z"/><path class="cls-2" d="M597.5,468.51c-1.32-4-72.16-97.6-77-99.4-.55-.24-32.21,22.3-32.21,22.3-1.31,1.74-61.5-11-61.5-11l-.6,72.61,109.64-2.33s14.81,8.71,28.36,15.8c0,0,0,0,0,0,8.33,4.39,15.71,8.09,17.82,8.64C587.54,476.57,598.85,472.49,597.5,468.51Z"/><path class="cls-3" d="M582.06,475.16c-2.11-.54-9.49-4.25-17.82-8.65,0,0,0,0,0,0-13.54-7.09-28.35-15.81-28.35-15.81l-24.4.53-38.21-61.65c8.39,1.49,14.64,2.38,15.06,1.82,0,0,31.65-22.53,32.21-22.29,4.84,1.8,75.67,95.39,77,99.39S587.54,476.57,582.06,475.16Z"/><path class="cls-4" d="M598.15,468.63c-1.39-4.1-72.55-97.64-77.52-99.49-1.88-.72-17.37,8.85-32.34,22.27l45.94,60.25s42.4,22.46,48.06,23.9S599.54,472.73,598.15,468.63Z"/><path class="cls-5" d="M593.39,470.14c-12.32-15.39-60.53-78.62-71.53-94.76-.09-.13,0-.2.1-.08,12.54,15,60.23,78.6,71.69,94.64C593.89,470.28,593.65,470.46,593.39,470.14Z"/><path class="cls-5" d="M574.35,472.11a15.86,15.86,0,0,1-3.31-12.3c.65-3.57,2.37-7.51,5.71-9.87.1-.07.23.1.14.19-5.45,5.56-6.6,15.24-2.34,21.83A.13.13,0,0,1,574.35,472.11Z"/><path class="cls-5" d="M539.55,455.38c-4.86-6.21-8.18-15.17-6-23,.09-.31.52-.18.56.08a109.19,109.19,0,0,0,6.31,22.41A.49.49,0,0,1,539.55,455.38Z"/><path class="cls-5" d="M545.12,458.79c-4.86-6.21-8.18-15.17-6-23,.08-.3.51-.17.56.08A108.83,108.83,0,0,0,546,458.31.5.5,0,0,1,545.12,458.79Z"/><path class="cls-5" d="M550.7,462.2c-4.86-6.21-8.18-15.17-6-23,.09-.3.51-.18.56.08a108.83,108.83,0,0,0,6.31,22.42A.49.49,0,0,1,550.7,462.2Z"/><path class="cls-5" d="M556.27,465.61c-4.86-6.21-8.18-15.17-6-23,.08-.3.51-.18.55.08a109.49,109.49,0,0,0,6.32,22.42A.5.5,0,0,1,556.27,465.61Z"/><path class="cls-5" d="M510,390.7c-5.34-7.06,5.62-15.36,11-8.29S515.35,397.77,510,390.7Z"/><path class="cls-5" d="M536.78,467.41c1.79-6.72.62-14,.31-20.79a1,1,0,0,0-1.37-.74.2.2,0,0,0-.32-.06,41.4,41.4,0,0,0-11.72,17.91c-1.24,4-.77,10,4.28,11.17C532.74,476,535.73,471.32,536.78,467.41Zm-5,4.24c-7.3,4.57-6.74-5.58-5.71-8.52a46.21,46.21,0,0,1,2.49-5.51A124.49,124.49,0,0,1,535.19,447c-.05,3.36.18,6.69.25,10.05C535.53,461.06,535.83,469.13,531.8,471.65Z"/><path class="cls-5" d="M514.44,426.58c-3.72,3.61-1.06,9,2.09,11.78a41.48,41.48,0,0,0,19.27,9.31.2.2,0,0,0,.25-.22,1,1,0,0,0,.79-1.34c-3.25-6-6-12.83-11-17.65C522.94,425.64,518,423.16,514.44,426.58ZM530.05,438c1.67,2.92,3.19,5.89,5,8.75-3.76-1.83-7.57-3.49-11.14-5.69a43.52,43.52,0,0,1-5-3.44c-2.41-2-8.12-10.4.5-10.25C524.16,427.47,528.06,434.54,530.05,438Z"/><path class="cls-4" d="M423.47,358.17H374.26s-51.48-24.75-92.94-14.78c-47.54,11.43-53.62,71.14-18.09,92.25,45,26.74,245.35,21.57,245.35,21.57L465.27,383.8s-66.62-14-127-12l85.23,11.61Z"/><path class="cls-5" d="M468.15,388.54a2.11,2.11,0,0,1-.09-.38c0-.1-.05-.2-.07-.3s-.12-.48-.19-.71c-.14-.5-.32-1-.5-1.44s-.39-.94-.61-1.4a12.17,12.17,0,0,0-.81-1.29s-.08-.06-.12-.08l-.08-.06s-.06,0-.1,0l-.11,0c-7.33-1.36-57.11-8.48-64.51-9.33s-14.95-1.54-22.43-2.17a446.25,446.25,0,0,0-44.93-1.62c-1.4,0-2.8.08-4.21.13-.29-.1-.61-.15-.92-.23-.72-.17-1.43-.35-2.16-.49-1.35-.26-2.71-.45-4.07-.66-2.84-.44-5.68-.74-8.5-1.26-.17,0-.24.22-.07.26,2.84.63,5.62,1.45,8.46,2.07l2.46.52c-5.5.29-11,.71-16.46,1.21-.18,0-.18.28,0,.27,7.46-.44,15-.49,22.45-.37s14.83.29,22.24.72c15,.86,30,2.2,44.9,3.76,8.38.88,59.13,8.29,67.55,8.64l.1,0a5.83,5.83,0,0,0,.23.58c.23.45.47.91.72,1.35s.47.86.75,1.27c.13.21.27.41.41.61l.21.3a1.66,1.66,0,0,1,.22.32C468,388.84,468.26,388.71,468.15,388.54Z"/><path class="cls-5" d="M493,452.74c-2.69-4.29-5-8.86-7.42-13.29l-7.4-13.3c-4.93-8.84-22.61-38.58-24.36-40.66-.11-.13-.34,0-.28.17.83,2.31,11.87,22,14.41,26.38,5.08,8.78,10.42,17.39,15.69,26.06,1.5,2.47,3.06,4.92,4.58,7.38s3.14,4.88,4.54,7.41C492.81,453,493.05,452.89,493,452.74Z"/><path class="cls-5" d="M453.28,392.89c-4.42-1.06-8.95-1.75-13.42-2.6l-13.43-2.52Q413,385.28,399.51,383c-17.93-3-35.93-5.52-54-7.26-10.21-1-20.45-1.62-30.69-2.37-.21,0-.21.33,0,.34,18.23.82,36.43,3.29,54.48,5.88q26.82,3.86,53.51,8.39,7.54,1.27,15.08,2.58c5.1.89,10.2,2,15.33,2.63C453.39,393.21,453.48,392.94,453.28,392.89Z"/><path class="cls-2" d="M504.19,707.35c-4.31-.43-111.63-48.66-114.56-53.09-1.12-1.67,5-17.71,12.93-36.88,1.71-4.14,3.51-8.41,5.36-12.73,11.95-28.07,25.3-57.57,25.3-57.57l71.88,32.06-27.28,56.69-6,12.45s32.83,36.84,35.52,42S508.5,707.78,504.19,707.35Z"/><path class="cls-4" d="M409.56,598.06l80.84,36.56s96.22-184.7,98.74-241.23c2.14-48.11-31.36-66.68-139.63-35.56l-26.53.34v18.3c11.65,1.53,42.7,6.41,42.7,6.41,22.61,8.53,29.88,12.05,29.52,12.79C438.84,509.48,409.56,598.06,409.56,598.06Z"/><path class="cls-5" d="M508.45,375.37c-3.27,4.34-6.29,8.87-9.18,13.49-17.36-7.72-36.27-12.2-55.08-14.51q-8-1-16-1.43c-.21,0-.2.32,0,.34a241.51,241.51,0,0,1,56.05,10.67c5,1.55,10,3.35,14.94,5.11-3.47,5.56-6.74,11.25-9.88,17a336,336,0,0,0-15.81,33c-2.6,6.25-5.13,12.53-7.36,18.92-.06.18.23.29.31.12q14.82-33,32.35-64.66c3.3-5.95,6.74-11.82,10-17.81C508.82,375.4,508.57,375.2,508.45,375.37Z"/><path class="cls-5" d="M508.05,383.71c-6.38,12.12-11.81,24.8-17.35,37.33s-10.89,25-16.1,37.61q-15.56,37.67-29,76.15c-5.08,14.51-9.83,29.12-14.46,43.78-.06.21.27.29.34.08,8.56-25.91,17.84-51.6,27.53-77.12s19.93-50.69,30.79-75.66q4.57-10.51,9.3-21c3.15-7,6.43-13.9,9.37-21C508.6,383.66,508.2,383.42,508.05,383.71Z"/><path class="cls-2" d="M433.87,243.12c19.54,36.2,43.82,75,60.52,78.29,13,2.55,66.29-6.79,87.67-28.17,4.72-4.72-34.41-36.46-38.36-33.91-11.63,7.49-42.4,13.74-44.16,12.24-2.31-2-29.32-27.71-48-44.07C426.39,205.48,423.77,224.4,433.87,243.12Z"/><path class="cls-2" d="M595.38,289.2c-7.9,7.52-30.06,16.57-36.25,16.7s-22.84-37-19.84-42.64,31.54-28.85,42.63-29.8S603.56,281.41,595.38,289.2Z"/><path class="cls-2" d="M543.45,258.45s6.07-12.82,7.34-25.25c1.07-10.45,1.47-26.1,7.11-25.73,11.58.74,10.56,39.75,10.56,39.75s-3.21,17.13-14.75,17.41C546.47,264.81,543.45,258.45,543.45,258.45Z"/><path class="cls-2" d="M565.16,238.35c1.39,5.6,5.92,4.17,5.92,4.17L602.74,237s22.72-10.52,20.65-16.8c-3.56-10.82-50.91,10.94-55.39,12.16C565.59,233,564.56,235.91,565.16,238.35Z"/><path class="cls-2" d="M571.08,242.52s-10.22,4.6-9.57,10.95c.65,6.12,9.58,4.11,10.22,4-.54.24-9.82,4.71-8.5,11,1.37,6.56,10,3,10.54,2.77-.44.4-6.1,5.7-4,10.27,3.6,7.85,18.45-5.31,25.41-4.59,0,0,.13,11.93.21,12.27,0,0,14.39-12.23,14.83-21.66a6,6,0,0,0-4.35-6.18s5.07-3.43,4.19-8.43c-.46-2.57-5-4.12-5-4.12s3.95-2.92,2.89-7.32c-.83-3.52-3.55-4.37-5.24-4.74C592.48,234.46,571.08,242.52,571.08,242.52Z"/><path class="cls-5" d="M602.06,236.7a.09.09,0,0,0,0-.17c-10.42-1.14-22.23.8-31.4,6-.3.18-1,1.61-.68,1.44C578.72,239.73,591,237.25,602.06,236.7Z"/><path class="cls-5" d="M605.22,248.73c.13,0,.12-.21,0-.22-10.75-1.12-24,1.43-33.85,8.69-.34.25-.39.82,0,.56C578.3,253.42,595.22,249.17,605.22,248.73Z"/><path class="cls-5" d="M573.26,272c9.72-6.6,20.58-9.42,32.15-10.71.16,0,.12-.23,0-.25-5.84-.91-13.13.68-18.7,2.4A30.93,30.93,0,0,0,573,271.66C572.87,271.81,573.05,272.14,573.26,272Z"/><path class="cls-5" d="M570.9,242.44c-.36.21.83.69.48.91-3.83,2.39-10.48,7-9.24,10.56,1,2.85,5.52,3.48,7.35,3l4.6-1.1-3.94,2.64a19.25,19.25,0,0,0-4.62,4.24,7,7,0,0,0-1.68,5.42,4,4,0,0,0,3.62,3.43,12,12,0,0,0,5.89-1.17l5.13-2.26L574.4,272a18.17,18.17,0,0,0-3,3.56,7.53,7.53,0,0,0-1.35,4.12,3.58,3.58,0,0,0,2,3.15,8,8,0,0,0,4.42,0,61.88,61.88,0,0,0,9.17-3.24c1.52-.61,3.06-1.22,4.62-1.77a11.68,11.68,0,0,1,4.84-.88,12.42,12.42,0,0,0-4.68,1.31c-1.5.65-3,1.38-4.44,2.1a52.5,52.5,0,0,1-9.2,3.8,9.23,9.23,0,0,1-5.3.12,5.08,5.08,0,0,1-3.2-4.53,9.16,9.16,0,0,1,1.53-5.15,19.67,19.67,0,0,1,3.26-4l1,1.53a13.63,13.63,0,0,1-6.94,1.45,5.66,5.66,0,0,1-3.53-1.62A6.44,6.44,0,0,1,562,268.5a8.78,8.78,0,0,1,2.12-6.86,21.09,21.09,0,0,1,5.16-4.59l.66,1.53c-2.35.48-7.48.32-9.58-3.9C558.42,248.77,568.91,243.3,570.9,242.44Z"/><path class="cls-4" d="M538.06,260.82l23.42,54.41S508,328.94,491,322.09s-47.09-52.63-59.44-82.2c-12.63-30.25,6.6-26,19.53-13.62s47.89,43.68,49,44S538.06,260.82,538.06,260.82Z"/><path class="cls-6" d="M442.34,260.46a3.28,3.28,0,0,0-1.67-1.69c.6,1.13,1.22,2.25,1.85,3.39A2.94,2.94,0,0,0,442.34,260.46Zm26.28-10.93a3.16,3.16,0,1,0-1.72,4.11A3.15,3.15,0,0,0,468.62,249.53Zm-2.1,3.21a2.16,2.16,0,0,1-1.67-4,2.16,2.16,0,1,1,1.67,4Zm-19.25-17.51a3.19,3.19,0,0,0-4.15-1.7,3.16,3.16,0,1,0,4.15,1.7Zm-2.11,3.23a2.16,2.16,0,0,1-2.78-1.18,2.11,2.11,0,0,1,1.14-2.81,2.14,2.14,0,0,1,2.83,1.16A2.18,2.18,0,0,1,445.16,238.46Zm40,51a3.15,3.15,0,1,0-1.73,4.11A3.13,3.13,0,0,0,485.19,289.44Zm-2.09,3.2a2.16,2.16,0,0,1-1.66-4,2.16,2.16,0,1,1,1.66,4Zm28.36-14.11a3.16,3.16,0,1,0-1.71,4.09A3.16,3.16,0,0,0,511.46,278.53Zm-2.07,3.19a2.17,2.17,0,1,1,1.17-2.81A2.17,2.17,0,0,1,509.39,281.72Zm28.36-14.12a3.15,3.15,0,1,0-1.73,4.11A3.16,3.16,0,0,0,537.75,267.6Zm-2.11,3.21A2.16,2.16,0,1,1,536.8,268,2.14,2.14,0,0,1,535.64,270.81Zm-71.79,4.33a3.16,3.16,0,1,0-1.72,4.11A3.17,3.17,0,0,0,463.85,275.14Zm-2.1,3.21a2.15,2.15,0,1,1,1.16-2.81A2.13,2.13,0,0,1,461.75,278.35Zm28.39-14.12a3.15,3.15,0,1,0-5.83,2.41,3.15,3.15,0,0,0,5.83-2.41Zm-2.1,3.21a2.2,2.2,0,0,1-2.83-1.17,2.16,2.16,0,0,1,1.18-2.82,2.13,2.13,0,0,1,2.81,1.16A2.19,2.19,0,0,1,488,267.44Zm40,51a3.15,3.15,0,1,0-5.83,2.41,3,3,0,0,0,1.74,1.68h0c1-.14,2.07-.28,3.09-.44A3.1,3.1,0,0,0,528,318.43ZM526,321.62a2.16,2.16,0,0,1-1.65-4,2.16,2.16,0,1,1,1.65,4Zm28.37-14.12a3.16,3.16,0,1,0-1.72,4.11A3.16,3.16,0,0,0,554.33,307.5Zm-2.11,3.21a2.16,2.16,0,1,1,1.17-2.83A2.18,2.18,0,0,1,552.22,310.71Zm-45.51-6.58a3.17,3.17,0,0,0-4.14-1.72,3.15,3.15,0,1,0,4.14,1.72Zm-2.09,3.21a2.2,2.2,0,0,1-2.83-1.16,2.16,2.16,0,1,1,4-1.66A2.2,2.2,0,0,1,504.62,307.34ZM533,293.23a3.14,3.14,0,1,0-1.68,4.09A3.15,3.15,0,0,0,533,293.23Zm-2.06,3.18a2.16,2.16,0,1,1-1.67-4,2.16,2.16,0,0,1,1.67,4Z"/><path class="cls-5" d="M536.68,289.73q-2.28-5.61-4.63-11.2c-1.55-3.71-3-7.53-4.82-11.12-.08-.16-.36-.09-.3.1,1.1,3.72,2.62,7.37,4,11q2.19,5.79,4.43,11.56c2.95,7.62,6.19,15.1,9.55,22.54.08.19.33.06.26-.12C542.51,304.85,539.75,297.25,536.68,289.73Z"/><path class="cls-7" d="M431.58,239.9c12.34,29.56,42.49,75.35,59.43,82.18,3.95,1.59,9.89,2.09,16.67,1.86L436.33,217.27C428.4,215.36,423.54,220.66,431.58,239.9Z"/><path class="cls-4" d="M353.63,357.65c.24.33,115.85,2.78,117,1.67,1.64-1.56-9.06-110.33-25.8-137.24-4.19-6.72-23.9-11.73-32.72-2.59C378,254.84,352.76,356.47,353.63,357.65Z"/><path class="cls-6" d="M454.17,326a3.18,3.18,0,1,0-1.73,4.11A3.16,3.16,0,0,0,454.17,326Zm-2.11,3.21a2.16,2.16,0,1,1,1.16-2.81A2.13,2.13,0,0,1,452.06,329.16Zm-24.18,7.72a3.16,3.16,0,1,0-1.73,4.11A3.16,3.16,0,0,0,427.88,336.88Zm-2.11,3.21a2.16,2.16,0,1,1,1.17-2.83A2.14,2.14,0,0,1,425.77,340.09Zm-24.16,7.7a3.17,3.17,0,1,0-1.73,4.11A3.14,3.14,0,0,0,401.61,347.79ZM399.52,351a2.16,2.16,0,0,1-1.66-4,2.16,2.16,0,1,1,1.66,4Zm-28.31,6a3,3,0,0,0-1.41,1.17l1.33,0a2.09,2.09,0,0,1,.46-.26,2.16,2.16,0,0,1,2.15.32c.44,0,.9,0,1.36,0A3.13,3.13,0,0,0,371.21,357Zm98.4-16.54a3,3,0,0,0,.06,2.23,1,1,0,0,0,.18.32C469.77,342.17,469.69,341.33,469.61,340.45Zm-20.4,10.71a3.15,3.15,0,1,0-1.72,4.13A3.16,3.16,0,0,0,449.21,351.16Zm-2.08,3.23a2.19,2.19,0,0,1-2.83-1.19,2.16,2.16,0,0,1,4-1.64A2.21,2.21,0,0,1,447.13,354.39Zm14-75.9a2.15,2.15,0,0,1-1-4.11,1,1,0,0,1,.22-.08l-.18-1a1.66,1.66,0,0,0-.42.12,3.18,3.18,0,0,0-1.68,4.13,3.11,3.11,0,0,0,3.23,1.89C461.21,279.13,461.15,278.81,461.09,278.49Zm-23.51,7.56a3.15,3.15,0,0,0-4.13-1.71,3.19,3.19,0,0,0-1.72,4.15,3.17,3.17,0,0,0,5.85-2.44Zm-2.08,3.2a2.15,2.15,0,1,1,1.16-2.8A2.15,2.15,0,0,1,435.5,289.25ZM411.29,297a3.15,3.15,0,1,0-1.72,4.11A3.15,3.15,0,0,0,411.29,297Zm-2.1,3.2a2.16,2.16,0,1,1,1.18-2.82A2.16,2.16,0,0,1,409.19,300.18Zm-24.14,7.7a3.18,3.18,0,0,0-4.16-1.7,3.15,3.15,0,1,0,4.16,1.7Zm-2.11,3.21a2.16,2.16,0,1,1-1.66-4,2.15,2.15,0,0,1,2.82,1.16A2.18,2.18,0,0,1,382.94,311.09Zm76-10.73a3.15,3.15,0,1,0-1.69,4.09A3.15,3.15,0,0,0,458.9,300.36Zm-2.07,3.19a2.16,2.16,0,1,1,1.17-2.82A2.16,2.16,0,0,1,456.83,303.55Zm-24.18,7.72a3.16,3.16,0,1,0-1.72,4.11A3.16,3.16,0,0,0,432.65,311.27Zm-2.11,3.21a2.19,2.19,0,0,1-2.82-1.18,2.16,2.16,0,0,1,4-1.65A2.18,2.18,0,0,1,430.54,314.48Zm-24.18,7.7a3.16,3.16,0,1,0-1.7,4.11A3.16,3.16,0,0,0,406.36,322.18Zm-2.06,3.21a2.18,2.18,0,0,1-2.83-1.18,2.16,2.16,0,0,1,4-1.65A2.2,2.2,0,0,1,404.3,325.39Zm-24.21,7.7a3.15,3.15,0,1,0-1.72,4.11A3.13,3.13,0,0,0,380.09,333.09ZM378,336.3a2.16,2.16,0,1,1,1.16-2.81A2.16,2.16,0,0,1,378,336.3Zm69.26-101.07a3.19,3.19,0,0,0-4.15-1.7,3.16,3.16,0,1,0,4.15,1.7Zm-2.11,3.23a2.16,2.16,0,0,1-2.78-1.18,2.11,2.11,0,0,1,1.14-2.81,2.14,2.14,0,0,1,2.83,1.16A2.18,2.18,0,0,1,445.16,238.46ZM421,246.14a3.2,3.2,0,0,0-4.15-1.7,3.16,3.16,0,1,0,4.15,1.7Zm-2.11,3.23a2.19,2.19,0,0,1-2.82-1.18,2.16,2.16,0,0,1,4-1.65A2.18,2.18,0,0,1,418.91,249.37Zm-24.18,7.7a3.16,3.16,0,1,0-1.72,4.11A3.16,3.16,0,0,0,394.73,257.07Zm-2.11,3.21a2.16,2.16,0,0,1-1.66-4,2.16,2.16,0,1,1,1.66,4Zm49.72.18a3.16,3.16,0,1,0-1.71,4.09A3.17,3.17,0,0,0,442.34,260.46Zm-2.07,3.19a2.16,2.16,0,0,1-2.83-1.17,2.13,2.13,0,0,1,1.17-2.82,2.17,2.17,0,0,1,2.82,1.16A2.2,2.2,0,0,1,440.27,263.65Zm-24.2,7.72a3.15,3.15,0,1,0-5.82,2.4,3.15,3.15,0,0,0,5.82-2.4ZM414,274.58a2.16,2.16,0,0,1-1.64-4,2.14,2.14,0,0,1,2.82,1.16A2.19,2.19,0,0,1,414,274.58Zm-24.18,7.7a3.15,3.15,0,1,0-1.69,4.11A3.15,3.15,0,0,0,389.78,282.28Zm-2.07,3.2a2.2,2.2,0,0,1-2.83-1.16,2.17,2.17,0,1,1,2.83,1.16Zm38-64.93a3.15,3.15,0,1,0-1.68,4.09A3.15,3.15,0,0,0,425.75,220.55Zm-2.06,3.19a2.17,2.17,0,0,1-2.83-1.16,2.15,2.15,0,0,1,1.16-2.83,2.16,2.16,0,0,1,1.67,4Z"/><path class="cls-2" d="M423.83,236.17c-31.34,25.3-77.88,43.41-90.22,40.36C317,272.42,286.43,246,271.83,230.79c-4.29-4.46,31.11-37.15,35.71-32.38,5.54,5.76,33.78,36,34.48,36.4,1.51.83,62.06-13.68,73-16.38C433,214,438.18,224.59,423.83,236.17Z"/><path class="cls-2" d="M251.08,206.88c4.26,9.37,20.48,25.13,25.86,27.42S310,209.92,309.36,204s-17.45-36.4-26.82-41.15S246.66,197.17,251.08,206.88Z"/><polygon class="cls-1" points="143.07 267.2 233.12 322.42 276.23 222.64 212.44 183.53 143.07 267.2"/><polygon class="cls-1" points="212.45 183.53 166.21 281.39 143.07 267.2 212.45 183.53"/><polygon class="cls-7" points="212.45 183.53 166.21 281.39 143.07 267.2 212.45 183.53"/><path class="cls-5" d="M254.39,218l3.18,1.13c0-.09,3.12-8.8,6.15-17.64,3.27-9.57-2.63-18.51-10.22-21.63-5.68-2.33-13.89-1.81-18.31,7.34-4.74,9.79-6.71,14.57-6.79,14.77l3.12,1.28s2-4.9,6.7-14.58c3.4-7,9.46-7.55,14-5.69,6.14,2.53,10.93,9.73,8.31,17.42C257.51,209.17,254.42,217.86,254.39,218Z"/><path class="cls-3" d="M165.42,279.94c-1-2.46-2.22-4.84-3.39-7.22s-2.44-4.72-3.72-7l-.17-.32-.36,0c-2.22.21-4.45.42-6.66.72s-4.43.57-6.64,1c2.24,0,4.48-.06,6.71-.17s4.46-.24,6.68-.42l-.53-.28c1.25,2.34,2.54,4.65,3.88,7S163.93,277.72,165.42,279.94Z"/><path class="cls-3" d="M157.83,265.94c4-5.6,7.86-11.28,11.72-17s7.65-11.42,11.48-17.13,7.55-11.49,11.26-17.27l5.56-8.69c1.81-2.91,3.66-5.81,5.45-8.75-2,2.8-3.94,5.63-5.91,8.45l-5.82,8.51c-3.86,5.69-7.65,11.42-11.48,17.13s-7.54,11.49-11.25,17.27S161.42,260.08,157.83,265.94Z"/><path class="cls-5" d="M252.16,216.17a4.48,4.48,0,1,0,6.16-1.48A4.46,4.46,0,0,0,252.16,216.17Z"/><path class="cls-5" d="M226.43,200.4a4.48,4.48,0,1,0,6.17-1.48A4.48,4.48,0,0,0,226.43,200.4Z"/><path class="cls-2" d="M295.49,173c-.63,5.41-6.65,1.56-6.65,1.56s7.33,7.63,4.51,13c-2.73,5.13-9.84.22-10.35-.12.38.4,6.94,7.59,3.56,12.66-3.52,5.26-9.81-.89-10.22-1.29.24.5,3.33,7.14-.11,10.41-5.92,5.6-14.29-11.17-20.64-13,0,0-4.32,10.4-4.51,10.67,0,0-8.29-15.79-5.35-24.21a5.7,5.7,0,0,1,6-3.87s-3.24-4.79-.7-8.87c1.3-2.08,5.81-1.85,5.81-1.85s-2.43-4,.05-7.43c2-2.78,6.18-2.12,6.18-2.12s-.57-4.87,2.36-7.06C271.35,147,296.84,161.4,295.49,173Z"/><path class="cls-5" d="M263.75,158.54a.08.08,0,0,1,.05-.15c9.54,2.68,19.19,8.55,25.38,16.36.21.25-.12.69-.4.45C280.86,168.37,273.29,162.94,263.75,158.54Z"/><path class="cls-5" d="M256.74,168c-.1-.05,0-.22.09-.19,9.81,2.82,20.51,9.72,26.58,19.56.21.34.06.85-.21.48C278.66,181.57,265.35,171.88,256.74,168Z"/><path class="cls-5" d="M276.53,199.62c-6.19-9.21-14.71-15.51-24.39-20.73-.13-.07,0-.24.1-.21,5.43,1.26,11.26,5.23,15.53,8.7a29.2,29.2,0,0,1,9.08,12C276.93,199.59,276.66,199.82,276.53,199.62Z"/><path class="cls-5" d="M288.84,174.57a34,34,0,0,1,3.35,5.1,11.17,11.17,0,0,1,1.53,5.62,3.66,3.66,0,0,1-1.07,2.41A5.39,5.39,0,0,1,290.3,189a6.53,6.53,0,0,1-5.16-1.27l-3.65-2.59,2.53,3.71a18.42,18.42,0,0,1,2.55,5.35,6.55,6.55,0,0,1-.45,5.33,3.73,3.73,0,0,1-4.37,1.73,11.43,11.43,0,0,1-4.75-3.1l-3.7-3.8,2.25,4.78a17.68,17.68,0,0,1,1.35,4.17,7.07,7.07,0,0,1-.28,4.08,3.37,3.37,0,0,1-2.91,2,7.41,7.41,0,0,1-3.87-1.53,57.67,57.67,0,0,1-6.9-6.07c-1.12-1.07-2.24-2.15-3.42-3.18a11,11,0,0,0-3.93-2.48,11.83,11.83,0,0,1,3.64,2.8c1.08,1.1,2.11,2.25,3.15,3.41A49.77,49.77,0,0,0,269.1,209a8.64,8.64,0,0,0,4.59,2,4.74,4.74,0,0,0,4.4-2.84,8.59,8.59,0,0,0,.48-5.05,18.82,18.82,0,0,0-1.43-4.67l-1.46,1a13.08,13.08,0,0,0,5.57,3.72,5.47,5.47,0,0,0,3.67-.17,6.12,6.12,0,0,0,2.72-2.4,8.28,8.28,0,0,0,.56-6.75,19.82,19.82,0,0,0-2.9-5.84l-1.12,1.11a7.78,7.78,0,0,0,6.46,1.22,6.55,6.55,0,0,0,2.83-1.8,4.72,4.72,0,0,0,1.23-3.12,11.54,11.54,0,0,0-2-5.95A28,28,0,0,0,288.84,174.57Z"/><path class="cls-2" d="M307.41,198.27s-1-43.67-17.86-34.92c-5,2.6-22.51,19.26-19.23,22.84,4.23,4.62,12.83-1,17.67-5.34,0,0-1.75,14.9,8.26,19.22C302.52,202.77,307.41,198.27,307.41,198.27Z"/><path class="cls-5" d="M291,162.71a22.58,22.58,0,0,0-5.82,3.23,48.9,48.9,0,0,0-5.14,4.27,75.94,75.94,0,0,0-9,9.91,12.69,12.69,0,0,0-1.73,3.1,4.72,4.72,0,0,0-.28,2,3.47,3.47,0,0,0,.27,1.09,3.23,3.23,0,0,0,.62.92,5.57,5.57,0,0,0,3.49,1.72,10.66,10.66,0,0,0,3.63-.31,20.49,20.49,0,0,0,6.22-3,48,48,0,0,0,5.27-4.22l-1.28-.69a25.81,25.81,0,0,0,.07,5.13,24.2,24.2,0,0,0,1,5,17.18,17.18,0,0,0,2.25,4.54,13.14,13.14,0,0,0,3.58,3.51,15.07,15.07,0,0,1-3.12-3.79,17.77,17.77,0,0,1-1.77-4.53,24.39,24.39,0,0,1-.71-4.81,25.58,25.58,0,0,1,.21-4.81l.28-2-1.56,1.28a49.74,49.74,0,0,1-5.2,3.91,19.65,19.65,0,0,1-5.71,2.67c-1.93.49-4.16.43-5.3-.84-1.1-1,0-3.19,1.19-4.9a64.3,64.3,0,0,1,4-5.14c1.42-1.69,2.85-3.35,4.37-4.93C283.93,167.94,287.06,164.75,291,162.71Z"/><path class="cls-4" d="M318.73,203.32,271.2,238.67s39.44,38.68,57.54,41.25,67.13-21.94,92.63-41.35c26.09-19.85,7.33-25.83-10.08-21.58S348,230.8,346.81,230.48,318.73,203.32,318.73,203.32Z"/><path class="cls-6" d="M390.58,255.37a3.14,3.14,0,0,0-1.79,3.81c.31-.16.61-.35.91-.49v0a2.12,2.12,0,0,1,1.26-2.38,2.15,2.15,0,0,1,2.31.42l.9-.52A3.12,3.12,0,0,0,390.58,255.37ZM368.7,269.12a2.85,2.85,0,0,0-.24-1.14,3.17,3.17,0,1,0-5.85,2.43,2.94,2.94,0,0,0,.72,1l1-.44a2.07,2.07,0,0,1-.82-1,2.13,2.13,0,0,1,1.16-2.82,2.17,2.17,0,0,1,2.81,1.16,2.14,2.14,0,0,1,.12,1.22Zm-30.64,8.06a3.18,3.18,0,0,0-1.94,2.59,9.93,9.93,0,0,0,1-.14,2.16,2.16,0,0,1,1.28-1.52,2.14,2.14,0,0,1,2.59.8l1-.24A3.13,3.13,0,0,0,338.06,277.18Zm13-47.34a2.15,2.15,0,0,1-3.89.62.72.72,0,0,1-.35,0,7.15,7.15,0,0,1-1-.76,2.93,2.93,0,0,0,.2.8,3.15,3.15,0,0,0,4.13,1.66,3.05,3.05,0,0,0,1.93-2.52ZM325.59,239a3.15,3.15,0,1,0-1.69,4.09A3.15,3.15,0,0,0,325.59,239Zm-2.07,3.19a2.16,2.16,0,1,1,1.15-2.81A2.15,2.15,0,0,1,323.52,242.19Zm-24.22,7.72a3.14,3.14,0,1,0-1.68,4.11A3.16,3.16,0,0,0,299.3,249.91Zm-2.07,3.21a2.2,2.2,0,0,1-2.82-1.16,2.17,2.17,0,0,1,1.16-2.83,2.15,2.15,0,0,1,2.83,1.16A2.17,2.17,0,0,1,297.23,253.12Zm128.52-32.57a3.15,3.15,0,1,0-1.68,4.09A3.15,3.15,0,0,0,425.75,220.55Zm-2.06,3.19a2.17,2.17,0,0,1-2.83-1.16,2.15,2.15,0,0,1,1.16-2.83,2.16,2.16,0,0,1,1.67,4Zm-24.19,7.72a3.15,3.15,0,1,0-5.83,2.41,3.14,3.14,0,0,0,4.11,1.7A3.19,3.19,0,0,0,399.5,231.46Zm-2.1,3.21a2.16,2.16,0,0,1-1.67-4,2.15,2.15,0,0,1,2.83,1.16A2.19,2.19,0,0,1,397.4,234.67Zm-24.21,7.7a3.15,3.15,0,1,0-1.68,4.11A3.16,3.16,0,0,0,373.19,242.37Zm-2.06,3.21a2.18,2.18,0,0,1-2.81-1.16,2.15,2.15,0,1,1,4-1.67A2.17,2.17,0,0,1,371.13,245.58Zm-24.19,7.7a3.16,3.16,0,1,0-1.72,4.11A3.14,3.14,0,0,0,346.94,253.28Zm-2.1,3.21a2.14,2.14,0,0,1-2.81-1.16,2.15,2.15,0,1,1,4-1.65A2.13,2.13,0,0,1,344.84,256.49Zm-24.18,7.72a3.17,3.17,0,0,0-4.12-1.73,3.2,3.2,0,0,0-1.72,4.16,3.16,3.16,0,0,0,5.84-2.43Zm-2.07,3.19a2.16,2.16,0,0,1-2.83-1.17,2.16,2.16,0,0,1,4-1.64A2.18,2.18,0,0,1,318.59,267.4ZM329.5,214a2.14,2.14,0,0,1-1.22,2.62,2.18,2.18,0,0,1-2.83-1.18,2.15,2.15,0,0,1,1.16-2.81,2.07,2.07,0,0,1,1.38-.1l-1-1a3.23,3.23,0,0,0-.72.2,3.16,3.16,0,0,0,2.41,5.84,3.27,3.27,0,0,0,1.92-2.47v0C330.2,214.68,329.86,214.34,329.5,214ZM304.07,224.3a3.15,3.15,0,1,0-1.68,4.11A3.15,3.15,0,0,0,304.07,224.3ZM302,227.51a2.2,2.2,0,0,1-2.83-1.18,2.16,2.16,0,1,1,4-1.64A2.18,2.18,0,0,1,302,227.51Zm-24.19,7.7a3,3,0,0,0-.64-1l-.82.6a2.15,2.15,0,0,1-.64,3.57,2.18,2.18,0,0,1-2.77-1l-.78.6a3.15,3.15,0,0,0,5.65-2.77Z"/><path class="cls-5" d="M305.4,227.46q4.8-3.71,9.62-7.37c3.21-2.43,6.37-5,9.74-7.21.16-.1.37.1.22.24-2.82,2.66-6,5.06-9,7.52-3.2,2.62-6.41,5.21-9.63,7.8-6.37,5.11-12.92,10-19.56,14.72-.16.11-.31-.12-.17-.24C292.79,237.62,299,232.43,305.4,227.46Z"/><path class="cls-5" d="M404.49,252.72c-2,.5-4,1-5.93,1.6l-1.08.36,2.35-1.44a88,88,0,0,0,8.21-5.18c.12-.09,0-.27-.14-.22a93.44,93.44,0,0,0-8.95,4.75c-2.89,1.58-10.68,5.89-13.16,7.94-.15.12,0,.33.18.27a71,71,0,0,0,8.94-4.56c.35-.1.69-.21,1-.3,1-.26,1.9-.58,2.84-.9,1.94-.68,3.84-1.43,5.74-2.21C404.59,252.81,404.56,252.71,404.49,252.72Z"/><path class="cls-2" d="M438.66,239.15c-4.91.6-15.87-7.83-20.46-15.29-.32-.51.21-6.1.52-12.92.17-4.14.27-8.75,0-13L445.54,203s-2.14,9-1.72,16.32a9.23,9.23,0,0,0,.27,1.72c0,.08,0,.17.05.29C444.85,224.62,446.35,238.21,438.66,239.15Z"/><path class="cls-5" d="M444.09,221.09a1.29,1.29,0,0,0,.06.28,18.35,18.35,0,0,1-2.73.28c-15.33.45-20.11-18.21-21.14-23.37L445.55,203s-2.15,9-1.73,16.31A11.33,11.33,0,0,0,444.09,221.09Z"/><path class="cls-2" d="M416.77,166.92c-3.16,9.29,1,36.55,7.44,42.8,9.4,9.07,25.21,10.4,33-1,7.57-11.05,1.58-46.48-5.7-52.2C440.8,148.09,421.43,153.19,416.77,166.92Z"/><path class="cls-5" d="M438.45,183.49c0-.07-.13.11-.11.19.41,1.81.56,3.95-1,4.87-.05,0,0,.12,0,.1C439.36,188,439.12,185.14,438.45,183.49Z"/><path class="cls-5" d="M436.46,181.89c-3,.34-2.09,6.27.67,6S439,181.61,436.46,181.89Z"/><path class="cls-5" d="M448.72,181.6c0-.07.15.07.16.14.22,1.85.78,3.92,2.53,4.28.06,0,.07.11,0,.11C449.34,186.15,448.63,183.38,448.72,181.6Z"/><path class="cls-5" d="M450.07,179.44c2.92-.67,4,5.22,1.33,5.83S447.62,180,450.07,179.44Z"/><path class="cls-5" d="M433.71,179.53a22.66,22.66,0,0,0,2.18-1.15,4,4,0,0,0,2-1.6,1.28,1.28,0,0,0-.43-1.49,3.16,3.16,0,0,0-3.18.15,4.64,4.64,0,0,0-2.34,2.38A1.35,1.35,0,0,0,433.71,179.53Z"/><path class="cls-5" d="M452,173.52a22.62,22.62,0,0,1-2.45-.26,3.91,3.91,0,0,1-2.44-.73A1.27,1.27,0,0,1,447,171a3.12,3.12,0,0,1,3-1.05,4.65,4.65,0,0,1,3,1.32A1.35,1.35,0,0,1,452,173.52Z"/><path class="cls-5" d="M439.33,200.91c.5.36,1,.89,1.71.84a4.81,4.81,0,0,0,1.9-.76.06.06,0,0,1,.09.08,2.49,2.49,0,0,1-2.18,1.35,2,2,0,0,1-1.69-1.4C439.12,200.91,439.26,200.85,439.33,200.91Z"/><path class="cls-5" d="M440.43,195.12a6.31,6.31,0,0,0,4.59,2.15,7.9,7.9,0,0,0,2.27-.23,2.58,2.58,0,0,0,.42-.12l.39-.12a.47.47,0,0,0,.31-.47h0a.53.53,0,0,0-.05-.18v0l0-.16c-.17-1.42-.63-3.55-.63-3.55.55.18,3.37,1,3.21.24-1.28-6.06-2.71-12.8-5.27-18.56a.17.17,0,0,0-.33.1c1,5.87,3,11.53,4.14,17.41a11,11,0,0,0-3.09-.45c-.19.09,1,4.1,1,4.74a.14.14,0,0,1,0,.07c-2.33.66-4.23.22-6.77-1C440.43,194.84,440.3,195,440.43,195.12Z"/><path class="cls-5" d="M446.35,196.45a7.43,7.43,0,0,1-2.63,2.74,3.34,3.34,0,0,1-2,.44c-1.52-.17-1.76-1.51-1.66-2.7a7.77,7.77,0,0,1,.39-1.86A9.74,9.74,0,0,0,446.35,196.45Z"/><path class="cls-8" d="M443.72,199.19a3.34,3.34,0,0,1-2,.44c-1.52-.17-1.76-1.51-1.66-2.7C441.64,196.85,443.36,197.69,443.72,199.19Z"/><path class="cls-5" d="M415.57,191.31c5.15-1.65,7.2-19.19,7.2-19.19s.2,7.4,1.59,7.18,6.72-10.47,7.12-17.7a56.2,56.2,0,0,0,13.39,6c6.65,1.75,13.93,1.06,13.89-.06-.11-3.33-3.44-11.94-8.08-14.87-5.33-3.38-12.9-6.57-23.52-2.08S414,162.06,412.54,167.48,413.67,191.92,415.57,191.31Z"/><path class="cls-2" d="M421.87,189.19s-6-8.84-10-6.7.47,14.91,5.12,16.7a4.76,4.76,0,0,0,6.4-2.48Z"/><path class="cls-5" d="M413.21,186.12c-.08,0-.09.1,0,.13,3.26,1.36,4.95,4.42,6.12,7.58-1-1.23-2.28-1.9-3.91-.76-.09.06,0,.19.08.17a2.93,2.93,0,0,1,3.21,1.06,14.16,14.16,0,0,1,1.51,2.62c.15.29.68.14.57-.2a.19.19,0,0,0,0-.07C420.87,192.47,417.69,186.59,413.21,186.12Z"/><path class="cls-1" d="M445.67,149.29A40,40,0,0,0,434.78,145c-4.28-.93-18-1.08-21.54,1.37s-5.51,15.23-5.76,17.11-.42,13.32,3.46,16.42,6-16.17,13-22S445.67,149.29,445.67,149.29Z"/><path class="cls-7" d="M445.67,149.29S431.05,152,424,157.87s-9.16,25.11-13.05,22c-1.7-1.37-2.43-3.25-2.91-6.33,1.36-5.57,4.42-14.13,9.66-19.78,4.91-5.3,12.75-7.5,20.95-7.7A45.27,45.27,0,0,1,445.67,149.29Z"/><path class="cls-1" d="M411.05,191.44c.83-5.11,7.28-18.43,13.46-25.85s22.74-10.61,25-10.28c5.45.8,6.2,3.67,7.11,3.25s-3.4-6.07-4.86-7.13-5.42-3.6-7.81-3.76-17.2,0-23.09,5.81-15,22.68-14,27.3c.24,1.11,1.61,1.93,1.93,3.5.43,2.06.64,4.42,1.12,5.87C410.28,191.33,411,191.89,411.05,191.44Z"/><path class="cls-5" d="M426.09,162.16a26.55,26.55,0,0,1-3.33-2.93,19.13,19.13,0,0,1-2.76-3.52c-.05-.09-.2,0-.16.07a14.66,14.66,0,0,0,2.45,3.9,12.43,12.43,0,0,0,3.66,2.73C426.1,162.48,426.22,162.25,426.09,162.16Z"/><path class="cls-5" d="M411.46,186.3c-.11-.39-.33-.74-.47-1.11a5.94,5.94,0,0,1-.37-1.31,11.55,11.55,0,0,0-.37-2.56,10.35,10.35,0,0,0-1.05-1.82,3.42,3.42,0,0,1-.83-2.18.09.09,0,0,0-.17,0c-.15,1.57.8,2.77,1.37,4.14a15.86,15.86,0,0,1,.47,2.74,4.05,4.05,0,0,0,1.17,2.27C411.31,186.52,411.49,186.43,411.46,186.3Z"/><path class="cls-5" d="M413.72,180.89c-.43-.63-.91-1.2-1.29-1.88a16.13,16.13,0,0,1-.94-2c-.26-.68-.47-1.38-.73-2.07s-.7-1.59-1-2.42c0-.1-.19,0-.15.07.27.86.39,1.76.63,2.62a18.41,18.41,0,0,0,.79,2.19,12,12,0,0,0,1.06,2,5.5,5.5,0,0,0,1.53,1.62S413.75,180.94,413.72,180.89Z"/><path class="cls-5" d="M416,176a15.1,15.1,0,0,1-2.53-3.41c-.64-1.22-1.22-2.5-1.78-3.76,0-.09-.18,0-.16.05A17.66,17.66,0,0,0,413,173a8.55,8.55,0,0,0,1.17,1.74,9.64,9.64,0,0,0,1.74,1.45C416,176.2,416.11,176.1,416,176Z"/><path class="cls-5" d="M418.5,171.38a5,5,0,0,1-1.24-1.5c-.4-.61-.78-1.24-1.14-1.88s-.71-1.21-1.05-1.82a5.12,5.12,0,0,1-.76-2,.09.09,0,0,0-.17,0,5.2,5.2,0,0,0,.42,2.06,13.17,13.17,0,0,0,1,2.12,17.4,17.4,0,0,0,1.29,1.92,3.36,3.36,0,0,0,1.56,1.28A.12.12,0,0,0,418.5,171.38Z"/><path class="cls-5" d="M420.51,165.4c-.44-.51-.87-1-1.26-1.56s-.76-1.11-1.12-1.67-.77-1.18-1.1-1.79a.09.09,0,0,0-.16.07,13.72,13.72,0,0,0,.79,2,16.78,16.78,0,0,0,2.38,3.38,5.53,5.53,0,0,0,1.57,1.32.12.12,0,0,0,.15-.16A9.68,9.68,0,0,0,420.51,165.4Z"/><path class="cls-5" d="M430.3,159.58c-.46-.68-.9-1.34-1.41-2a20.82,20.82,0,0,0-1.68-1.83,22,22,0,0,0-3.76-3.05c-.08,0-.19.05-.12.12,2.25,2.3,4.6,4.51,6.83,6.84A.09.09,0,0,0,430.3,159.58Z"/><path class="cls-5" d="M433.8,155.45a11.1,11.1,0,0,0-1.6-1.82,23.47,23.47,0,0,0-4.2-2.84c-.09,0-.19.07-.1.14,1.26,1,2.53,2,3.73,3.06a20.62,20.62,0,0,1,1.7,1.67c.54.6.92,1.29,1.43,1.91a.06.06,0,0,0,.11,0A6,6,0,0,0,433.8,155.45Z"/><path class="cls-5" d="M438.26,153.8a10.94,10.94,0,0,0-1.47-1.79,13.15,13.15,0,0,0-3.56-2.54c-.09,0-.16.09-.09.15a25.39,25.39,0,0,1,3.33,2.88c.51.53,1,1.09,1.48,1.63a21.57,21.57,0,0,0,1.43,1.71s.1,0,.08-.07A11.79,11.79,0,0,0,438.26,153.8Z"/><path class="cls-5" d="M441.59,151.51c-.51-.49-1-.94-1.56-1.4a6.78,6.78,0,0,0-1.7-1.17c-.1,0-.15.09-.09.15,1,.93,1.95,1.89,2.91,2.84a18.68,18.68,0,0,1,2.16,3c0,.05.11,0,.09,0A6.62,6.62,0,0,0,441.59,151.51Z"/><path class="cls-5" d="M445.52,151a10.64,10.64,0,0,0-3.24-2.44c-.09-.05-.17.1-.09.15a13.24,13.24,0,0,1,2.92,2.62,18.61,18.61,0,0,1,2.2,3.28c0,.05.13,0,.11,0A9,9,0,0,0,445.52,151Z"/><path class="cls-5" d="M450.38,153.77A6.66,6.66,0,0,0,450,153a8.88,8.88,0,0,0-1-1.5,18,18,0,0,0-2.72-2.51.09.09,0,0,0-.1.14,15,15,0,0,1,2.53,2.56,11,11,0,0,1,1,1.46,8,8,0,0,1,.4.77,4.16,4.16,0,0,0,.36.77.08.08,0,0,0,.15,0A2.4,2.4,0,0,0,450.38,153.77Z"/><path class="cls-5" d="M453.45,154.32a11.26,11.26,0,0,0-.84-1.24,11.39,11.39,0,0,0-1-1.12c-.36-.36-.73-.71-1.08-1.09-.08-.09-.21,0-.11.13a8.51,8.51,0,0,1,1,1.17l.87,1.16.87,1.17a12.51,12.51,0,0,0,.86,1.2.07.07,0,0,0,.12-.07A6.89,6.89,0,0,0,453.45,154.32Z"/><path class="cls-1" d="M590.87,141.7c-39.87,7.16-28.82,69.14,11.12,62S630.82,134.54,590.87,141.7Z"/><path class="cls-7" d="M621.73,174.15c-.22,11-6.65,21.74-20.69,24.26-33.14,6-42.32-45.5-9.23-51.44l.66-.1c-31,6.21-22.14,54.9,9.46,49.23C614.82,193.78,621,184.25,621.73,174.15Z"/><path class="cls-3" d="M598.83,153.69a1.07,1.07,0,0,1,.93,1.16l-.21,1.74a14.38,14.38,0,0,1,7.39,4,1.22,1.22,0,0,1,.49,1.08,1.13,1.13,0,0,1-1.26,1,1.08,1.08,0,0,1-.75-.4,12.52,12.52,0,0,0-6.19-3.59l-1.44,12.18c6.46,2.18,9,5,8.45,9.25-.54,4.62-4.8,7.42-10.26,7l-.4,3.39a1.05,1.05,0,1,1-2.09-.24l.4-3.44a16.42,16.42,0,0,1-9.29-5.38,1.13,1.13,0,0,1-.38-1,1.16,1.16,0,0,1,1.22-1,1.17,1.17,0,0,1,.75.4,14.18,14.18,0,0,0,8,5l1.46-12.41c-6.36-2.2-8.78-4.91-8.27-9.26s4.75-7.3,10.07-6.81l.2-1.65A1.05,1.05,0,0,1,598.83,153.69Zm-2.9,16.42,1.4-11.88c-4.23-.41-7.32,1.79-7.69,4.92C589.3,166.11,590.47,168.1,595.93,170.11Zm1.6,2.88-1.41,12c4.36.42,7.49-1.77,7.88-5.08C604.35,176.93,603,174.92,597.53,173Z"/></svg>