<svg id="Слой_1" data-name="Слой 1" xmlns="http://www.w3.org/2000/svg" viewBox="0 0 1400 595.28"><defs><style>.cls-1,.cls-5{fill:#ececec;}.cls-2{fill:#fff;}.cls-3{fill:#a7a7a7;}.cls-4,.cls-7{fill:none;}.cls-4{stroke:#ececec;stroke-miterlimit:10;stroke-width:1.62px;}.cls-5{fill-rule:evenodd;}.cls-6{fill:#c9c8c8;}.cls-7{stroke:#fec703;stroke-linecap:round;stroke-linejoin:round;stroke-width:9.69px;}.cls-8{fill:#192e35;}.cls-9{fill:#fec703;}.cls-10,.cls-13{fill:#010101;}.cls-10{opacity:0.1;}.cls-11{fill:#385a65;}.cls-12{fill:#ee776b;}.cls-13{opacity:0.2;}.cls-14{fill:#2b454e;}.cls-15{fill:#f298bc;}</style></defs><circle class="cls-1" cx="501.9" cy="110.52" r="76.49" transform="translate(-9.68 61.44) rotate(-6.94)"/><circle class="cls-2" cx="501.9" cy="110.52" r="58.39" transform="translate(68.86 387.27) rotate(-45)"/><circle class="cls-1" cx="501.9" cy="110.52" r="41.72"/><circle class="cls-2" cx="501.9" cy="110.52" r="23.07" transform="translate(-11.95 119.02) rotate(-13.37)"/><path class="cls-1" d="M491.47,110.52a10.43,10.43,0,1,0,10.43-10.43A10.42,10.42,0,0,0,491.47,110.52Z"/><rect class="cls-3" x="443.99" y="-15.61" width="3.35" height="139.79" transform="translate(92.15 331.03) rotate(-45)"/><polygon class="cls-3" points="488.98 107.06 501.9 110.52 498.44 97.6 488.98 107.06"/><polygon class="cls-3" points="379.71 -1.57 398.24 16.96 412.78 21.4 408.35 6.86 389.81 -11.67 394.25 2.86 379.71 -1.57"/><polygon class="cls-1" points="844.25 -15.31 849.61 -7.32 858.87 -4.69 852.92 2.88 853.28 12.49 844.25 9.18 835.21 12.49 835.57 2.88 829.63 -4.69 838.88 -7.32 844.25 -15.31"/><polygon class="cls-1" points="885.59 -15.31 890.95 -7.32 900.21 -4.69 894.27 2.88 894.63 12.49 885.59 9.18 876.56 12.49 876.91 2.88 870.97 -4.69 880.23 -7.32 885.59 -15.31"/><polygon class="cls-1" points="926.93 -15.31 932.3 -7.32 941.55 -4.69 935.61 2.88 935.97 12.49 926.93 9.18 917.9 12.49 918.26 2.88 912.32 -4.69 921.57 -7.32 926.93 -15.31"/><polygon class="cls-1" points="968.28 -15.31 973.64 -7.32 982.9 -4.69 976.96 2.88 977.31 12.49 968.28 9.18 959.24 12.49 959.6 2.88 953.66 -4.69 962.92 -7.32 968.28 -15.31"/><polygon class="cls-4" points="1009.62 -15.31 1014.99 -7.32 1024.24 -4.69 1018.3 2.88 1018.66 12.49 1009.62 9.18 1000.59 12.49 1000.95 2.88 995 -4.69 1004.26 -7.32 1009.62 -15.31"/><polygon class="cls-1" points="1009.62 9.18 1009.62 -15.31 1004.26 -7.32 995 -4.69 1000.95 2.88 1000.59 12.49 1009.62 9.18"/><g id="xsrjP0"><path class="cls-5" d="M958,322.3c-2-1.28-3.84-3.14-6.57-2.87-1,.11-.82-.76-.83-1.33q-.08-15.44-.12-30.86c0-.75,0-1.36.85-1.78,7.84-4,11.23-11.79,16-18.47A30.78,30.78,0,0,0,973,243.63c-.34-2.32.74-3.36,2.82-3.84,2.51-.58,5,.11,5.88,1.83a41.51,41.51,0,0,1,4.53,13.46c.47,3.91-.92,7.71-1.39,11.57-.35,2.83-1,5.62-1.53,8.48.69.5,1.5.24,2.24.25l26.07-.08c3.66,0,5.46,1,6,3.46a7,7,0,0,1-3.76,7.55c-.64.33-1.82,0-1.9,1.05s1.14.93,1.74,1.35c3.15,2.15,2.58,6.6-1,9.18-.87.62-2.57.34-2.61,1.63,0,1,1.57,1,2.3,1.72,2.54,2.5,1.3,7.19-2.49,9.1a12.13,12.13,0,0,0-1.53.59c-.43.3-.85.62,0,1.21,3.77,2.68,3.7,6.42-.08,9.16l-1.13.82c-1.37,1-3,1-4.57,1q-20.44.11-40.88.14A4.83,4.83,0,0,1,958,322.3Z"/><path class="cls-5" d="M919.17,304.28c0-6.53,0-13.07-.08-19.61,0-1.33.12-2,1.74-2q12,.12,23.92-.07c1.56,0,1.81.52,1.8,1.91q0,19.72.14,39.46c0,1.67-.44,2.15-2.12,2.12-7.73-.06-15.46-.05-23.19.1-1.93,0-2.19-.64-2.18-2.33C919.28,317.36,919.19,310.82,919.17,304.28Z"/></g><path class="cls-6" d="M617.51,617.17H406a4.23,4.23,0,0,1-4.23-4.22v-25a1.09,1.09,0,0,1,0-.18h0a2.09,2.09,0,0,1,0-.25c0-.15,0-.3.07-.45l25.56-93.91L394.23,287.78l-11.05-3.85a4.22,4.22,0,1,1,2.37-8.11l13.65,4.6a4.26,4.26,0,0,1,3,3.43l33.66,208.71a4.23,4.23,0,0,1,0,1.42L411,584l197.06,14a4.28,4.28,0,0,1,2.86,1.38l9.72,10.75a4.22,4.22,0,0,1-3.13,7.06Zm-207.32-8.45H608l-2.19-2.42L410.19,592.39Z"/><path class="cls-6" d="M695,354.47H409.79a4.23,4.23,0,1,1,0-8.45H695a4.23,4.23,0,1,1,0,8.45Z"/><path class="cls-6" d="M431.67,494.6a1.41,1.41,0,0,1-.07-2.82l214.22-11.46L688,349.82a1.41,1.41,0,0,1,2.68.86L648.21,482.11a1.42,1.42,0,0,1-1.27,1l-215.2,11.51Z"/><path class="cls-6" d="M650.55,471.31H427.75a1.41,1.41,0,1,1,0-2.82h222.8a1.41,1.41,0,1,1,0,2.82Z"/><path class="cls-6" d="M656.21,454.18H425.13a1.41,1.41,0,1,1,0-2.82H656.21a1.41,1.41,0,0,1,0,2.82Z"/><path class="cls-6" d="M661.45,437h-239a1.41,1.41,0,1,1,0-2.82h239a1.41,1.41,0,0,1,0,2.82Z"/><path class="cls-6" d="M667.13,419.9H419.88a1.41,1.41,0,1,1,0-2.81H667.13a1.41,1.41,0,0,1,0,2.81Z"/><path class="cls-6" d="M672.55,402.77H417.26a1.41,1.41,0,0,1,0-2.82H672.55a1.41,1.41,0,1,1,0,2.82Z"/><path class="cls-6" d="M678.36,385.63H414.64a1.41,1.41,0,1,1,0-2.81H678.36a1.41,1.41,0,1,1,0,2.81Z"/><path class="cls-6" d="M683.9,368.5H412a1.41,1.41,0,1,1,0-2.82H683.9a1.41,1.41,0,1,1,0,2.82Z"/><path class="cls-6" d="M450.9,492.8a1.4,1.4,0,0,1-1.4-1.3L438.71,350.36a1.41,1.41,0,0,1,1.3-1.52,1.44,1.44,0,0,1,1.51,1.3l10.79,141.15a1.42,1.42,0,0,1-1.3,1.51Z"/><path class="cls-6" d="M625.58,483.6a1.57,1.57,0,0,1-.37-.05,1.41,1.41,0,0,1-1-1.73l35.87-131.94a1.41,1.41,0,0,1,2.72.74L626.94,482.56A1.42,1.42,0,0,1,625.58,483.6Z"/><path class="cls-6" d="M473.41,491.75a1.41,1.41,0,0,1-1.41-1.37l-3.49-140.1a1.41,1.41,0,0,1,1.38-1.44h0a1.41,1.41,0,0,1,1.41,1.37l3.49,140.1a1.41,1.41,0,0,1-1.38,1.44Z"/><path class="cls-6" d="M496.5,490.5h0a1.4,1.4,0,0,1-1.38-1.43l2.58-138.85a1.42,1.42,0,0,1,1.41-1.38h0a1.4,1.4,0,0,1,1.38,1.44l-2.59,138.84A1.4,1.4,0,0,1,496.5,490.5Z"/><path class="cls-6" d="M601,484.7a1.43,1.43,0,0,1-.29,0,1.4,1.4,0,0,1-1.09-1.66l27.26-133a1.41,1.41,0,0,1,2.76.57l-27.26,133A1.41,1.41,0,0,1,601,484.7Z"/><path class="cls-6" d="M573,486.38l-.23,0a1.41,1.41,0,0,1-1.16-1.62L593.66,350a1.41,1.41,0,0,1,2.78.46L574.37,485.19A1.41,1.41,0,0,1,573,486.38Z"/><path class="cls-6" d="M520.15,489.16h-.1a1.42,1.42,0,0,1-1.31-1.51L529,350.14a1.41,1.41,0,0,1,2.82.21L521.56,487.86A1.42,1.42,0,0,1,520.15,489.16Z"/><path class="cls-6" d="M547.85,487.37h-.16a1.41,1.41,0,0,1-1.24-1.56l15.09-135.71a1.38,1.38,0,0,1,1.55-1.24,1.41,1.41,0,0,1,1.25,1.55L549.25,486.12A1.41,1.41,0,0,1,547.85,487.37Z"/><line class="cls-7" x1="394.89" y1="283.76" x2="372.67" y2="275.33"/><path class="cls-8" d="M838.5,20.74H565.41c-15.24,0-27.62,12.59-27.62,28.14V611c0,15.52,12.38,28.14,27.62,28.14H838.5c15.25,0,27.66-12.62,27.66-28.14V48.88A27.91,27.91,0,0,0,838.5,20.74Zm10.38,572.92c0,14.79-11.09,26.76-24.75,26.76H579.82c-13.69,0-24.78-12-24.78-26.76V70.19c0-30.14,11.09-31.61,24.78-31.61h48.95c2.84,0,5.17,3.23,5.17,7.23v1.73c0,9.39,5.13,9.42,11.43,9.42H758.54c6.37,0,11.47,0,11.47-9.42V45.81c0-4,2.3-7.23,5.19-7.23h48.93c13.66,0,24.75,4,24.75,31.61Z"/><path class="cls-2" d="M848.89,70.65V594.12c0,14.79-11.08,26.76-24.75,26.76H579.84c-13.7,0-24.78-12-24.78-26.76V70.65c0-30.14,11.08-31.61,24.78-31.61h48.94c2.85,0,5.17,3.23,5.17,7.23V48c0,9.39,5.14,9.42,11.44,9.42H758.56c6.37,0,11.47,0,11.47-9.42V46.27c0-4,2.29-7.23,5.19-7.23h48.92C837.81,39,848.89,43,848.89,70.65Z"/><path class="cls-2" d="M717.4,45.24H686.53a1.91,1.91,0,0,1-1.9-1.91h0a1.91,1.91,0,0,1,1.9-1.91H717.4a1.91,1.91,0,0,1,1.91,1.91h0A1.91,1.91,0,0,1,717.4,45.24Z"/><g id="u5Zjqx"><path class="cls-3" d="M620.32,50.33l-.48.47-.26.27a6.43,6.43,0,0,0-9.12,0l-.25-.27c-.16-.16-.32-.31-.47-.47h0l0,0c.2-.17.39-.36.6-.53a7.34,7.34,0,0,1,1.38-.88,6.91,6.91,0,0,1,1.83-.61,9.25,9.25,0,0,1,.92-.12c.1,0,.78,0,.8,0l.62,0a6.86,6.86,0,0,1,1.68.4,6.57,6.57,0,0,1,1.14.53,6.86,6.86,0,0,1,1.09.76l.5.45Z"/><path class="cls-3" d="M612,52.56l-.75-.74a5.25,5.25,0,0,1,3-1.53,5.34,5.34,0,0,1,4.58,1.52l-.75.74a4.33,4.33,0,0,0-6.12,0Z"/><path class="cls-3" d="M617.33,53.3l-.74.75a2.22,2.22,0,0,0-3.14,0l-.74-.74A3.25,3.25,0,0,1,617.33,53.3Z"/><path class="cls-3" d="M615.69,54.72a.67.67,0,1,1-.67-.67A.67.67,0,0,1,615.69,54.72Z"/></g><path class="cls-3" d="M574.21,51.76a1.95,1.95,0,1,1,1.95,2A1.94,1.94,0,0,1,574.21,51.76Z"/><path class="cls-3" d="M580.34,51.76a1.95,1.95,0,1,1,1.95,2A1.94,1.94,0,0,1,580.34,51.76Z"/><path class="cls-3" d="M586.48,51.76a1.95,1.95,0,1,1,1.94,2A1.94,1.94,0,0,1,586.48,51.76Z"/><path class="cls-3" d="M592.61,51.76a1.95,1.95,0,1,1,1.95,2A1.94,1.94,0,0,1,592.61,51.76Z"/><path class="cls-3" d="M598.74,51.76a2,2,0,1,1,2,2A2,2,0,0,1,598.74,51.76Z"/><path class="cls-3" d="M826.84,56H811V48.67h15.85Zm-15.05-.8H826V49.48H811.79Z"/><rect class="cls-3" x="812.3" y="49.92" width="10.22" height="4.85"/><rect class="cls-3" x="826.85" y="50.38" width="1.41" height="3.93"/><rect class="cls-9" x="685.1" y="16.56" width="33.75" height="79.39"/><path class="cls-9" d="M718.85,95.94s-3.21,16.15-16.87,16.15-16.87-16.15-16.87-16.15Z"/><path class="cls-10" d="M718.85,95.94s-3.21,16.15-16.87,16.15-16.87-16.15-16.87-16.15Z"/><polygon class="cls-2" points="685.1 95.95 651.35 95.95 654.8 16.56 685.1 16.56 685.1 95.95"/><path class="cls-8" d="M685.1,96l-33.75.21h-.22v-.22l3.26-79.4v-.39h.39l30.3.07h.33c.13.31-.21,39.78-.12,40.11L685.1,96Zm0,0-.21-39.79-.12-39.6.33.32L654.8,17l.4-.39c-.12,0-3.33,80.32-3.85,79.17L685.1,96Z"/><path class="cls-1" d="M685.11,95.94s-3.23,16.15-16.89,16.15-16.87-16.15-16.87-16.15Z"/><polygon class="cls-9" points="651.35 95.95 617.6 95.95 624.49 16.56 654.79 16.56 651.35 95.95"/><path class="cls-9" d="M651.35,95.94s-3.21,16.15-16.87,16.15-16.87-16.15-16.87-16.15Z"/><path class="cls-10" d="M651.35,95.94s-3.21,16.15-16.87,16.15-16.87-16.15-16.87-16.15Z"/><polygon class="cls-2" points="617.59 95.95 583.85 95.95 594.18 16.56 624.48 16.56 617.59 95.95"/><path class="cls-8" d="M617.59,96l-33.74.21h-.25l0-.24L593.78,16.5l.05-.35h.35l30.3.07h.36l0,.35-3.57,39.77L617.59,96Zm0,0,3.24-39.8,3.33-39.62.32.35-30.3.08.4-.35c-.13-.05-10.27,80.34-10.73,79.13l33.74.21Z"/><path class="cls-1" d="M617.59,95.94s-3.21,16.15-16.87,16.15-16.87-16.15-16.87-16.15Z"/><polygon class="cls-9" points="583.84 95.95 550.09 95.95 563.87 16.56 594.18 16.56 583.84 95.95"/><path class="cls-9" d="M583.85,95.94s-3.23,16.15-16.87,16.15-16.89-16.15-16.89-16.15Z"/><path class="cls-10" d="M583.85,95.94s-3.23,16.15-16.87,16.15-16.89-16.15-16.89-16.15Z"/><path class="cls-2" d="M550.09,96H516.34l15.07-69.48c1.25-5.73,7.35-9.91,14.47-9.91h18Z"/><path class="cls-8" d="M550.09,96l-33.75.21h-.26c0-.06,11.36-52.91,11.37-53,.52-2.43,3.08-14.34,3.54-16.5,1.43-7.14,9.24-10.84,16-10.43h3.38l13.5,0h.39l-.07.38-7,39.76L550.09,96Zm0,0c3.3-19.82,10.06-59.66,13.45-79.45l.33.39-13.5,0H547a17.38,17.38,0,0,0-9.51,2.25,11.81,11.81,0,0,0-5.74,7.59l-.72,3.3c-1.87,8.54-12.37,56.35-14.47,65.92l-.21-.26,33.75.22Z"/><path class="cls-1" d="M550.09,95.94s-3.21,16.15-16.87,16.15-16.87-16.15-16.87-16.15Z"/><polygon class="cls-2" points="718.85 95.95 752.6 95.95 749.15 16.56 718.85 16.56 718.85 95.95"/><path class="cls-8" d="M718.85,96l33.75-.22c-.54,1.39-3.67-79.47-3.85-79.16l.4.39-30.3-.08.33-.32-.12,39.6L718.85,96Zm0,0-.21-39.61-.11-39.78v-.33h.33l30.3-.07h.39v.39l3.26,79.4v.22h-.22L718.85,96Z"/><path class="cls-1" d="M752.6,95.94s-3.22,16.15-16.86,16.15-16.89-16.15-16.89-16.15Z"/><polygon class="cls-9" points="752.6 95.95 786.35 95.95 779.46 16.56 749.16 16.56 752.6 95.95"/><path class="cls-9" d="M786.34,95.94s-3.2,16.15-16.87,16.15S752.6,95.94,752.6,95.94Z"/><path class="cls-10" d="M786.34,95.94s-3.2,16.15-16.87,16.15S752.6,95.94,752.6,95.94Z"/><polygon class="cls-2" points="786.36 95.95 820.1 95.95 809.77 16.56 779.47 16.56 786.36 95.95"/><path class="cls-8" d="M786.36,96l33.74-.22c-.46,1.46-10.56-79.45-10.73-79.12l.4.35-30.3-.08.32-.35c1.69,19.78,5,59.62,6.57,79.42Zm0,0-3.65-39.6-3.57-39.77,0-.35h.36l30.3-.07h.35c.08.16,10.12,79.54,10.2,79.77l0,.24h-.25L786.36,96Z"/><path class="cls-1" d="M820.1,95.94s-3.2,16.15-16.87,16.15-16.87-16.15-16.87-16.15Z"/><polygon class="cls-9" points="820.11 95.95 853.86 95.95 840.08 16.56 809.78 16.56 820.11 95.95"/><path class="cls-9" d="M853.86,95.94s-3.22,16.15-16.89,16.15S820.1,95.94,820.1,95.94Z"/><path class="cls-10" d="M853.86,95.94s-3.22,16.15-16.89,16.15S820.1,95.94,820.1,95.94Z"/><path class="cls-2" d="M853.86,96h33.75L872.54,26.47c-1.25-5.73-7.34-9.91-14.47-9.91h-18Z"/><path class="cls-8" d="M853.86,96l33.75-.22-.21.26c-2.16-9.87-12.55-57.15-14.47-65.92l-.72-3.3a11.82,11.82,0,0,0-5.73-7.59A17.43,17.43,0,0,0,857,16.93h-3.38l-13.5,0,.33-.39,6.76,39.64L853.86,96Zm0,0-7.09-39.58-7-39.76-.07-.38h.39l13.5,0H857a18.19,18.19,0,0,1,9.92,2.32A12.39,12.39,0,0,1,873,26.61l.71,3.3,2.83,13.2c0,.23,11.36,52.85,11.37,53.05h-.26L853.86,96Z"/><path class="cls-1" d="M887.6,95.94s-3.21,16.15-16.87,16.15-16.87-16.15-16.87-16.15Z"/><rect class="cls-9" x="623.46" y="251.45" width="157.02" height="157.02"/><polygon class="cls-2" points="753.58 326.6 650.38 326.6 650.38 311.97 753.58 311.97 753.58 311.97 753.58 326.6"/><polygon class="cls-2" points="747.82 323.5 744.41 377.8 659.56 377.8 656.13 323.5 747.82 323.5"/><path class="cls-2" d="M713,317.64a11,11,0,1,1-11-11A11,11,0,0,1,713,317.64Z"/><path class="cls-9" d="M687.53,335.26V366.5a2.78,2.78,0,0,1-2.77,2.8h-.45A2.31,2.31,0,0,1,682,367V335.26a2.31,2.31,0,0,1,2.3-2.31h.9A2.3,2.3,0,0,1,687.53,335.26Z"/><path class="cls-9" d="M704.72,335.26V366.5a2.78,2.78,0,0,1-2.77,2.8h-.45a2.31,2.31,0,0,1-2.3-2.33V335.26a2.31,2.31,0,0,1,2.3-2.31h.89A2.3,2.3,0,0,1,704.72,335.26Z"/><path class="cls-9" d="M721.91,335.26V366.5a2.78,2.78,0,0,1-2.77,2.8h-.45a2.32,2.32,0,0,1-2.31-2.33V335.26a2.32,2.32,0,0,1,2.31-2.31h.89A2.3,2.3,0,0,1,721.91,335.26Z"/><polygon class="cls-2" points="732.06 316.75 727.22 316.75 727.22 287.75 676.73 287.75 676.73 316.75 671.89 316.75 671.89 282.9 732.06 282.9 732.06 316.75"/><circle class="cls-11" cx="780.49" cy="251.45" r="25.66" transform="translate(69.32 659.65) rotate(-47.71)"/><path class="cls-2" d="M785.81,248.77a8.82,8.82,0,0,1,2.64,6.33,9,9,0,0,1-15.33,6.37,2,2,0,0,1,2.89-2.9,4.82,4.82,0,0,0,3.44,1.41,5,5,0,0,0,3.47-1.41,4.81,4.81,0,0,0,1.45-3.47,4.69,4.69,0,0,0-1.45-3.43,4.81,4.81,0,0,0-3.43-1.45,1.81,1.81,0,0,1-1.49-.65s0,0,0,0a2,2,0,0,1-.08-2.89l3.69-3.76h-5.86a2,2,0,0,1,0-4.09h10.67a2,2,0,0,1,2.06,2,2.09,2.09,0,0,1-.25,1,2.61,2.61,0,0,1-.36.51l-4.56,4.7A8.09,8.09,0,0,1,785.81,248.77Z"/><path class="cls-12" d="M895.5,158.18c12.72,9.16,53.41,46,56,52.13,3.07,7.31-12.7,33.27-19.22,32.7-16.87-1.47-46.41-54.57-55.87-78.9C871.77,152.22,874.2,142.85,895.5,158.18Z"/><path class="cls-12" d="M930,154.89c3.65-4,32.55,17.51,32,25.46-2.11,29.24-11.08,54.07-16.41,59.21a14.64,14.64,0,0,1-23.2-4.68C916,221.52,915.82,170.39,930,154.89Z"/><path class="cls-8" d="M919.22,218.37c-3.25-16.21.95-39,.95-39,0-.31.42-.42.42-.25.11,3.23-2.09,27.16-.94,39.16C919.67,218.35,919.24,218.48,919.22,218.37Z"/><path class="cls-12" d="M968.11,159c-.49,8.47-8.27,25.41-11.72,28.78s-32.68-8.9-34-13.67,2.57-33.18,8.36-39.62S968.61,150.17,968.11,159Z"/><path class="cls-12" d="M922.23,169.1s-3.37-10.51-9.27-18.25c-5-6.5-13.05-15.61-9.65-18.4,7-5.74,27.16,17,27.16,17s7.29,11.45.88,17.75A8.92,8.92,0,0,1,922.23,169.1Z"/><polygon class="cls-9" points="930.96 151.97 938.51 147.31 925.01 125.42 915.45 131.32 930.96 151.97"/><polygon class="cls-9" points="915.45 131.32 921.36 139.2 930.96 151.97 938.52 147.31 925.01 125.42 915.45 131.32"/><polygon class="cls-10" points="915.45 131.32 921.36 139.2 930.16 133.77 925.01 125.42 915.45 131.32"/><rect class="cls-9" x="912.73" y="121.6" width="13.98" height="10.62" transform="translate(1769.11 -247.94) rotate(148.33)"/><polygon class="cls-9" points="900.98 127.68 910.79 122.9 901.76 108.27 893.09 114.9 900.98 127.68"/><polygon class="cls-9" points="904.73 102.44 918.05 124.03 934.7 116.32 978.94 107.34 946.96 55.51 919.09 91.02 904.73 102.44"/><path class="cls-9" d="M955.42,86.07c8.87,14.39,19.82,23.74,24.44,20.88s1.18-16.82-7.7-31.21S952.35,52,947.73,54.86,946.55,71.69,955.42,86.07Z"/><path class="cls-13" d="M957.1,84.42c7.87,12.77,17.33,21.23,21.11,18.89s.47-14.58-7.41-27.34-17.33-21.23-21.11-18.9S949.22,71.65,957.1,84.42Z"/><path class="cls-9" d="M958.21,83.73c1,1.71,2.13,3.33,3.22,4.86a6.08,6.08,0,0,0,6-9.22l-1.51-2.45A6.07,6.07,0,0,0,955,78.05C956,79.92,957,81.82,958.21,83.73Z"/><polygon class="cls-9" points="910.42 130.38 929.39 121.14 911.95 92.86 895.17 105.67 910.42 130.38"/><polygon class="cls-13" points="910.42 130.38 929.39 121.14 911.95 92.86 895.17 105.67 910.42 130.38"/><path class="cls-13" d="M946.73,60.56a19,19,0,0,0,.43,6.83,43.15,43.15,0,0,0,2,6.58c.4,1.08.89,2.12,1.34,3.17s1,2.07,1.53,3.09,1.07,2,1.65,3,1.15,2,1.75,3a76.15,76.15,0,0,0,8.22,11,39.24,39.24,0,0,0,5.07,4.66,16.31,16.31,0,0,0,6.12,3,16.79,16.79,0,0,1-5.92-3.3,39.9,39.9,0,0,1-4.89-4.75,79.25,79.25,0,0,1-8-11,82.33,82.33,0,0,1-6.36-12.08,44.65,44.65,0,0,1-2.19-6.46A19.81,19.81,0,0,1,946.73,60.56Z"/><path class="cls-8" d="M965.14,47.64c-.8,1.37-1.52,2.78-2.23,4.2s-1.39,2.84-2.06,4.28-1.31,2.88-1.91,4.35l-.9,2.2c-.28.74-.58,1.48-.83,2.23.4-.68.76-1.39,1.15-2.08l1.08-2.12c.72-1.41,1.39-2.85,2.06-4.28s1.3-2.89,1.91-4.35S964.61,49.14,965.14,47.64Z"/><path class="cls-8" d="M974,94c1.78-.22,3.54-.52,5.3-.83s3.51-.66,5.26-1,3.49-.74,5.23-1.17l2.6-.65c.86-.24,1.73-.46,2.58-.72-.89.1-1.77.25-2.65.37l-2.64.46c-1.77.3-3.52.65-5.27,1s-3.49.75-5.22,1.18S975.76,93.46,974,94Z"/><path class="cls-8" d="M1002.31,76c-2.51.78-5,1.63-7.47,2.49s-5,1.76-7.42,2.67S982.51,83,980.07,84l-3.65,1.47c-1.21.51-2.43,1-3.63,1.53,1.26-.38,2.5-.8,3.75-1.2l3.72-1.28c2.49-.86,5-1.76,7.42-2.67S992.59,80,995,79,999.9,77.09,1002.31,76Z"/><path class="cls-8" d="M979,42.71c-1.55,2.17-3,4.37-4.51,6.59s-2.92,4.45-4.36,6.7-2.84,4.5-4.21,6.78l-2.06,3.43c-.66,1.15-1.35,2.29-2,3.46.78-1.08,1.52-2.18,2.29-3.28l2.23-3.31c1.48-2.21,2.91-4.46,4.35-6.7s2.84-4.5,4.21-6.78S977.65,45,979,42.71Z"/><path class="cls-8" d="M968.07,78c2.68-1.51,5.32-3.09,7.95-4.69s5.22-3.23,7.84-4.85,5.19-3.3,7.75-5l3.85-2.55c1.27-.87,2.55-1.72,3.81-2.61-1.35.75-2.67,1.54-4,2.31L991.32,63c-2.63,1.59-5.23,3.24-7.84,4.85s-5.19,3.31-7.76,5S970.59,76.23,968.07,78Z"/><path class="cls-12" d="M923.87,146.13c2.11,4,5.59-.78,5.59-.78s-3.37,8.05.39,11.31,7.63-2.75,7.92-3.17c-.18.43-3.07,7.9,1,10.79,4.27,3,7.27-3.6,7.46-4,0,.45-.43,6.48,3.19,8,6.22,2.54,7.66-12.84,12-16.13,0,0,6.42,6.7,6.65,6.86,0,0,1.67-14.61-3.1-20.21a4.7,4.7,0,0,0-5.76-1.19s1-4.65-2.11-7c-1.63-1.22-5,.3-5,.3s.7-3.76-2.25-5.69c-2.34-1.56-5.38.21-5.38.21s-1-3.92-3.92-4.73C934.7,119,919.38,137.61,923.87,146.13Z"/><path class="cls-8" d="M944,125.56a.06.06,0,0,0-.08-.1c-6.53,4.9-12.21,12.28-14.64,20.13-.08.26.31.5.45.23A85.35,85.35,0,0,1,944,125.56Z"/><path class="cls-8" d="M952.16,130.71c.07-.07,0-.18-.12-.12-6.71,5.09-12.87,13.58-14.61,23-.06.32.21.67.3.3C939.36,147.71,946.71,136.29,952.16,130.71Z"/><path class="cls-8" d="M946.38,161c2-8.93,6.68-16.31,12.57-23.2.08-.09-.05-.19-.14-.13-3.8,2.58-7.09,7.37-9.34,11.31a24,24,0,0,0-3.4,11.94C946.06,161,946.34,161.14,946.38,161Z"/><path class="cls-8" d="M929.31,145.4c-.09.31.46.11.38.42-.36,1.32-1.85,9.4.74,10.76,2.09,1.09,5-1,5.8-2.18l2-3.08-.84,3.6a15.1,15.1,0,0,0-.36,4.87,5.37,5.37,0,0,0,1.93,4,3.09,3.09,0,0,0,3.88,0,9.37,9.37,0,0,0,2.72-3.8l1.72-4-.31,4.34a14.58,14.58,0,0,0,.2,3.61,6,6,0,0,0,1.43,3.06,2.79,2.79,0,0,0,2.84.7,6.15,6.15,0,0,0,2.53-2.33,47.4,47.4,0,0,0,3.49-6.72c.54-1.16,1.09-2.32,1.68-3.46a9.06,9.06,0,0,1,2.29-3.08,9.82,9.82,0,0,0-2,3.23c-.5,1.17-1,2.36-1.4,3.56a40.85,40.85,0,0,1-3.21,7.05,7.25,7.25,0,0,1-2.94,2.89,4,4,0,0,1-4.23-.87,7.1,7.1,0,0,1-1.88-3.74,15.48,15.48,0,0,1-.28-4l1.41.32a10.72,10.72,0,0,1-3.18,4.51,4.51,4.51,0,0,1-2.87,1,5,5,0,0,1-2.8-1,6.78,6.78,0,0,1-2.44-5,16.58,16.58,0,0,1,.48-5.35l1.2.52c-1.08,1.52-4.08,4.16-7.53,2.88C925.59,155.64,928.64,147,929.31,145.4Z"/><path class="cls-8" d="M929.46,145.35a9,9,0,0,1-2.29,1.54,2.11,2.11,0,0,1-2.12-.14,4.23,4.23,0,0,1-1.24-2.07,28.15,28.15,0,0,1-.73-2.75,7.08,7.08,0,0,0-.23,3,4.25,4.25,0,0,0,1.46,2.87,3,3,0,0,0,1.71.52,3,3,0,0,0,1.61-.54A4.82,4.82,0,0,0,929.46,145.35Z"/><path class="cls-12" d="M855.91,619.6c-3.2-2-68.27-80.83-68.84-85.4-.08-.63,9.82-9.55,22.4-20.75.64-.57,47.71-46.12,47.71-46.12l40.42,48.75-44.17,45.07s11.4,41.32,11.5,46.41S859.1,621.6,855.91,619.6Z"/><path class="cls-9" d="M858.1,577.49q-.17-.39-.09-.48S858.05,577.18,858.1,577.49Z"/><path class="cls-1" d="M864.92,607.56c.08,5.08-5.83,14-9,12s-68.27-80.83-68.83-85.41c-.1-.63,9.8-9.54,22.39-20.74.19-.17,4.33-4.16,10.11-9.75l41.63,49.51-7.79,7.94S864.83,602.46,864.92,607.56Z"/><path class="cls-9" d="M858.41,618.78c-3.23-2-68.79-81.86-69.35-86.49-.24-1.75,10.84-12,24.58-24l.43-.37,42.87,51-.89.7s11.43,41.78,11.51,46.94S861.63,620.81,858.41,618.78Z"/><path class="cls-2" d="M860.77,615.33c-10.72-13.73-55.26-68.1-66.9-80.86-.1-.1-.17,0-.09.07,10.33,13.85,55.31,67.85,66.77,81C860.79,615.79,861,615.62,860.77,615.33Z"/><path class="cls-2" d="M859.45,564.15c-3.36-6.11-9.49-11.92-16.59-12.87-.27,0-.32.36-.13.49a96.06,96.06,0,0,1,16,12.91A.44.44,0,0,0,859.45,564.15Z"/><path class="cls-2" d="M860.28,569.87c-3.36-6.11-9.49-11.92-16.58-12.87-.28,0-.33.35-.13.48a96.12,96.12,0,0,1,16,12.92A.44.44,0,0,0,860.28,569.87Z"/><path class="cls-2" d="M861.12,575.58c-3.36-6.11-9.49-11.92-16.59-12.87-.27,0-.32.36-.13.49a96.06,96.06,0,0,1,16,12.91A.44.44,0,0,0,861.12,575.58Z"/><path class="cls-8" d="M862.28,617.65c.62,1.88-4.43,5.51-5.66,4.8s-72.33-88.09-73.22-89.85,4.87-5.56,6.56-4.07S862.28,617.65,862.28,617.65Z"/><path class="cls-2" d="M816,528.48c-1.86-8.16-14.55-5.29-12.69,2.89S817.81,536.66,816,528.48Z"/><path class="cls-14" d="M889.53,418.11c-3.61,17.81-69,79.22-69,79.22l51.53,59.47S968.47,461.73,963,422.38c-4.76-34.24-56-171.91-56-171.91H847.84S893.07,400.59,889.53,418.11Z"/><path class="cls-14" d="M889.53,418.11c-3.61,17.81-69,79.22-69,79.22l51.53,59.47S968.47,461.73,963,422.38c-4.76-34.24-56-171.91-56-171.91H847.84S893.07,400.59,889.53,418.11Z"/><path class="cls-8" d="M877.92,542.66c-6.85-8.52-4.76-6.17-11.7-14.62-3.4-4.13-25.75-31.26-29.59-34.56-.08-.08-.23,0-.17.14,2.58,4.36,25.39,31.1,28.87,35.17,7.1,8.31,5.15,5.85,12.35,14.08A.16.16,0,0,0,877.92,542.66Z"/><path class="cls-8" d="M896.87,409.42c-.85-4.44-1.81-8.87-2.75-13.3q-2.88-13.56-6.1-27.06-6.39-26.74-13.89-53.21c-5-17.69-10.37-35.36-16.51-52.71-.76-2.14-1.54-4.28-2.32-6.41-.06-.17-.31-.09-.26.07,5.31,17.38,10.79,34.72,15.77,52.2s9.56,34.91,13.89,52.49c2.17,8.82,4.19,17.68,6.17,26.55q1.46,6.54,2.85,13.09c.94,4.43,2.2,9,2.48,13.49s-1.19,8.4-3.48,12.16-4.83,7-7.35,10.45c-5,6.86-44.66,50.82-46.21,52.28-.12.11.07.28.19.17,6.46-5.79,38.78-40.33,44-47.17q3.86-5.07,7.52-10.28c2.3-3.24,4.61-6.55,5.88-10.35C898.07,417.79,897.66,413.58,896.87,409.42Z"/><path class="cls-8" d="M896.75,250.46,886,391.35c-10.24-48.22-38.16-140.89-38.16-140.89Z"/><path class="cls-12" d="M995.93,638.1c-3.57,1.22-105.8,1.49-109.69-1-.54-.33-1.15-13.65-1.83-30.48,0-.86-12.53-69.8-12.53-69.8l63.33-.3,14,66.39s39.17,17.39,43.17,20.56S999.49,636.91,995.93,638.1Z"/><path class="cls-1" d="M995.93,638.11c-3.57,1.21-105.79,1.49-109.68-1-.55-.32-1.17-13.63-1.85-30.46,0-.24-.95-5.61-2.32-13.26h65.08l2,9.54s39.18,17.4,43.18,20.55S999.5,636.91,995.93,638.11Z"/><path class="cls-14" d="M901.27,250.47c-.07,1.24-3.37,12.56-5.08,29.5-1.23,12.38-2.77,23.33-4.42,24.69-1.87,1.54-11.22,7.54-14.36,9.46,0,0,29.13,88.32,36.65,117.76,10.9,42.68,37,155.9,37,155.9H879.64s-19.28-107.07-28.53-147.7c-7.92-34.84-38.29-139.35-38.29-139.35-11.05-27.16,7.57-50.25,7.57-50.25S901.28,250.42,901.27,250.47Z"/><path class="cls-8" d="M944.37,574.28c-10.54-.07-7.51-.2-18-.15-5.16,0-39.05.25-43.85,1.15a.12.12,0,0,0,0,.23c4.83.75,38.71-.08,43.87-.21,10.53-.27,7.5-.31,18-.7A.16.16,0,0,0,944.37,574.28Z"/><path class="cls-8" d="M896.69,301.17A132.7,132.7,0,0,0,877.5,314c-.23.18,0,.56.26.39,6.51-4.07,13.17-8,19.44-12.47A.46.46,0,0,0,896.69,301.17Z"/><path class="cls-8" d="M891.38,253.12c0-.24-.49-.23-.44,0a234.71,234.71,0,0,1,2.44,23.47c.24,3.64.43,23.92-6,23.44-1.08-.08-1.77-1-2.18-2.57-.49-1.86-.14-4.28-.12-6.21.05-4.26,0-8.51-.34-12.76a115.37,115.37,0,0,0-3.89-23.43.21.21,0,0,0-.4.09c1.69,10.83,3.09,21.7,3.13,32.68,0,5.28-1.37,13.45,4.15,13.41S894.87,287.66,895,284C895.32,273.78,893.73,263.05,891.38,253.12Z"/><path class="cls-8" d="M887.61,300.57a31.63,31.63,0,0,0-.76,4.33,9.42,9.42,0,0,0-.06,3.47.24.24,0,0,0,.44,0,12,12,0,0,0,.94-3.51c.28-1.35.58-2.69.82-4A.7.7,0,0,0,887.61,300.57Z"/><path class="cls-8" d="M873.42,550.75c-.18-1.61-.4-3.21-.63-4.82-.43-3.08-.95-6.15-1.43-9.23-1-6.18-2-12.35-3.1-18.51-2.18-12.28-4.71-24.52-7.36-36.71-1.5-6.89-3.25-13.7-5.09-20.5-.13-.48-.8-.25-.72.21,1.12,6.23,2.2,12.46,3.47,18.67s2.54,12.36,3.77,18.55c2.43,12.24,4.69,24.51,7.11,36.75.69,3.45,1.31,6.92,2,10.37q.51,2.6,1.06,5.17c.37,1.71.9,3.4,1.18,5.12,0,.16.28.09.25-.07C873.64,554.1,873.61,552.41,873.42,550.75Z"/><path class="cls-8" d="M921.38,458.33c-2.31-11.54-5.44-22.93-8.58-34.27-6.32-22.82-13.76-45.32-21.18-67.8l-6.42-19.44c-1.07-3.24-6.32-20.7-7-22.36a.14.14,0,0,0-.27.08c1.51,5.95,3.57,14.63,5.3,20.52s3.59,11.59,5.4,17.39c3.55,11.39,7.17,22.76,10.62,34.17,6.82,22.57,13.59,45.14,19.12,68.07,1.55,6.42,3.1,12.83,4.51,19.28s2.62,12.93,4,19.38a.16.16,0,0,0,.32-.05C926,481.54,923.71,469.91,921.38,458.33Z"/><path class="cls-8" d="M878.14,518.71c-3.83-22-8.41-43.92-13.49-65.68s-10.8-43.6-17.06-65.17-13.21-42.93-20.66-64.11c-3.54-10-7.84-20-9.45-30.5a62.47,62.47,0,0,1,6.43-39.52c.09-.16-.15-.3-.26-.14-6.29,9.39-13.28,28.84-1.68,60,3.87,10.4,7.21,21,10.65,31.52q5.31,16.25,10.16,32.61c6.42,21.64,12.38,43.4,17.72,65.32s10.09,44,14.27,66.15,5.86,29.75,9.44,52.1c.47,2.91.83,5.83,1.22,8.75,0,.17.27.16.25,0C883,547.92,882,540.69,878.14,518.71Z"/><path class="cls-9" d="M909.76,252.58l-4.6-30.53s9.05-10.62,3.31-23.19c-2.9-6.38-21.27-41-32.06-48.91-10.12-7.43-22.84-.42-27.61,6-13.71,18.37-23.67,36-31.6,96.16Z"/><path class="cls-8" d="M889.53,217.18a94.77,94.77,0,0,0-13.81,2.31c-2.25.59-4.45,1.27-6.66,2-1.1.36-2.2.69-3.31,1a15.47,15.47,0,0,1-3.56.69.08.08,0,0,0,0,.16,26.12,26.12,0,0,0,3.43-.07,24.19,24.19,0,0,0,3.27-.63c2.29-.57,4.54-1.25,6.82-1.84,4.6-1.2,9.2-2.4,13.88-3.26C889.8,217.52,889.75,217.15,889.53,217.18Z"/><path class="cls-8" d="M901.05,221.26a103.58,103.58,0,0,0-11.55-.51c-1.93,0-3.84.17-5.76.36-.92.09-1.83.2-2.75.32s-2,.39-3,.51c-.11,0-.11.18,0,.17,1-.08,1.92,0,2.88,0l2.88-.09c1.92-.05,3.84-.08,5.76-.16,3.85-.14,7.68-.24,11.53-.25C901.26,221.58,901.24,221.28,901.05,221.26Z"/><path class="cls-12" d="M848.19,155.29c-28.9,27.25-55.66,72.24-53.75,95.88,1.88,23.34,9.8,20.34,12.09,20,14-2.19,41.31-70.08,49-97.44C863.21,146.54,855.34,148.55,848.19,155.29Z"/><path class="cls-8" d="M856.48,128.82c-5-.15-16.74,5.63-19.67,12.83s-.61,17.53,1.71,18.14,11.34-1.9,17-6.56S859,128.9,856.48,128.82Z"/><path class="cls-8" d="M856.5,128.85c.15-.07.12-.34-.07-.31-4.23.69-8.47,3-12.27,4.88-3.06,1.55-6.17,3.29-8.37,6a11.5,11.5,0,0,0-2.5,9.3c.57,3.74,2,8.13,4.39,11.08.07.08.26,0,.2-.1-3.27-6.65-6.59-14.9-.52-21C842.51,133.51,850,131.6,856.5,128.85Z"/><path class="cls-8" d="M838.87,157.83c-4.1,1.34-13.52,11.42-13.84,19.77s8.41,19,10.63,19.42,10.08-9,12-15.17c1.31-4.15-1.12-8.24-2.86-12.43C842.26,163.23,839.51,157.62,838.87,157.83Z"/><path class="cls-8" d="M850,180.36c-.3-8.39-6.44-15.59-10.62-22.43,0-.07-.16,0-.13.07,2.88,6.77,8.33,12.31,9.85,19.68.89,4.38.18,9-2.92,12.34-2.7,2.93-6.43,4.74-9.82,6.71-.22.13,0,.46.23.33C843.42,193.33,850.34,189,850,180.36Z"/><path class="cls-8" d="M838.11,158.76c.19-.14,0-.45-.21-.31-5.45,4-11.87,9.46-13.93,16.13-2.23,7.22,2.55,13.44,6.76,18.78,0,.07.16,0,.11-.07-4.18-5.44-8.81-12.3-6.08-19.44C827.12,167.7,833,162.6,838.11,158.76Z"/><path class="cls-8" d="M837,195.15c-4,5.76-8.52,14-5.31,19.58s13.13,12.07,13.8,11.84,9.13-10.35,9-18.19S837.5,194.4,837,195.15Z"/><path class="cls-8" d="M846.13,226.88c-5.78-2.37-12.8-5.9-15.18-12.14-2.29-6,2.18-13.83,5.46-18.66a.06.06,0,0,0-.09-.07c-3.78,4.67-8.07,12.35-6,18.54s9.74,11,15.73,12.55C846.19,227.13,846.24,226.93,846.13,226.88Z"/><path class="cls-8" d="M845.19,226c-1.71,2.73-2.8,9.07-.69,14.5,3.61,9.28-.56,9.51-8.46,17.23-6.67,6.53-3.15,16.24,3.57,18.09,0,0-5.61-3.95-1.92-9.71,4.42-6.88,22.7-8.8,24.6-21.93C864.75,227.19,845.19,226,845.19,226Z"/><path class="cls-8" d="M844.19,231.88c0-.18-.27-.24-.31-.07a14.41,14.41,0,0,0-.36,5.19c.27,2.25,1.38,4.21,1.8,6.43,1.07,5.63-4.62,8.79-8.51,11.48-5.21,3.62-7.61,9.54-4.55,15.46,0,.09.18,0,.14-.06a11.27,11.27,0,0,1,.89-11.64c2.39-3.23,6.4-4.65,9.22-7.41,1.94-1.88,3.62-4.17,3.36-7a22,22,0,0,0-1.29-4.47A15.72,15.72,0,0,1,844.19,231.88Z"/><path class="cls-8" d="M847.22,226.18a.07.07,0,0,0,0,.13c4.88,1.21,10,2.33,13.48,6.25,3.8,4.22,4.17,10.48,2.13,15.6-2.29,5.74-7.73,6.88-13,8.75-3.8,1.36-7.51,3-10.16,6.16-.08.09.08.23.17.14,4.64-4.44,10.51-5.76,16.31-8,4.73-1.86,7.23-5.38,8-10.38C865.91,233.76,857.15,227.54,847.22,226.18Z"/><path class="cls-9" d="M849.82,121.85c-1.88-1.15-3.62,1.79-1.74,2.94S851.7,123,849.82,121.85Z"/><path class="cls-9" d="M852.07,124.09c-1.88-1.14-3.62,1.8-1.74,2.94S854,125.24,852.07,124.09Z"/><path class="cls-9" d="M854.69,125.93c-1.87-1.14-3.61,1.8-1.73,2.94S856.58,127.08,854.69,125.93Z"/><path class="cls-9" d="M857.46,127.37c-1.87-1.14-3.61,1.8-1.73,2.94S859.34,128.52,857.46,127.37Z"/><path class="cls-9" d="M860.51,128.33c-1.88-1.14-3.62,1.8-1.74,2.94S862.39,129.48,860.51,128.33Z"/><path class="cls-9" d="M863.55,128.72c-1.87-1.15-3.61,1.79-1.73,2.94S865.43,129.86,863.55,128.72Z"/><path class="cls-12" d="M858.41,152c.46,1.73,9.9,12.87,17.35,9.67,2.75-1.18,1.72-10.22,1.72-10.22l3-15.8-20.11-11.81S858.22,151.28,858.41,152Z"/><path class="cls-8" d="M859.58,134.1a30.69,30.69,0,0,0,18.06,16.48l2.81-14.92-20.12-11.81S860,128.48,859.58,134.1Z"/><path class="cls-12" d="M895,110.43c4.75,25.9-10.23,31.67-15.82,32.69-5.07.92-22.46,3.43-29.86-21.85S852.47,85.6,864,82.87,890.26,84.52,895,110.43Z"/><path class="cls-8" d="M887.52,108.32a15.87,15.87,0,0,1-1.81-.19,2.93,2.93,0,0,1-1.8-.55.94.94,0,0,1-.12-1.14,2.32,2.32,0,0,1,2.23-.77,3.4,3.4,0,0,1,2.25,1A1,1,0,0,1,887.52,108.32Z"/><path class="cls-8" d="M869.77,110.34a15.27,15.27,0,0,0,1.74-.55,2.93,2.93,0,0,0,1.66-.9.94.94,0,0,0-.12-1.14,2.34,2.34,0,0,0-2.33-.31,3.39,3.39,0,0,0-2,1.42A1,1,0,0,0,869.77,110.34Z"/><path class="cls-8" d="M874.18,116.59c0-.07-.13.1-.11.17.27,1.78.29,3.85-1.25,4.65,0,0,0,.11,0,.09C874.78,121,874.73,118.23,874.18,116.59Z"/><path class="cls-8" d="M872.36,114.93c-2.89.14-2.4,5.91.28,5.78S874.79,114.81,872.36,114.93Z"/><path class="cls-8" d="M871.26,115.33c-.48.37-.92,1-1.53,1.1s-1.28-.43-1.78-1c-.06,0-.1,0-.1.08.08,1.11.6,2.2,1.8,2.27s1.79-1,2-2.12C871.65,115.47,871.45,115.18,871.26,115.33Z"/><path class="cls-8" d="M884.72,115.2c0-.06.15.08.15.15.08,1.79.47,3.83,2.14,4.3,0,0,0,.11,0,.11C885,119.63,884.51,116.92,884.72,115.2Z"/><path class="cls-8" d="M886.17,113.21c2.86-.43,3.53,5.32.88,5.72S883.78,113.58,886.17,113.21Z"/><path class="cls-8" d="M887.42,113.45c.49.26,1,.76,1.55.73s1-.71,1.36-1.35c0-.07.08,0,.1,0,.15,1.1-.08,2.28-1.11,2.62s-1.76-.56-2.15-1.62C887.1,113.68,887.22,113.35,887.42,113.45Z"/><path class="cls-8" d="M875.85,131.48c.43.42.85,1,1.5,1.06a4.65,4.65,0,0,0,1.93-.44.07.07,0,0,1,.08.1,2.42,2.42,0,0,1-2.28,1,1.9,1.9,0,0,1-1.4-1.59C875.65,131.45,875.79,131.41,875.85,131.48Z"/><path class="cls-8" d="M883,124.27s.5,2.66.57,3.92c0,.12-.3.19-.73.24h0a6,6,0,0,1-5.94-2,.13.13,0,0,1,.18-.18,9.09,9.09,0,0,0,5.56,1.29c.07-.35-1-4.52-.81-4.54a10.71,10.71,0,0,1,2.9.5c-.89-5.56-2.66-10.94-3.46-16.5,0-.19.26-.27.32-.09,2.26,5.5,3.42,11.88,4.48,17.61C886.19,125.28,883.55,124.46,883,124.27Z"/><path class="cls-8" d="M882.51,127.81a7.05,7.05,0,0,1-2.5,2.56,3.1,3.1,0,0,1-1.89.38c-1.44-.17-1.65-1.43-1.55-2.54a7.82,7.82,0,0,1,.38-1.75A9.22,9.22,0,0,0,882.51,127.81Z"/><path class="cls-15" d="M880,130.37a3.1,3.1,0,0,1-1.89.38c-1.44-.17-1.65-1.43-1.55-2.54A3.28,3.28,0,0,1,880,130.37Z"/><path class="cls-8" d="M875.85,89.55s1.08,4-.27,6.89c-2.77,6-9.9,4.44-12.31,6.81-2.26,2.21-1.43,6.77-3.47,9-2.84,3.07-6.73,1.92-7.19,4s-.1,6.41-2.69,7.26S834,82.78,868.8,82.09a29.33,29.33,0,0,1,10.73,1.17c9.92,2.81,13.62,19.56,13.62,19.56s-2.41.09-3.59-.93c-1.65-1.44-2.29-2.78-3.5-3.72-1.91-1.46-2.94-.89-4.91-2.32A22.27,22.27,0,0,1,875.85,89.55Z"/><path class="cls-8" d="M875.32,87.67a22.88,22.88,0,0,1,1,5.22,9.56,9.56,0,0,1-.68,5.08,7,7,0,0,1-3.88,3.08c-1.61.61-3.39.79-5.13,1.51a5.33,5.33,0,0,0-2.26,1.73,7.14,7.14,0,0,0-1,2.64,9.5,9.5,0,0,1-1.84,4.74,5.87,5.87,0,0,1-4.55,2c-1.71,0-3.61-.45-5.27.31,1.72-.63,3.47,0,5.26.1a6.36,6.36,0,0,0,5-1.93c1.38-1.35,1.74-3.33,2.12-5a6.2,6.2,0,0,1,.89-2.34,4.43,4.43,0,0,1,1.94-1.43c1.55-.67,3.35-.9,5.06-1.56a9.14,9.14,0,0,0,2.42-1.35,5.65,5.65,0,0,0,1.77-2.16,10.08,10.08,0,0,0,.51-5.42A22.93,22.93,0,0,0,875.32,87.67Z"/><path class="cls-8" d="M876,89.22a18.62,18.62,0,0,0,1.69,4.7,8.79,8.79,0,0,0,3.44,3.74,13.52,13.52,0,0,0,2.36.9,4,4,0,0,1,1.84,1.22,13.12,13.12,0,0,0,1.5,2A5.5,5.5,0,0,0,889,103a6.07,6.07,0,0,1-1.87-1.53,13.51,13.51,0,0,1-1.26-2.08,4.19,4.19,0,0,0-2.11-1.6,13.82,13.82,0,0,1-2.23-.89,9.36,9.36,0,0,1-3.26-3.35A36.7,36.7,0,0,1,876,89.22Z"/><path class="cls-12" d="M854.58,121.4s-6.89-7.29-10.28-4.71,2.64,13.73,7.21,14.7a4.45,4.45,0,0,0,5.55-3.25Z"/><path class="cls-8" d="M846.11,119.84c-.07,0-.07.1,0,.12,3.22.78,5.24,3.36,6.79,6.12-1.07-1-2.39-1.43-3.74-.13-.07.07,0,.18.11.15a2.74,2.74,0,0,1,3.12.5,13.55,13.55,0,0,1,1.79,2.2c.18.26.65,0,.5-.26l0-.07C854.14,124.59,850.33,119.61,846.11,119.84Z"/><path class="cls-14" d="M887.93,160.62l-16.85,44.95c-.65,1.3-.09,2.48,1.25,2.63l23.87,2.68a3.86,3.86,0,0,0,3.58-2.09l16.85-44.95c.65-1.3.09-2.48-1.24-2.63l-23.87-2.68A3.89,3.89,0,0,0,887.93,160.62Z"/><path class="cls-11" d="M890.76,160.91l-16.84,45c-.65,1.31-.09,2.49,1.24,2.64L899,211.18a3.9,3.9,0,0,0,3.59-2.09l16.85-45c.65-1.31.09-2.49-1.25-2.64l-23.87-2.68A3.9,3.9,0,0,0,890.76,160.91Z"/><path class="cls-8" d="M897.07,163.76a2,2,0,1,1-1.75-2.29A2,2,0,0,1,897.07,163.76Z"/><path class="cls-12" d="M803.29,271.4c10.55.49,22.81-8.79,54.29-36.43,4.35-3.82-14.37-41.81-19.23-38-6.13,4.84-28.83,25-30.31,26.65C795.6,237.83,796.13,271.06,803.29,271.4Z"/><path class="cls-12" d="M827.39,210s8.38-14.33,15.11-20.49c9-8.26,20.2-11.68,25-12.83,10-2.4,35.71-1.31,36.7,6.16.88,6.77-25.38,4.32-25.38,4.32s27.19-1.92,26.76,6.41-30.76,3.77-30.76,3.77,28-1.35,26.18,7.18c-1.36,6.44-29.06,3.85-29.06,3.85s24.06-1,22.94,5.69c-1.23,7.4-27,6.61-27,6.61-5.7,16.52-15.17,22.06-22.38,25.2C843.78,246.62,827.39,210,827.39,210Z"/><path class="cls-8" d="M869.34,187.22c3.19-.34,6.41-.71,9.62-.77s6.41,0,9.61.24a54.09,54.09,0,0,1,12.34,2.12c-7.29-1.57-18.76-1.54-22-1.48s-6.4-.05-9.6,0C869.26,187.34,869.27,187.23,869.34,187.22Z"/><path class="cls-8" d="M869.34,198.79c4.09-.26,8.13-.66,12.23-.75s8,.21,12,.41c.32,0,.21.18-.11.17-4.08,0-7.85.24-11.93.25s-8.16-.14-12.22,0C869.28,198.9,869.28,198.8,869.34,198.79Z"/><path class="cls-8" d="M867.55,208.73a91.59,91.59,0,0,1,18.8.28c.31,0,.14.23-.18.22-6.25-.21-11.14-.43-18.59-.28C867.46,209,867.42,208.75,867.55,208.73Z"/><path class="cls-8" d="M798.65,248.67a53.45,53.45,0,0,1,4.46-18.17c1.49-3.5,4.2-6.37,6.8-9.06,3.49-3.59,7.25-6.91,11-10.21l11.31-9.82a40.47,40.47,0,0,1,4.47-6.59c5.12-6.26,11.76-11.48,19.49-14a45.93,45.93,0,0,0-18.75,14.64,57.53,57.53,0,0,0-4.5,6.8l-11.23,9.91c-5.6,4.87-11.36,9.75-16,15.57a28.67,28.67,0,0,0-3.34,6.55,59.76,59.76,0,0,0-3.72,14.42Z"/><path class="cls-2" d="M759.61,69.65a36.52,36.52,0,0,0,61,23.11l18.28,2.68-9.14-15.8a36.54,36.54,0,1,0-70.18-10Z"/><path class="cls-8" d="M770.55,39.48a36.9,36.9,0,0,1,59.89,40.43l0-.63,9.09,15.84.67,1.16-1.32-.2-18.26-2.8.43-.14a36.84,36.84,0,0,1-18.07,8.93,30.79,30.79,0,0,1-5.06.52A35.1,35.1,0,0,1,783,100.15a36.27,36.27,0,0,1-8.82-4.9A41.3,41.3,0,0,1,770.3,92,39.79,39.79,0,0,1,767,88.17a36.72,36.72,0,0,1,3.56-48.69Zm-3.45,48.6a41,41,0,0,0,3.32,3.78,40.9,40.9,0,0,0,3.86,3.22,34,34,0,0,0,8.81,4.75,35.91,35.91,0,0,0,9.76,2.15,36.28,36.28,0,0,0,5,0,31.73,31.73,0,0,0,4.95-.61,36,36,0,0,0,17.5-9l.18-.17.25,0L839,94.8l-.66,1L829.17,80,829,79.7l.13-.33a36.54,36.54,0,0,0,2.57-15.92A36,36,0,0,0,827.06,48a37.53,37.53,0,0,0-10.93-11.92,35.91,35.91,0,0,0-15.09-6,36.11,36.11,0,0,0-33.94,58Z"/><polygon class="cls-9" points="791.92 86.68 776.32 70.89 781.56 65.71 790.68 74.94 809.62 45.24 815.83 49.21 791.92 86.68"/><polygon class="cls-14" points="671.54 639.17 497.44 639.17 522.84 461.83 646.16 461.83 671.54 639.17"/><polygon class="cls-11" points="646.16 461.82 626.81 639.18 671.55 639.18 646.16 461.82"/><path class="cls-8" d="M557.57,474.05l-5.45-1.15c0-.15,3.19-15,6.56-30.09,3.65-16.25,19.63-23.73,33-21.58,10,1.62,21.09,9.42,19.42,26.09-1.79,17.85-3.14,26.25-3.2,26.6L602.4,473c0-.08,1.39-8.62,3.16-26.26,1.28-12.81-6.79-18.76-14.77-20C580,425,567,431,564.11,444,560.74,459,557.6,473.9,557.57,474.05Z"/><path class="cls-2" d="M651.9,624.7c-.77-11.31-1.33-22.63-1.86-33.94s-.91-22.64-1.38-34c-.31-11.33-.7-22.65-.94-34l-.32-17c0-5.66-.14-11.33-.12-17,.4,5.65.69,11.31,1,17l.84,17c.53,11.31.91,22.64,1.37,34,.3,11.32.7,22.64.93,34S651.9,613.36,651.9,624.7Z"/><path class="cls-8" d="M562.23,473.48a7.39,7.39,0,1,1-7.39-7.39A7.38,7.38,0,0,1,562.23,473.48Z"/><path class="cls-8" d="M612,473.48a7.39,7.39,0,1,1-7.39-7.39A7.39,7.39,0,0,1,612,473.48Z"/><polygon class="cls-9" points="582.37 639.17 430.93 639.17 453.02 484.92 560.3 484.92 582.37 639.17"/><polygon class="cls-9" points="560.29 484.92 543.47 639.18 582.38 639.18 560.29 484.92"/><polygon class="cls-10" points="560.29 484.92 543.47 639.18 582.38 639.18 560.29 484.92"/><path class="cls-8" d="M483.23,495.55l-4.73-1c0-.13,2.77-13.09,5.7-26.17,3.18-14.14,17.08-20.65,28.7-18.77,8.7,1.4,18.34,8.19,16.89,22.69-1.56,15.52-2.73,22.83-2.78,23.14l-4.78-.78c0-.07,1.21-7.49,2.75-22.84,1.11-11.15-5.91-16.31-12.85-17.44-9.4-1.52-20.66,3.7-23.2,15.06C486,482.49,483.26,495.42,483.23,495.55Z"/><path class="cls-2" d="M565.29,626.58c-.67-9.83-1.16-19.68-1.62-29.52s-.8-19.69-1.2-29.54-.61-19.69-.82-29.55l-.27-14.77c0-4.93-.13-9.86-.11-14.79.35,4.92.59,9.84.9,14.76l.72,14.76c.47,9.85.79,19.69,1.19,29.54s.62,19.7.82,29.55S565.28,616.72,565.29,626.58Z"/><path class="cls-8" d="M487.29,495.05a6.43,6.43,0,1,1-6.42-6.43A6.42,6.42,0,0,1,487.29,495.05Z"/><path class="cls-8" d="M530.55,495.05a6.43,6.43,0,1,1-6.42-6.43A6.42,6.42,0,0,1,530.55,495.05Z"/></svg>