<svg id="Слой_1" data-name="Слой 1" xmlns="http://www.w3.org/2000/svg" viewBox="0 0 152.68 50"><defs><style>.cls-1{fill:#fec704;}.cls-2{fill:#fff;}</style></defs><path class="cls-1" d="M64.55,20.11a11.47,11.47,0,0,1,3.32-5.85,10.22,10.22,0,0,1,5.22-2.34,28.05,28.05,0,0,1,6.53-.15,5.92,5.92,0,0,1,4.65,2.12,8.77,8.77,0,0,1,1.35,5.45c0,.76,0,2.23-.07,4.44s-.24,4.56-.52,7.09a25.2,25.2,0,0,1-1.42,6.29,12.76,12.76,0,0,1-1.2,2.27,7.22,7.22,0,0,1-1.62,1.73,8.53,8.53,0,0,1-2.34,1.17,15.26,15.26,0,0,1-3.38.62,16.24,16.24,0,0,1-7.27-.58,4,4,0,0,1-2.53-4.08,4.66,4.66,0,0,1,.22-1.53,2,2,0,0,1,.81-1.06A3.89,3.89,0,0,1,68,35.14a12.94,12.94,0,0,1,2.75,0q.8.06,1.86.06a4.27,4.27,0,0,0,1.83-.36,1.28,1.28,0,0,0,.72-1.35c-.08-.51-.44-.75-1.09-.7s-1.44.14-2.36.29A6.42,6.42,0,0,1,69,32.92a5.94,5.94,0,0,1-3.56-3.26,13.72,13.72,0,0,1-1.22-5.1A14.85,14.85,0,0,1,64.55,20.11Zm8.68,4.66a1.59,1.59,0,0,0,.88.67.87.87,0,0,0,.81-.23,2.41,2.41,0,0,0,.62-1,5.91,5.91,0,0,0,.3-1.73,8.94,8.94,0,0,0,0-1.43,3,3,0,0,0-.25-.89.72.72,0,0,0-.43-.4.82.82,0,0,0-.6.07,2.85,2.85,0,0,0-.73.48,3.19,3.19,0,0,0-1,2.38A3.81,3.81,0,0,0,73.23,24.77Z"/><path class="cls-1" d="M86.72,18.19q0-8.55.06-10.36a5.25,5.25,0,0,1,.56-2.27,2.83,2.83,0,0,1,1.5-1.27,7,7,0,0,1,2.67-.37A16.24,16.24,0,0,1,93.83,4a4.14,4.14,0,0,1,1.58.51,2.65,2.65,0,0,1,1,1.13c.53,1.36.83,3.85.88,7.47s0,7.08-.12,10.39-.24,5.22-.29,5.69a7.68,7.68,0,0,1-.44,1.87,3.17,3.17,0,0,1-.84,1.26,3.35,3.35,0,0,1-1.41.71,8.92,8.92,0,0,1-2.13.27q-4.41.13-5-4.08Q86.75,26.73,86.72,18.19Z"/><path class="cls-1" d="M109.23,11.52A10,10,0,0,1,116.77,14q2.87,2.64,2.87,9.06-.19,5.19-3.2,7.66a12.15,12.15,0,0,1-7.9,2.51q-5.4,0-7.92-2.94c-1.68-2-2.48-4.66-2.38-8.11a11,11,0,0,1,2.82-7.39C102.87,12.76,105.59,11.69,109.23,11.52Zm-.34,8.84q-.57.09-.84,1.32a7.62,7.62,0,0,0-.11,2.47c.1.82.37,1.24.79,1.28s.72-.54.89-1.34a6.64,6.64,0,0,0,.1-2.39C109.61,20.9,109.34,20.45,108.89,20.36Z"/><path class="cls-1" d="M51.81,11.94a10.65,10.65,0,0,1,8,2.62q3.06,2.82,3.06,9.67c-.14,3.68-1.27,6.41-3.41,8.17a13,13,0,0,1-8.44,2.68c-3.84,0-6.65-1-8.45-3.14S40,27,40.08,23.29a11.79,11.79,0,0,1,3-7.9Q46,12.21,51.81,11.94Zm-.35,9.44c-.42.05-.71.53-.9,1.41a7.78,7.78,0,0,0-.12,2.63c.11.87.39,1.33.84,1.37s.77-.58,1-1.43a7.35,7.35,0,0,0,.1-2.56"/><path class="cls-2" d="M48.28,42.47a2.36,2.36,0,0,0-.38-.76,2.56,2.56,0,0,0-2.07-1h-.24a2.86,2.86,0,0,0-.61.13,2.5,2.5,0,0,0-.75.42,2.42,2.42,0,0,0-.49.52,2.53,2.53,0,0,0-.47,1.73,2.57,2.57,0,0,0,2.56,2.32h.25a2.57,2.57,0,0,0,2.32-2.61c0-.07,0-.13,0-.19A2.29,2.29,0,0,0,48.28,42.47Z"/><path class="cls-2" d="M61.93,39.87a2.25,2.25,0,0,0-.63-.38,2.52,2.52,0,0,0-.91-.2h-.33a2.56,2.56,0,0,0-2,1.27,2.72,2.72,0,0,0-.31.88,2.81,2.81,0,0,0,0,.65s0,0,0,.08a2.56,2.56,0,0,0,2.54,2.24h.25a2.57,2.57,0,0,0,1.38-4.54Z"/><path class="cls-2" d="M38.83,26.71,38.38,22A4.41,4.41,0,0,0,34,18l-.42,0-4.2.4a2,2,0,0,0,.19,4.05h.2l4.2-.4h0a.33.33,0,0,1,.34.31l.45,4.69a16.24,16.24,0,0,0,.44,2.54,16.54,16.54,0,0,0,7.42,10c.4-1.35.8-2.71,1.21-4.07a13.87,13.87,0,0,1-4.94-8.11C38.88,27.2,38.85,27,38.83,26.71Z"/><path class="cls-2" d="M65,31.4l-.15-.12a2,2,0,0,0-2.83.41l-1.46,2q-.31.42-.66.81h0c.72.37,1.46.7,2.16,1.11a7.42,7.42,0,0,1,1.32,1c.15-.18.3-.35.44-.54l1.46-2A2,2,0,0,0,65,31.4Z"/><path class="cls-2" d="M60.9,33.39a12.55,12.55,0,0,1-2.67,2.47,12.35,12.35,0,0,1-5.8,2.08c-.4,0-.8.06-1.19.06a12.48,12.48,0,0,1-4.49-.84A12.71,12.71,0,0,1,43.11,35l-.34,1a2.14,2.14,0,0,1-4,.08L38,34.16l-1.23-.63a16.53,16.53,0,0,0,6.69,6.57,3.9,3.9,0,0,1,2-.77l.37,0h0A3.91,3.91,0,0,1,49.54,42c.56.05,1.12.09,1.7.09s1,0,1.58-.08a16.51,16.51,0,0,0,3.62-.76,3.85,3.85,0,0,1,.84-1.86A3.9,3.9,0,0,1,59.93,38l.38,0h0a3.94,3.94,0,0,1,1.5.3,16.54,16.54,0,0,0,3.42-3.9A10.57,10.57,0,0,0,60.9,33.39Z"/></svg>