<svg id="Слой_1" data-name="Слой 1" xmlns="http://www.w3.org/2000/svg" viewBox="0 0 1400 595.28"><defs><style>.cls-1{fill:#c9c8c8;}.cls-2{fill:#a7a7a7;}.cls-3{fill:#ed6958;}.cls-4{fill:#fff;}.cls-5{fill:#fec703;}.cls-6{fill:#ececec;}.cls-7{fill:#dcdcdc;}.cls-10,.cls-8{fill:#192e35;}.cls-9{fill:#32245e;}.cls-10,.cls-13{opacity:0.1;}.cls-11{fill:#f5a8a2;}.cls-12{fill:#385a65;}.cls-13{fill:#010101;}</style></defs><rect class="cls-1" x="1243.69" y="153.85" width="16.26" height="772.71"/><rect class="cls-2" x="1243.69" y="153.85" width="16.26" height="82.36"/><polygon class="cls-3" points="1337.86 201.55 1165.74 201.55 1178.25 160.45 1178.7 158.99 1215.09 39.38 1288.51 39.38 1324.93 159.01 1324.93 159.04 1325.33 160.4 1337.86 201.55"/><path class="cls-4" d="M1221.19,67a1.16,1.16,0,1,1-1.16-1.15A1.16,1.16,0,0,1,1221.19,67Z"/><path class="cls-4" d="M1242.38,67a1.16,1.16,0,1,1-1.16-1.15A1.16,1.16,0,0,1,1242.38,67Z"/><path class="cls-4" d="M1263.57,67a1.16,1.16,0,1,1-1.15-1.15A1.15,1.15,0,0,1,1263.57,67Z"/><path class="cls-4" d="M1284.77,67a1.16,1.16,0,1,1-1.16-1.15A1.16,1.16,0,0,1,1284.77,67Z"/><path class="cls-4" d="M1231.78,52.18a1.16,1.16,0,1,1-1.15-1.16A1.16,1.16,0,0,1,1231.78,52.18Z"/><path class="cls-4" d="M1253,52.18a1.16,1.16,0,1,1-1.16-1.16A1.16,1.16,0,0,1,1253,52.18Z"/><path class="cls-4" d="M1274.17,52.18A1.16,1.16,0,1,1,1273,51,1.16,1.16,0,0,1,1274.17,52.18Z"/><path class="cls-4" d="M1200,97.84a1.16,1.16,0,1,1-1.16-1.15A1.16,1.16,0,0,1,1200,97.84Z"/><path class="cls-4" d="M1221.19,97.84a1.16,1.16,0,1,1-1.16-1.15A1.16,1.16,0,0,1,1221.19,97.84Z"/><path class="cls-4" d="M1242.38,97.84a1.16,1.16,0,1,1-2.31,0,1.16,1.16,0,0,1,2.31,0Z"/><path class="cls-4" d="M1263.57,97.84a1.16,1.16,0,1,1-1.15-1.15A1.15,1.15,0,0,1,1263.57,97.84Z"/><path class="cls-4" d="M1284.77,97.84a1.16,1.16,0,1,1-1.16-1.15A1.16,1.16,0,0,1,1284.77,97.84Z"/><path class="cls-4" d="M1306,97.84a1.16,1.16,0,1,1-1.16-1.15A1.16,1.16,0,0,1,1306,97.84Z"/><path class="cls-4" d="M1210.59,83a1.16,1.16,0,1,1-1.16-1.16A1.16,1.16,0,0,1,1210.59,83Z"/><path class="cls-4" d="M1231.78,83a1.16,1.16,0,1,1-1.15-1.16A1.16,1.16,0,0,1,1231.78,83Z"/><path class="cls-4" d="M1253,83a1.16,1.16,0,1,1-1.16-1.16A1.16,1.16,0,0,1,1253,83Z"/><path class="cls-4" d="M1274.17,83a1.16,1.16,0,1,1-1.16-1.16A1.16,1.16,0,0,1,1274.17,83Z"/><path class="cls-4" d="M1295.36,83a1.16,1.16,0,1,1-1.15-1.16A1.15,1.15,0,0,1,1295.36,83Z"/><path class="cls-4" d="M1200,128.66a1.16,1.16,0,1,1-1.16-1.16A1.16,1.16,0,0,1,1200,128.66Z"/><path class="cls-4" d="M1221.19,128.66a1.16,1.16,0,1,1-1.16-1.16A1.16,1.16,0,0,1,1221.19,128.66Z"/><path class="cls-4" d="M1242.38,128.66a1.16,1.16,0,1,1-1.16-1.16A1.16,1.16,0,0,1,1242.38,128.66Z"/><path class="cls-4" d="M1263.57,128.66a1.16,1.16,0,1,1-1.15-1.16A1.15,1.15,0,0,1,1263.57,128.66Z"/><path class="cls-4" d="M1284.77,128.66a1.16,1.16,0,1,1-1.16-1.16A1.16,1.16,0,0,1,1284.77,128.66Z"/><path class="cls-4" d="M1306,128.66a1.16,1.16,0,1,1-1.16-1.16A1.16,1.16,0,0,1,1306,128.66Z"/><path class="cls-4" d="M1210.59,113.82a1.16,1.16,0,1,1-1.16-1.16A1.16,1.16,0,0,1,1210.59,113.82Z"/><path class="cls-4" d="M1231.78,113.82a1.16,1.16,0,1,1-1.15-1.16A1.16,1.16,0,0,1,1231.78,113.82Z"/><path class="cls-4" d="M1253,113.82a1.16,1.16,0,1,1-1.16-1.16A1.16,1.16,0,0,1,1253,113.82Z"/><path class="cls-4" d="M1274.17,113.82a1.16,1.16,0,1,1-1.16-1.16A1.16,1.16,0,0,1,1274.17,113.82Z"/><path class="cls-4" d="M1295.36,113.82a1.16,1.16,0,1,1-1.15-1.16A1.15,1.15,0,0,1,1295.36,113.82Z"/><path class="cls-4" d="M1178.81,159.47a1.11,1.11,0,0,1-.56,1l.45-1.46A1.05,1.05,0,0,1,1178.81,159.47Z"/><path class="cls-4" d="M1200,159.48a1.16,1.16,0,1,1-1.16-1.16A1.16,1.16,0,0,1,1200,159.48Z"/><path class="cls-4" d="M1221.19,159.48a1.16,1.16,0,1,1-1.16-1.16A1.16,1.16,0,0,1,1221.19,159.48Z"/><path class="cls-4" d="M1242.38,159.48a1.16,1.16,0,1,1-1.16-1.16A1.16,1.16,0,0,1,1242.38,159.48Z"/><path class="cls-4" d="M1263.57,159.48a1.16,1.16,0,1,1-1.15-1.16A1.15,1.15,0,0,1,1263.57,159.48Z"/><path class="cls-4" d="M1284.77,159.48a1.16,1.16,0,1,1-1.16-1.16A1.16,1.16,0,0,1,1284.77,159.48Z"/><path class="cls-4" d="M1306,159.48a1.16,1.16,0,1,1-1.16-1.16A1.16,1.16,0,0,1,1306,159.48Z"/><path class="cls-4" d="M1325.33,160.4a1.1,1.1,0,0,1-.48-.93,1.18,1.18,0,0,1,.08-.43Z"/><path class="cls-4" d="M1189.39,144.64a1.16,1.16,0,0,1-2.31,0,1.16,1.16,0,1,1,2.31,0Z"/><circle class="cls-4" cx="1209.43" cy="144.64" r="1.16"/><path class="cls-4" d="M1231.78,144.64a1.16,1.16,0,1,1-1.15-1.16A1.15,1.15,0,0,1,1231.78,144.64Z"/><path class="cls-4" d="M1253,144.64a1.16,1.16,0,1,1-1.16-1.16A1.15,1.15,0,0,1,1253,144.64Z"/><path class="cls-4" d="M1274.17,144.64a1.16,1.16,0,1,1-1.16-1.16A1.15,1.15,0,0,1,1274.17,144.64Z"/><path class="cls-4" d="M1295.36,144.64a1.16,1.16,0,0,1-2.31,0,1.16,1.16,0,1,1,2.31,0Z"/><circle class="cls-4" cx="1315.4" cy="144.64" r="1.16"/><path class="cls-4" d="M1178.8,190.3a1.16,1.16,0,1,1-1.16-1.16A1.15,1.15,0,0,1,1178.8,190.3Z"/><path class="cls-4" d="M1200,190.3a1.16,1.16,0,1,1-1.16-1.16A1.15,1.15,0,0,1,1200,190.3Z"/><path class="cls-4" d="M1221.19,190.3a1.16,1.16,0,1,1-1.16-1.16A1.15,1.15,0,0,1,1221.19,190.3Z"/><path class="cls-4" d="M1242.38,190.3a1.16,1.16,0,1,1-1.16-1.16A1.15,1.15,0,0,1,1242.38,190.3Z"/><path class="cls-4" d="M1263.57,190.3a1.16,1.16,0,0,1-2.31,0,1.16,1.16,0,1,1,2.31,0Z"/><path class="cls-4" d="M1284.77,190.3a1.16,1.16,0,1,1-1.16-1.16A1.15,1.15,0,0,1,1284.77,190.3Z"/><path class="cls-4" d="M1306,190.3a1.16,1.16,0,1,1-1.16-1.16A1.15,1.15,0,0,1,1306,190.3Z"/><path class="cls-4" d="M1327.16,190.3a1.16,1.16,0,1,1-1.16-1.16A1.15,1.15,0,0,1,1327.16,190.3Z"/><path class="cls-4" d="M1189.39,175.45a1.16,1.16,0,1,1-1.15-1.15A1.15,1.15,0,0,1,1189.39,175.45Z"/><circle class="cls-4" cx="1209.43" cy="175.45" r="1.16"/><path class="cls-4" d="M1231.78,175.45a1.16,1.16,0,1,1-1.15-1.15A1.16,1.16,0,0,1,1231.78,175.45Z"/><path class="cls-4" d="M1253,175.45a1.16,1.16,0,1,1-1.16-1.15A1.16,1.16,0,0,1,1253,175.45Z"/><path class="cls-4" d="M1274.17,175.45a1.16,1.16,0,1,1-1.16-1.15A1.16,1.16,0,0,1,1274.17,175.45Z"/><path class="cls-4" d="M1295.36,175.45a1.16,1.16,0,1,1-1.15-1.15A1.15,1.15,0,0,1,1295.36,175.45Z"/><circle class="cls-4" cx="1315.4" cy="175.45" r="1.16"/><rect class="cls-5" x="227.33" y="77.01" width="611.62" height="865.16"/><polygon class="cls-1" points="301.77 942.17 257.54 942.17 227.33 77.01 271.55 77.01 301.77 942.17"/><polygon class="cls-6" points="913.38 942.17 301.77 942.17 271.55 77.01 883.17 77.01 913.38 942.17"/><polygon class="cls-7" points="320.13 208.7 385.56 208.05 451.01 207.68 581.91 207.37 712.84 207.67 778.31 208.05 843.79 208.7 778.36 209.35 712.91 209.72 582.01 210.03 451.08 209.72 385.61 209.34 320.13 208.7"/><polygon class="cls-7" points="321.61 251.16 387.05 250.51 452.49 250.14 583.4 249.83 714.33 250.14 779.8 250.51 845.28 251.16 779.84 251.81 714.4 252.18 583.49 252.49 452.56 252.18 387.09 251.81 321.61 251.16"/><text/><polygon class="cls-7" points="324.57 336.08 390.01 335.44 455.46 335.06 586.36 334.75 717.29 335.06 782.76 335.43 848.24 336.08 782.81 336.73 717.36 337.11 586.46 337.41 455.53 337.1 390.06 336.73 324.57 336.08"/><polygon class="cls-7" points="326.06 378.55 391.49 377.9 456.94 377.53 587.85 377.22 718.77 377.52 784.25 377.89 849.73 378.55 784.29 379.2 718.85 379.57 587.94 379.87 457.01 379.56 391.54 379.19 326.06 378.55"/><polygon class="cls-7" points="327.54 421.01 392.98 420.36 458.42 419.99 589.33 419.68 720.26 419.98 785.73 420.36 851.21 421.01 785.77 421.66 720.33 422.03 589.42 422.34 458.49 422.03 393.02 421.65 327.54 421.01"/><polygon class="cls-7" points="329.02 463.47 394.46 462.82 459.9 462.45 590.81 462.14 721.74 462.45 787.21 462.82 852.69 463.47 787.26 464.12 721.81 464.49 590.9 464.8 459.98 464.49 394.5 464.12 329.02 463.47"/><polygon class="cls-7" points="330.5 505.93 395.94 505.29 461.39 504.91 592.29 504.6 723.22 504.91 788.69 505.28 854.17 505.93 788.74 506.58 723.29 506.95 592.39 507.26 461.46 506.95 395.99 506.58 330.5 505.93"/><polygon class="cls-7" points="331.99 548.39 397.42 547.75 462.87 547.38 593.78 547.07 724.71 547.37 790.18 547.74 855.66 548.39 790.22 549.04 724.78 549.42 593.87 549.72 462.94 549.41 397.47 549.04 331.99 548.39"/><polygon class="cls-7" points="333.47 590.86 398.91 590.21 464.35 589.84 595.26 589.53 726.19 589.83 791.66 590.21 857.14 590.86 791.71 591.51 726.26 591.88 595.35 592.18 464.42 591.88 398.95 591.5 333.47 590.86"/><path class="cls-8" d="M312.18,109.4a7.16,7.16,0,0,1-7.21,7.47,7.78,7.78,0,0,1-7.73-7.47,7.16,7.16,0,0,1,7.21-7.48A7.79,7.79,0,0,1,312.18,109.4Z"/><path class="cls-5" d="M322.08,77c1.54,12.72-2.69,25.78-13.55,32.94-4.72,3.22-9.64-4.66-4.9-7.7,6.82-4.65,9.85-12.71,9.81-20.76A37.46,37.46,0,0,0,313,77a35,35,0,0,0-5.48-15.4c-1.25-1.86-4.6-6.43-10.42-6.43-3.13,0-6.42,2.24-8.44,6.15-3,5.83-3.35,15.31-3.15,15.67h-9a45.18,45.18,0,0,1,2.11-15.58c2.84-8.23,8.65-15,18-15.39,8.49-.18,15.48,5.91,19.63,12.9A41.54,41.54,0,0,1,322.08,77Z"/><path class="cls-8" d="M362.16,109.4a7.16,7.16,0,0,1-7.21,7.47,7.78,7.78,0,0,1-7.73-7.47,7.16,7.16,0,0,1,7.21-7.48A7.79,7.79,0,0,1,362.16,109.4Z"/><path class="cls-5" d="M372.06,77c1.54,12.72-2.69,25.78-13.55,32.94-4.72,3.22-9.63-4.66-4.9-7.7,6.82-4.65,9.85-12.71,9.81-20.76A37.46,37.46,0,0,0,363,77a35,35,0,0,0-5.48-15.4c-1.24-1.86-4.6-6.43-10.42-6.43-3.13,0-6.41,2.24-8.44,6.15-3,5.83-3.35,15.31-3.15,15.67h-9a45.42,45.42,0,0,1,2.11-15.58c2.85-8.23,8.65-15,18-15.39,8.49-.18,15.48,5.91,19.63,12.9A41.54,41.54,0,0,1,372.06,77Z"/><path class="cls-8" d="M412.15,109.4a7.17,7.17,0,0,1-7.22,7.47,7.79,7.79,0,0,1-7.73-7.47,7.16,7.16,0,0,1,7.21-7.48A7.81,7.81,0,0,1,412.15,109.4Z"/><path class="cls-5" d="M422,77c1.54,12.72-2.69,25.78-13.55,32.94-4.72,3.22-9.63-4.66-4.9-7.7,6.82-4.65,9.85-12.71,9.81-20.76A37.46,37.46,0,0,0,413,77a34.94,34.94,0,0,0-5.47-15.4c-1.25-1.86-4.6-6.43-10.43-6.43-3.13,0-6.41,2.24-8.44,6.15-3,5.83-3.35,15.31-3.15,15.67h-9a45.67,45.67,0,0,1,2.11-15.58c2.85-8.23,8.66-15,18-15.39,8.49-.18,15.49,5.91,19.63,12.9A41.54,41.54,0,0,1,422,77Z"/><path class="cls-8" d="M462.13,109.4a7.17,7.17,0,0,1-7.22,7.47,7.79,7.79,0,0,1-7.73-7.47,7.18,7.18,0,0,1,7.21-7.48A7.81,7.81,0,0,1,462.13,109.4Z"/><path class="cls-5" d="M472,77c1.54,12.72-2.69,25.78-13.54,32.94-4.73,3.22-9.64-4.66-4.91-7.7,6.82-4.65,9.85-12.71,9.81-20.76A37.46,37.46,0,0,0,463,77a34.94,34.94,0,0,0-5.47-15.4c-1.25-1.86-4.6-6.43-10.43-6.43-3.13,0-6.41,2.24-8.43,6.15-3,5.83-3.36,15.31-3.16,15.67h-9a45.67,45.67,0,0,1,2.11-15.58c2.85-8.23,8.66-15,18-15.39,8.49-.18,15.49,5.91,19.63,12.9A41.41,41.41,0,0,1,472,77Z"/><path class="cls-8" d="M512.11,109.4a7.17,7.17,0,0,1-7.21,7.47,7.8,7.8,0,0,1-7.74-7.47,7.18,7.18,0,0,1,7.21-7.48A7.81,7.81,0,0,1,512.11,109.4Z"/><path class="cls-5" d="M522,77c1.54,12.72-2.69,25.78-13.54,32.94-4.72,3.22-9.64-4.66-4.91-7.7,6.82-4.65,9.86-12.71,9.81-20.76A37.46,37.46,0,0,0,513,77a34.94,34.94,0,0,0-5.47-15.4c-1.25-1.86-4.6-6.43-10.42-6.43-3.14,0-6.42,2.24-8.44,6.15-3,5.83-3.36,15.31-3.16,15.67h-9a45.43,45.43,0,0,1,2.12-15.58c2.84-8.23,8.65-15,18-15.39,8.49-.18,15.49,5.91,19.64,12.9A41.39,41.39,0,0,1,522,77Z"/><path class="cls-8" d="M562.09,109.4a7.16,7.16,0,0,1-7.21,7.47,7.8,7.8,0,0,1-7.74-7.47,7.18,7.18,0,0,1,7.22-7.48A7.8,7.8,0,0,1,562.09,109.4Z"/><path class="cls-5" d="M572,77c1.54,12.72-2.69,25.78-13.54,32.94-4.72,3.22-9.64-4.66-4.91-7.7,6.82-4.65,9.86-12.71,9.82-20.76a39.67,39.67,0,0,0-.41-4.48,34.81,34.81,0,0,0-5.47-15.4c-1.25-1.86-4.6-6.43-10.42-6.43-3.14,0-6.42,2.24-8.44,6.15-3,5.83-3.36,15.31-3.16,15.67h-9a45.43,45.43,0,0,1,2.12-15.58c2.84-8.23,8.65-15,18-15.39,8.48-.18,15.48,5.91,19.63,12.9A41.39,41.39,0,0,1,572,77Z"/><path class="cls-8" d="M612.07,109.4a7.16,7.16,0,0,1-7.21,7.47,7.8,7.8,0,0,1-7.74-7.47,7.18,7.18,0,0,1,7.22-7.48A7.8,7.8,0,0,1,612.07,109.4Z"/><path class="cls-5" d="M622,77c1.54,12.72-2.69,25.78-13.54,32.94-4.72,3.22-9.64-4.66-4.9-7.7,6.82-4.65,9.85-12.71,9.81-20.76a35.52,35.52,0,0,0-.41-4.48,34.81,34.81,0,0,0-5.47-15.4c-1.25-1.86-4.6-6.43-10.42-6.43-3.13,0-6.42,2.24-8.44,6.15-3,5.83-3.35,15.31-3.16,15.67h-9a45.43,45.43,0,0,1,2.12-15.58c2.84-8.23,8.65-15,18-15.39,8.49-.18,15.48,5.91,19.63,12.9A41.39,41.39,0,0,1,622,77Z"/><path class="cls-8" d="M662.05,109.4a7.16,7.16,0,0,1-7.21,7.47,7.78,7.78,0,0,1-7.73-7.47,7.16,7.16,0,0,1,7.21-7.48A7.79,7.79,0,0,1,662.05,109.4Z"/><path class="cls-5" d="M672,77c1.54,12.72-2.69,25.78-13.55,32.94-4.72,3.22-9.63-4.66-4.9-7.7,6.82-4.65,9.85-12.71,9.81-20.76a37.46,37.46,0,0,0-.4-4.48,35,35,0,0,0-5.48-15.4c-1.25-1.86-4.6-6.43-10.42-6.43-3.13,0-6.42,2.24-8.44,6.15-3,5.83-3.35,15.31-3.15,15.67h-9a45.42,45.42,0,0,1,2.11-15.58c2.84-8.23,8.65-15,18-15.39,8.49-.18,15.48,5.91,19.63,12.9A41.54,41.54,0,0,1,672,77Z"/><path class="cls-8" d="M712,109.4a7.16,7.16,0,0,1-7.21,7.47,7.78,7.78,0,0,1-7.73-7.47,7.16,7.16,0,0,1,7.21-7.48A7.79,7.79,0,0,1,712,109.4Z"/><path class="cls-5" d="M721.93,77c1.54,12.72-2.69,25.78-13.55,32.94-4.72,3.22-9.63-4.66-4.9-7.7,6.82-4.65,9.85-12.71,9.81-20.76a37.46,37.46,0,0,0-.4-4.48,34.83,34.83,0,0,0-5.48-15.4c-1.24-1.86-4.59-6.43-10.42-6.43-3.13,0-6.41,2.24-8.44,6.15-3,5.83-3.35,15.31-3.15,15.67h-9a45.42,45.42,0,0,1,2.11-15.58c2.85-8.23,8.65-15,18-15.39,8.49-.18,15.49,5.91,19.63,12.9A41.54,41.54,0,0,1,721.93,77Z"/><path class="cls-8" d="M762,109.4a7.17,7.17,0,0,1-7.22,7.47,7.79,7.79,0,0,1-7.73-7.47,7.16,7.16,0,0,1,7.21-7.48A7.81,7.81,0,0,1,762,109.4Z"/><path class="cls-5" d="M771.91,77c1.54,12.72-2.69,25.78-13.55,32.94-4.72,3.22-9.63-4.66-4.9-7.7,6.82-4.65,9.85-12.71,9.81-20.76a37.46,37.46,0,0,0-.4-4.48,34.94,34.94,0,0,0-5.47-15.4c-1.25-1.86-4.6-6.43-10.43-6.43-3.13,0-6.41,2.24-8.44,6.15-3,5.83-3.35,15.31-3.15,15.67h-9a45.67,45.67,0,0,1,2.11-15.58c2.85-8.23,8.66-15,18-15.39,8.49-.18,15.49,5.91,19.63,12.9A41.41,41.41,0,0,1,771.91,77Z"/><path class="cls-8" d="M812,109.4a7.17,7.17,0,0,1-7.22,7.47,7.79,7.79,0,0,1-7.73-7.47,7.18,7.18,0,0,1,7.21-7.48A7.81,7.81,0,0,1,812,109.4Z"/><path class="cls-5" d="M821.89,77c1.54,12.72-2.69,25.78-13.54,32.94-4.73,3.22-9.64-4.66-4.91-7.7,6.82-4.65,9.85-12.71,9.81-20.76a37.46,37.46,0,0,0-.4-4.48,34.94,34.94,0,0,0-5.47-15.4c-1.25-1.86-4.6-6.43-10.43-6.43-3.13,0-6.41,2.24-8.43,6.15-3,5.83-3.36,15.31-3.16,15.67h-9a45.67,45.67,0,0,1,2.11-15.58c2.85-8.23,8.66-15,18-15.39,8.49-.18,15.49,5.91,19.63,12.9A41.41,41.41,0,0,1,821.89,77Z"/><path class="cls-8" d="M862,109.4a7.17,7.17,0,0,1-7.21,7.47A7.8,7.8,0,0,1,847,109.4a7.18,7.18,0,0,1,7.21-7.48A7.81,7.81,0,0,1,862,109.4Z"/><path class="cls-5" d="M871.87,77c1.54,12.72-2.69,25.78-13.54,32.94-4.72,3.22-9.64-4.66-4.91-7.7,6.82-4.65,9.86-12.71,9.81-20.76a37.46,37.46,0,0,0-.4-4.48,34.94,34.94,0,0,0-5.47-15.4c-1.25-1.86-4.6-6.43-10.42-6.43-3.14,0-6.42,2.24-8.44,6.15-3,5.83-3.36,15.31-3.16,15.67h-9a45.43,45.43,0,0,1,2.12-15.58c2.84-8.23,8.65-15,18-15.39,8.49-.18,15.49,5.91,19.64,12.9A41.39,41.39,0,0,1,871.87,77Z"/><path class="cls-9" d="M405.91,218.64c1.74,0,2.6-2,3.22-5.33,1.68-9.79-2.29-14.68-2.29-20.82,0-3,1-5.7,4.59-5.7h9c3.66,0,4.59,2.67,4.59,5.58,0,5-3,9.11-4.9,13.14-7.31,15.43,2.42,26.52-9.91,26.52a11.14,11.14,0,0,1-10.91-8.37c-1.18,6-5.7,8.37-11.71,8.37-13.32,0-2.73-9.73-7.68-22.81-2.11-5.7-6.7-10.59-6.7-16.85,0-2.91,1-5.58,4.59-5.58h9.05c3.59,0,4.58,2.67,4.58,5.7,0,6.14-4,11-2.79,19.27.56,3.6,1.93,6.88,4.28,6.88,2,0,2-5.88,1.8-10.47-.19-3,1.55-4.9,4.58-4.9s4.59,1.93,4.34,4.9C403.31,212.76,403.25,218.64,405.91,218.64Z"/><path class="cls-9" d="M426.05,220.07c.56-6.26-2-10.78-2-15.31,0-3.47,1.55-5,4-5h5.7c3.66,0,4.59,2.61,4.59,5,0,3.35-2,6.07-2,11.28,0,4.65,1.61,6.32,4,6.32a4.32,4.32,0,0,0,4.28-3.16c-.5-5.64-1.24-7.31-1.24-11.71,0-6.2,1.55-7.75,3.9-7.75h5.7c3.66,0,4.59,2.61,4.59,5.83,0,6-3.28,10.84-3.28,23.92,0,8.42,1.36,15.49-11.53,15.49-9.17,0-13.32-3.6-14.19-6.63-.87-3.29,2.29-5.89,6.44-5.89,5.27,0,5.27,4.09,7.63,3.84s2.29-4,2.23-8.49a11.82,11.82,0,0,1-9,4.22C430.7,232,425.31,228.74,426.05,220.07Z"/><path class="cls-9" d="M477.17,199.74c6.82,0,12.27,5.39,12.27,16S484,232,476.37,232a13.42,13.42,0,0,1-6.82-1.86,3.7,3.7,0,0,1-3.47,1.86h-4.46c-3.59,0-4.59-2.67-4.59-5.7,0-6.14,4-11,4-17.23,0-5.64-3.34-10.47-3.34-16.42,0-3.22,1-5.89,4.58-5.89h5.83c3.65,0,4.58,2.67,4.58,6.14a34.12,34.12,0,0,1-1.49,8.73A9.72,9.72,0,0,1,477.17,199.74Zm-7.12,22.31a15.29,15.29,0,0,0,2.23.31c3.22,0,4.83-1.67,4.83-6.51s-1.61-6.44-3.47-6.44a6.32,6.32,0,0,0-3.59,1.11Z"/><path class="cls-9" d="M489.07,192.49c0-3.47,3.22-5.7,8.06-5.7s8.12,2.23,8.12,5.7-3.23,5.64-8.12,5.64S489.07,195.84,489.07,192.49Zm15.49,34.89c0,3.1-1.54,4.65-3.9,4.65h-6.44c-3.6,0-4.59-2.67-4.59-5,0-4.28,3.35-5.95,3.35-10.78,0-4.4-2.67-6.69-2.67-11.22,0-2.72.93-5.33,4.59-5.33H500c3.66,0,4.59,2.61,4.59,5.33,0,4.53-2.61,6.88-2.61,12.21S504.56,223.41,504.56,227.38Z"/><path class="cls-9" d="M520.3,232c-9,0-15.55-6.45-15.55-16.18s6.57-16.11,15.86-16.11c7,0,11.59,3.72,11.59,9,0,6.07-6,9.17-14.93,11a4,4,0,0,0,3,1.3c3.6,0,3.47-4.09,9.61-4.09,3.9,0,5.45,1.67,4.71,5.2C533.32,228.06,527.31,232,520.3,232ZM520,210.71c-2.91,0-4.09,3.22-4.09,5.14a4,4,0,0,0,.19,1.12C519,213.5,522.66,210.71,520,210.71Z"/><path class="cls-9" d="M549.8,226.39c0,4.09-1.55,5.64-3.9,5.64h-5.77c-3.59,0-4.58-2.67-4.58-5,0-3.41,2-5.27,2-10.29,0-4.21-1.36-8.05-1.36-11.46,0-2.91,1-5.52,4.58-5.52h5.08c3.1,0,2.79,1.92,2.61,4.09a11.2,11.2,0,0,1,8.55-4.09,7.86,7.86,0,0,1,8.18,7.69c.24,3.71-1.49,7.68-6.51,8.18-1.92.18-5.58,0-6.2-4.65-.18-1.24-.8-4.15-2.16-4.15s-1.8,2.79-1.93,6.69C548.56,217.53,549.8,222.73,549.8,226.39Z"/><path class="cls-9" d="M585.18,202.65a3.59,3.59,0,0,1,3.84-2.91h3.78c3.6,0,4.59,2.61,4.59,5.83,0,6-3.28,6.32-3.28,11.21s3.28,3.41,3.28,9.36c0,3.22-1,5.89-4.59,5.89H589a3.8,3.8,0,0,1-3.53-1.86,13,13,0,0,1-6.75,1.86c-7.62,0-13.08-5.52-13.08-16.24s5.46-16,12.21-16A10.5,10.5,0,0,1,585.18,202.65Zm-.12,7.87a6.38,6.38,0,0,0-3.66-1.11c-1.86,0-3.47,1.61-3.47,6.44s1.61,6.51,4.84,6.51a16.26,16.26,0,0,0,2.29-.31Z"/><path class="cls-9" d="M609,199.74c3.59,0,4.58,2.61,4.58,6.14,0,5.64-2.66,10.53-2.66,23.05,0,9,1.36,16-11.46,16-9.18,0-13.39-3.6-14.26-6.63-.8-3.29,2.3-5.89,6.51-5.89,5.2,0,5.2,4.09,7.62,3.84s2.23-5,2.23-8.11c-.12-9.49-2.85-16.67-2.85-22.56,0-4.34,1.55-5.89,4-5.89Zm-2.85-13c4.83,0,8.11,2.23,8.11,5.7s-3.28,5.64-8.11,5.64-8.06-2.29-8.06-5.64S601.29,186.79,606.13,186.79Z"/><path class="cls-9" d="M634.14,202.65a3.58,3.58,0,0,1,3.84-2.91h3.78c3.59,0,4.58,2.61,4.58,5.83,0,6-3.28,6.32-3.28,11.21s3.28,3.41,3.28,9.36c0,3.22-1,5.89-4.58,5.89H638a3.79,3.79,0,0,1-3.53-1.86,13,13,0,0,1-6.76,1.86c-7.62,0-13.07-5.52-13.07-16.24s5.45-16,12.2-16A10.53,10.53,0,0,1,634.14,202.65Zm-.13,7.87a6.36,6.36,0,0,0-3.65-1.11c-1.86,0-3.47,1.61-3.47,6.44s1.61,6.51,4.83,6.51a16.07,16.07,0,0,0,2.29-.31Zm11.09,29c.93,0,1.43.62,1.18,2a5.26,5.26,0,0,1-5.14,4.09c-2.91,0-5.45-2.48-5.45-6.2s2.66-7.37,5.57-7.37h1c3.6,0-2.35,6.57-2.35,7.87,0,.62.87.8,1.36.8l.19-.06c.87-.19,1.49-1.12,2.29-1.12Z"/><path class="cls-9" d="M663,232c-9,0-15.55-6.45-15.55-16.18s6.57-16.11,15.68-16.11c6.94,0,13,3.66,14.19,9.67.68,3.66-.93,5.39-4.9,5.39-6.26,0-6.26-4.09-9.6-4.09-3,0-4.22,3.22-4.22,5.14s1.18,5.21,4.34,5.21c3.59,0,3.47-4.09,9.61-4.09,3.9,0,5.45,1.67,4.7,5.2C676,228.06,670,232,663,232Z"/><path class="cls-9" d="M709,226.39c0,4.09-1.55,5.64-3.9,5.64h-5.77c-3.59,0-4.58-2.67-4.58-5,0-3.41,2-5.27,2-10.29,0-4.21-1.36-8.05-1.36-11.46,0-2.91,1-5.52,4.58-5.52H705c3.09,0,2.78,2,2.6,4.15a11.56,11.56,0,0,1,9-4.15c5.08,0,10.54,3.29,9.73,11.9-.49,6.32,2,10.84,2,15.37,0,3.47-1.55,5-3.91,5h-5.76c-3.59,0-4.59-2.67-4.59-5,0-3.41,2-6.07,2-11.34,0-4.65-1.61-6.26-4-6.26-1.55,0-4.15.62-4.52,4.52C707.88,217.9,709,222.92,709,226.39Z"/><path class="cls-9" d="M748.9,202.65a3.58,3.58,0,0,1,3.84-2.91h3.78c3.59,0,4.59,2.61,4.59,5.83,0,6-3.29,6.32-3.29,11.21s3.29,3.41,3.29,9.36c0,3.22-1,5.89-4.59,5.89h-3.78a3.8,3.8,0,0,1-3.53-1.86,13,13,0,0,1-6.76,1.86c-7.62,0-13.07-5.52-13.07-16.24s5.45-16,12.21-16A10.5,10.5,0,0,1,748.9,202.65Zm-.13,7.87a6.34,6.34,0,0,0-3.65-1.11c-1.86,0-3.47,1.61-3.47,6.44s1.61,6.51,4.83,6.51a16.07,16.07,0,0,0,2.29-.31Z"/><path class="cls-9" d="M775.3,199.74c7.93,0,13.69,3.6,14.93,9.24.87,3.78-1,5.57-5.83,5.63-2,.07-5.82.5-6.56-2.85a3.05,3.05,0,0,0-2.79-2.72c-.75,0-2.48.43-2.48,1.86,0,4.46,18,2.66,18,12.82,0,5.58-5.39,8.93-12.95,8.93-7.81,0-13.57-3.6-14.87-9.24-.81-3.78,1-5.57,5.88-5.64,2-.12,5.89-.49,6.51,2.92.5,2,1.92,2.72,2.79,2.72s2.54-.49,2.54-1.73c0-4-18-3.66-18-13.39C762.47,203.15,767.55,199.74,775.3,199.74Z"/><path class="cls-9" d="M800.7,231.9a8.51,8.51,0,0,1-1.24.06c-4.4,0-7.37-2.72-7.37-6.87s3-6.82,7.44-6.82,7.37,2.73,7.37,8.43a15.74,15.74,0,0,1-4.21,11c-2.11,2.1-3.72,2.23-4.9,1.42-1.36-1-3-4-1.55-5.27C797.42,233,799.77,233.64,800.7,231.9Z"/><path class="cls-9" d="M328.51,301.35c1,0,1.49-1.3,1.93-3.34,1.36-7.5-1.93-11-1.93-15.37,0-2.17.81-4,3.78-4h8.62c3,0,3.72,1.86,3.72,3.9,0,3.66-2.42,6.51-4,9.36-6,11.09,1.92,19-7.31,19-5.08,0-8.43-2.35-9.67-5.95-1,4.28-4.65,5.95-9.79,5.95-10.6,0-2-7-5.95-16.29-1.79-4.09-5.51-7.56-5.51-12,0-2.11.86-4,3.72-4h8.67c2.91,0,3.72,1.86,3.72,4,0,4.4-3.16,7.81-2.36,14.19.31,2.54,1.18,4.52,2.3,4.52,1.67,0,1-4.21.93-5.82-.25-3.78,1.17-5.21,4.27-5.21s4.4,1.43,4,5.14C327.59,297.14,326.84,301.35,328.51,301.35Z"/><path class="cls-9" d="M357.82,278.61c7.94,0,13.7,3.59,14.94,9.23.87,3.78-1,5.58-5.83,5.64-2,.06-5.82.5-6.57-2.85a3,3,0,0,0-2.78-2.73c-.75,0-2.48.44-2.48,1.86,0,4.47,18,2.67,18,12.83,0,5.58-5.39,8.92-12.95,8.92-7.81,0-13.57-3.59-14.87-9.23-.81-3.78,1.05-5.58,5.88-5.64,2-.12,5.89-.49,6.51,2.91a3.14,3.14,0,0,0,2.79,2.73c.8,0,2.54-.5,2.54-1.73,0-4-18-3.66-18-13.39C345,282,350.08,278.61,357.82,278.61Z"/><path class="cls-9" d="M388.07,309a34.1,34.1,0,0,1,1.48,8.74c0,3.47-.93,6.14-4.58,6.14h-5.83c-3.59,0-4.58-2.67-4.58-5.89,0-5.95,3.34-10.78,3.34-16.42,0-6.2-4-11.16-4-17.29,0-3,1-5.64,4.58-5.64H383a3.7,3.7,0,0,1,3.47,1.86,12.77,12.77,0,0,1,6.82-1.86c7.62,0,13.07,5.45,13.07,16.11s-5.45,16.17-12.26,16.17A10,10,0,0,1,388.07,309ZM387,300.11a6.28,6.28,0,0,0,3.59,1.12c1.86,0,3.47-1.68,3.47-6.51s-1.61-6.44-4.83-6.44a14.87,14.87,0,0,0-2.23.24Z"/><path class="cls-9" d="M405.85,271.36c0-3.47,3.22-5.7,8-5.7s8.12,2.23,8.12,5.7S418.8,277,413.9,277,405.85,274.71,405.85,271.36Zm15.49,34.89c0,3.1-1.55,4.64-3.9,4.64H411c-3.59,0-4.58-2.66-4.58-4.95,0-4.28,3.34-5.95,3.34-10.79,0-4.4-2.66-6.69-2.66-11.21,0-2.73.93-5.33,4.58-5.33h5.15c3.65,0,4.58,2.6,4.58,5.33,0,4.52-2.6,6.88-2.6,12.21S421.34,302.28,421.34,306.25Z"/><path class="cls-9" d="M437.08,310.89c-9,0-15.55-6.44-15.55-16.17s6.56-16.11,15.86-16.11c7,0,11.59,3.72,11.59,9.05,0,6.07-6,9.17-14.94,11a4.05,4.05,0,0,0,3,1.31c3.59,0,3.47-4.09,9.6-4.09,3.91,0,5.46,1.67,4.71,5.2C450.09,306.93,444.08,310.89,437.08,310.89Zm-.31-21.31c-2.91,0-4.09,3.22-4.09,5.14a3.7,3.7,0,0,0,.19,1.12C435.78,292.37,439.43,289.58,436.77,289.58Z"/><path class="cls-9" d="M466.58,305.26c0,4.09-1.55,5.63-3.91,5.63h-5.76c-3.59,0-4.59-2.66-4.59-5,0-3.4,2-5.26,2-10.28,0-4.21-1.37-8.06-1.37-11.47,0-2.91,1-5.51,4.59-5.51h5.08c3.1,0,2.79,1.92,2.6,4.09a11.21,11.21,0,0,1,8.55-4.09,7.85,7.85,0,0,1,8.18,7.68c.25,3.72-1.48,7.69-6.5,8.18-1.92.19-5.58,0-6.2-4.64-.19-1.24-.8-4.16-2.17-4.16s-1.79,2.79-1.92,6.7C465.34,296.39,466.58,301.6,466.58,305.26Z"/><path class="cls-9" d="M502,281.52a3.58,3.58,0,0,1,3.84-2.91h3.78c3.59,0,4.59,2.6,4.59,5.82,0,5.95-3.29,6.32-3.29,11.22s3.29,3.41,3.29,9.36c0,3.22-1,5.88-4.59,5.88H505.8a3.8,3.8,0,0,1-3.53-1.86,12.93,12.93,0,0,1-6.76,1.86c-7.62,0-13.07-5.51-13.07-16.23s5.45-16.05,12.21-16.05A10.5,10.5,0,0,1,502,281.52Zm-.13,7.87a6.34,6.34,0,0,0-3.65-1.11c-1.86,0-3.47,1.61-3.47,6.44s1.61,6.51,4.83,6.51a15.88,15.88,0,0,0,2.29-.31Z"/><path class="cls-9" d="M528.36,278.61c7.93,0,13.69,3.59,14.93,9.23.87,3.78-1,5.58-5.82,5.64-2.05.06-5.83.5-6.57-2.85a3.06,3.06,0,0,0-2.79-2.73c-.74,0-2.48.44-2.48,1.86,0,4.47,18,2.67,18,12.83,0,5.58-5.39,8.92-13,8.92-7.81,0-13.57-3.59-14.87-9.23-.81-3.78,1.05-5.58,5.88-5.64,2-.12,5.89-.49,6.51,2.91.5,2.05,1.92,2.73,2.79,2.73s2.54-.5,2.54-1.73c0-4-18-3.66-18-13.39C515.53,282,520.61,278.61,528.36,278.61Z"/><path class="cls-9" d="M559.84,288.28c-.93,0-2.17.24-3.1,2.35a6.2,6.2,0,0,1-6.14,3.6c-3.71-.19-7.06-3.85-6-9.05,1.43-6.76,8.12-6.57,13.39-6.57h15.68c3.4,0,5.32,2.48,3.34,5.2l-13.07,17.42c.93,0,2.16-.31,3-2.36a6.25,6.25,0,0,1,6.14-3.59c3.78.18,7.12,3.78,6,9.05-1.43,6.69-8.06,6.56-13.39,6.56H550.11c-3.41,0-5.39-2.54-3.35-5.2Z"/><path class="cls-9" d="M609,278.61c7.93,0,13.69,3.59,14.93,9.23.87,3.78-1,5.58-5.82,5.64-2,.06-5.83.5-6.57-2.85a3.06,3.06,0,0,0-2.79-2.73c-.74,0-2.48.44-2.48,1.86,0,4.47,18,2.67,18,12.83,0,5.58-5.39,8.92-12.95,8.92-7.81,0-13.57-3.59-14.87-9.23-.81-3.78,1-5.58,5.88-5.64,2-.12,5.89-.49,6.51,2.91.5,2.05,1.92,2.73,2.79,2.73s2.54-.5,2.54-1.73c0-4-18-3.66-18-13.39C596.21,282,601.29,278.61,609,278.61Z"/><path class="cls-9" d="M639.28,309a34.1,34.1,0,0,1,1.48,8.74c0,3.47-.93,6.14-4.58,6.14h-5.83c-3.59,0-4.58-2.67-4.58-5.89,0-5.95,3.34-10.78,3.34-16.42,0-6.2-4-11.16-4-17.29,0-3,1-5.64,4.58-5.64h4.47a3.7,3.7,0,0,1,3.47,1.86,12.73,12.73,0,0,1,6.81-1.86c7.62,0,13.08,5.45,13.08,16.11s-5.46,16.17-12.27,16.17A10,10,0,0,1,639.28,309Zm-1.12-8.86a6.3,6.3,0,0,0,3.6,1.12c1.85,0,3.47-1.68,3.47-6.51s-1.62-6.44-4.84-6.44a15,15,0,0,0-2.23.24Z"/><path class="cls-9" d="M674.91,278.61c10,0,16.54,6.44,16.54,16.11s-6.57,16.17-16.54,16.17-16.55-6.44-16.55-16.17S664.93,278.61,674.91,278.61Zm.06,19.33c4.21,0,5.33-1.24,5.33-3.22s-1.12-3.22-5.33-3.22-5.45,1.3-5.45,3.22S670.69,297.94,675,297.94Z"/><path class="cls-9" d="M697.65,284.93l2.11-.87c-.87-4.09-2.85-8-2.85-12.51,0-3.23,1-5.89,4.64-5.89h3.85c3.22,0,3.9,2.66,3.9,11.83v2.79l.19-.06a11.64,11.64,0,0,1,3.84-1.24,4.59,4.59,0,0,1,4.27,4.83c0,4-3.16,4.71-5.88,5.77l-2.05.8c.68,7.25,2.17,10.6,2.17,14.75s-1.55,5.76-3.9,5.76h-7.07c-3.59,0-4.58-2.66-4.58-5.7,0-3.78,1.48-7.12,2.66-10.53a9.64,9.64,0,0,1-2.91.87,4.64,4.64,0,0,1-4.34-4.84C691.7,286.67,694.92,285.92,697.65,284.93Z"/><path class="cls-9" d="M732.85,310.89c-9,0-15.56-6.44-15.56-16.17s6.57-16.11,15.87-16.11c7,0,11.58,3.72,11.58,9.05,0,6.07-6,9.17-14.93,11a4,4,0,0,0,3,1.31c3.59,0,3.47-4.09,9.6-4.09,3.9,0,5.45,1.67,4.71,5.2C745.86,306.93,739.85,310.89,732.85,310.89Zm-.31-21.31c-2.92,0-4.09,3.22-4.09,5.14a4,4,0,0,0,.18,1.12C731.55,292.37,735.2,289.58,732.54,289.58Z"/><path class="cls-9" d="M763.27,310.89c-9,0-15.55-6.44-15.55-16.17s6.57-16.11,15.68-16.11c6.94,0,13,3.66,14.19,9.67.68,3.65-.93,5.39-4.9,5.39-6.26,0-6.26-4.09-9.6-4.09-3,0-4.22,3.22-4.22,5.14s1.18,5.21,4.34,5.21c3.6,0,3.47-4.09,9.61-4.09,3.9,0,5.45,1.67,4.71,5.2C776.29,306.93,770.28,310.89,763.27,310.89Z"/><path class="cls-9" d="M794,288.28c-.93,0-2.17.24-3.1,2.35a6.2,6.2,0,0,1-6.14,3.6c-3.71-.19-7.06-3.85-6-9.05,1.43-6.76,8.12-6.57,13.39-6.57h15.68c3.4,0,5.32,2.48,3.34,5.2L798,301.23c.93,0,2.16-.31,3-2.36a6.25,6.25,0,0,1,6.14-3.59c3.78.18,7.12,3.78,6,9.05-1.43,6.69-8.06,6.56-13.39,6.56H784.22c-3.41,0-5.39-2.54-3.35-5.2Z"/><path class="cls-9" d="M828.65,305.26c0,4.09-1.55,5.63-3.91,5.63H819c-3.59,0-4.58-2.66-4.58-5,0-3.4,2-5.26,2-10.28,0-4.21-1.36-8.06-1.36-11.47,0-2.91,1-5.51,4.58-5.51h5.08c3.1,0,2.79,2,2.6,4.15a11.6,11.6,0,0,1,9-4.15c5.08,0,10.53,3.28,9.73,11.9-.5,6.32,2,10.84,2,15.36,0,3.48-1.55,5-3.9,5h-5.76c-3.6,0-4.59-2.66-4.59-5,0-3.4,2-6.07,2-11.33,0-4.65-1.61-6.26-4-6.26-1.55,0-4.15.62-4.53,4.52C827.53,296.77,828.65,301.78,828.65,305.26Z"/><path class="cls-9" d="M864.4,310.89c-9,0-15.55-6.44-15.55-16.17s6.57-16.11,15.86-16.11c7,0,11.59,3.72,11.59,9.05,0,6.07-6,9.17-14.93,11a4,4,0,0,0,3,1.31c3.6,0,3.47-4.09,9.61-4.09,3.9,0,5.45,1.67,4.71,5.2C877.42,306.93,871.41,310.89,864.4,310.89Zm-.31-21.31c-2.91,0-4.09,3.22-4.09,5.14a4,4,0,0,0,.19,1.12C863.1,292.37,866.76,289.58,864.09,289.58Z"/><path class="cls-9" d="M324.83,389.76c-9,0-15.56-6.44-15.56-16.17s6.57-16.11,15.87-16.11c7,0,11.58,3.72,11.58,9,0,6.08-6,9.18-14.93,11a4,4,0,0,0,3,1.3c3.59,0,3.47-4.09,9.6-4.09,3.9,0,5.45,1.68,4.71,5.21C337.84,385.8,331.83,389.76,324.83,389.76Zm-.31-21.31c-2.92,0-4.09,3.22-4.09,5.14a3.88,3.88,0,0,0,.18,1.11C323.53,371.23,327.18,368.45,324.52,368.45Z"/><path class="cls-9" d="M358.1,359.4a37.43,37.43,0,0,1-1.48-8.74c0-3.47,1-6.13,4.58-6.13H367c3.59,0,4.58,2.66,4.58,5.88,0,5.95-3.28,10.79-3.28,16.42,0,6.2,4,11.1,4,17.23,0,3-1,5.7-4.64,5.7h-4.4a3.81,3.81,0,0,1-3.54-1.86,12.87,12.87,0,0,1-6.75,1.86c-7.62,0-13.07-5.51-13.07-16.23s5.45-16,12.2-16A9.51,9.51,0,0,1,358.1,359.4Zm1.18,8.86a6.37,6.37,0,0,0-3.66-1.11c-1.85,0-3.47,1.61-3.47,6.44s1.62,6.51,4.84,6.51a16.07,16.07,0,0,0,2.29-.31Z"/><path class="cls-9" d="M391.57,363.06c0-4,1.54-5.58,4-5.58h5.7c3.66,0,4.59,2.6,4.59,5,0,3.34-2,5.2-2,10.28,0,4.16,1.37,8,1.37,11.41,0,2.91-1,5.57-4.59,5.57h-5c-3.16,0-2.78-2-2.6-4.21a11.81,11.81,0,0,1-9,4.21c-5.15,0-10.54-3.28-9.79-12,.55-6.26-2.05-10.78-2.05-15.3,0-3.47,1.55-5,4-5h5.7c3.65,0,4.58,2.6,4.58,5,0,3.34-2,6.07-2,11.27,0,4.65,1.61,6.33,4,6.33,1.55,0,4.15-.69,4.52-4.53C392.74,371.61,391.57,366.59,391.57,363.06Z"/><path class="cls-9" d="M421.8,383.69c0,4.52-1.54,6.07-4,6.07h-6.38c-3.6,0-4.59-2.66-4.59-5.7,0-6.13,4-11,4-17.23,0-5.63-3.35-10.47-3.35-16.42,0-3.22,1-5.88,4.59-5.88h5.82c3.66,0,4.59,2.66,4.59,6.13,0,5.33-2.23,10-2.54,16.3.43-.62.8-1.12,1.48-2,4-5.76,7.13-8.11,11.71-8.11,8.31,0,6.33,7.43-.8,10.84-1.8.87-3.53,1.36-5.89,2.6,6.32,2.92,13,9.3,14.13,13.57.87,3.23-1.24,5.77-6,5.89-1.86.06-6.32.56-7.93-4.52a106.79,106.79,0,0,0-4.71-11.84c-.44.37-.93.81-1.43,1.24A50.26,50.26,0,0,1,421.8,383.69Z"/><path class="cls-9" d="M460.16,360.39a3.58,3.58,0,0,1,3.84-2.91h3.78c3.6,0,4.59,2.6,4.59,5.82,0,5.95-3.28,6.32-3.28,11.22s3.28,3.41,3.28,9.36c0,3.22-1,5.88-4.59,5.88H464a3.81,3.81,0,0,1-3.53-1.86,12.89,12.89,0,0,1-6.75,1.86c-7.62,0-13.08-5.51-13.08-16.23s5.46-16,12.21-16A10.5,10.5,0,0,1,460.16,360.39Zm-.12,7.87a6.38,6.38,0,0,0-3.66-1.11c-1.86,0-3.47,1.61-3.47,6.44s1.61,6.51,4.84,6.51a16.26,16.26,0,0,0,2.29-.31Z"/><path class="cls-9" d="M488.67,389.76c-9,0-15.56-6.44-15.56-16.17s6.57-16.11,15.68-16.11c6.94,0,12.95,3.65,14.19,9.67.68,3.65-.93,5.39-4.89,5.39-6.26,0-6.26-4.09-9.61-4.09-3,0-4.21,3.22-4.21,5.14s1.18,5.2,4.34,5.2c3.59,0,3.47-4.09,9.6-4.09,3.9,0,5.45,1.68,4.71,5.21C501.68,385.8,495.67,389.76,488.67,389.76Z"/><path class="cls-9" d="M506.08,377.8c.56-6.26-2-10.78-2-15.3,0-3.47,1.54-5,4-5h5.7c3.66,0,4.59,2.6,4.59,5,0,3.34-2,6.07-2,11.27,0,4.65,1.62,6.33,4,6.33a4.32,4.32,0,0,0,4.28-3.16c-.5-5.64-1.24-7.32-1.24-11.72,0-6.19,1.55-7.74,3.9-7.74H533c3.66,0,4.59,2.6,4.59,5.82,0,5.95-3.28,10.85-3.28,23.92,0,8.43,1.36,15.49-11.53,15.49-9.17,0-13.32-3.59-14.19-6.63-.87-3.28,2.29-5.88,6.44-5.88,5.27,0,5.27,4.09,7.63,3.84s2.29-4,2.23-8.49a11.84,11.84,0,0,1-9,4.21C510.73,389.76,505.34,386.48,506.08,377.8Z"/><path class="cls-9" d="M548.78,357.48c3.59,0,4.58,2.6,4.58,6.13,0,5.64-2.66,10.54-2.66,23.05,0,9,1.36,16-11.47,16-9.17,0-13.38-3.59-14.25-6.63-.81-3.28,2.29-5.88,6.51-5.88,5.2,0,5.2,4.09,7.62,3.84s2.23-5,2.23-8.12c-.12-9.48-2.85-16.67-2.85-22.56,0-4.33,1.55-5.88,4-5.88Zm-2.86-13c4.84,0,8.12,2.23,8.12,5.7s-3.28,5.64-8.12,5.64-8-2.3-8-5.64S541.09,344.53,545.92,344.53Z"/><path class="cls-9" d="M568.85,384.12c0,4.09-1.55,5.64-3.9,5.64h-5.76c-3.6,0-4.59-2.66-4.59-5,0-3.41,2-5.26,2-10.28,0-4.22-1.36-8.06-1.36-11.47,0-2.91,1-5.51,4.58-5.51h5.09c3.09,0,2.78,2,2.6,4.15a11.56,11.56,0,0,1,9-4.15c5.08,0,10.54,3.28,9.73,11.9-.49,6.32,2,10.84,2,15.36,0,3.47-1.55,5-3.91,5h-5.76c-3.59,0-4.59-2.66-4.59-5,0-3.41,2-6.07,2-11.34,0-4.64-1.61-6.25-4-6.25-1.55,0-4.15.61-4.52,4.52C567.74,375.63,568.85,380.65,568.85,384.12Z"/><path class="cls-9" d="M604.61,389.76c-9,0-15.56-6.44-15.56-16.17s6.57-16.11,15.87-16.11c7,0,11.58,3.72,11.58,9,0,6.08-6,9.18-14.93,11a4,4,0,0,0,3,1.3c3.6,0,3.47-4.09,9.61-4.09,3.9,0,5.45,1.68,4.71,5.21C617.62,385.8,611.61,389.76,604.61,389.76Zm-.31-21.31c-2.92,0-4.09,3.22-4.09,5.14a3.88,3.88,0,0,0,.18,1.11C603.3,371.23,607,368.45,604.3,368.45Z"/><path class="cls-9" d="M649.66,387.84a34.1,34.1,0,0,1,1.48,8.74c0,3.47-.93,6.13-4.58,6.13h-5.83c-3.59,0-4.58-2.66-4.58-5.88,0-5.95,3.34-10.79,3.34-16.42,0-6.2-4-11.16-4-17.29,0-3,1-5.64,4.58-5.64h4.46a3.69,3.69,0,0,1,3.47,1.86,12.79,12.79,0,0,1,6.82-1.86c7.62,0,13.08,5.45,13.08,16.11s-5.46,16.17-12.27,16.17A10,10,0,0,1,649.66,387.84ZM648.54,379a6.29,6.29,0,0,0,3.59,1.12c1.86,0,3.47-1.68,3.47-6.51s-1.61-6.44-4.83-6.44a14.87,14.87,0,0,0-2.23.24Z"/><path class="cls-9" d="M683,384.12c0,4.09-1.54,5.64-3.9,5.64h-5.76c-3.6,0-4.59-2.66-4.59-5,0-3.41,2-5.26,2-10.28,0-4.22-1.36-8.06-1.36-11.47,0-2.91,1-5.51,4.59-5.51H679c3.1,0,2.79,1.92,2.6,4.09a11.16,11.16,0,0,1,8.55-4.09,7.86,7.86,0,0,1,8.18,7.68c.25,3.72-1.49,7.69-6.5,8.18-1.93.19-5.58,0-6.2-4.65-.19-1.24-.81-4.15-2.17-4.15s-1.8,2.79-1.92,6.69C681.75,375.26,683,380.47,683,384.12Z"/><path class="cls-9" d="M715.22,357.48c10,0,16.54,6.44,16.54,16.11s-6.57,16.17-16.54,16.17-16.55-6.44-16.55-16.17S705.24,357.48,715.22,357.48Zm.06,19.33c4.21,0,5.33-1.24,5.33-3.22s-1.12-3.22-5.33-3.22-5.45,1.3-5.45,3.22S711,376.81,715.28,376.81Z"/><path class="cls-9" d="M742.92,357.48c3.59,0,4.58,2.6,4.58,6.13,0,5.64-2.66,10.54-2.66,23.05,0,9,1.36,16-11.47,16-9.17,0-13.38-3.59-14.25-6.63-.8-3.28,2.29-5.88,6.51-5.88,5.2,0,5.2,4.09,7.62,3.84s2.23-5,2.23-8.12c-.12-9.48-2.85-16.67-2.85-22.56,0-4.33,1.55-5.88,4-5.88Zm-2.85-13c4.83,0,8.11,2.23,8.11,5.7s-3.28,5.64-8.11,5.64-8.06-2.3-8.06-5.64S735.23,344.53,740.07,344.53Z"/><path class="cls-9" d="M763.92,389.76c-9,0-15.55-6.44-15.55-16.17s6.57-16.11,15.86-16.11c7,0,11.59,3.72,11.59,9,0,6.08-6,9.18-14.93,11a4,4,0,0,0,3,1.3c3.59,0,3.47-4.09,9.61-4.09,3.9,0,5.45,1.68,4.7,5.21C776.94,385.8,770.92,389.76,763.92,389.76Zm-.31-21.31c-2.91,0-4.09,3.22-4.09,5.14a3.59,3.59,0,0,0,.19,1.11C762.62,371.23,766.28,368.45,763.61,368.45Z"/><path class="cls-9" d="M793.73,383.69c0,4.52-1.55,6.07-4,6.07h-6.38c-3.59,0-4.59-2.66-4.59-5.7,0-6.13,4-11,4-17.23,0-5.63-3.35-10.47-3.35-16.42,0-3.22,1-5.88,4.59-5.88h5.82c3.66,0,4.59,2.66,4.59,6.13,0,5.33-2.23,10-2.54,16.3.43-.62.81-1.12,1.49-2,4-5.76,7.12-8.11,11.71-8.11,8.3,0,6.32,7.43-.81,10.84-1.79.87-3.53,1.36-5.88,2.6,6.32,2.92,13,9.3,14.12,13.57.87,3.23-1.23,5.77-6,5.89-1.86.06-6.32.56-7.93-4.52a103,103,0,0,0-4.71-11.84l-1.42,1.24A50.26,50.26,0,0,1,793.73,383.69Z"/><path class="cls-9" d="M826.32,378.55c1.18.24,1.18-3.85,6.45-3.85,4.15,0,6.63,2.61,5.76,7.07s-4.34,8-11.65,8c-10.22,0-10.78-7.06-10.78-14,0-3.53-.19-6.38-.37-8.8a4.92,4.92,0,0,1-3.47-4.65,4.86,4.86,0,0,1,2.6-4.27c-.06-1-.12-1.86-.12-2.79,0-4.22.92-6.88,4.58-6.88h4.52c3.6,0,4.59,2.66,4.59,6.38a21.35,21.35,0,0,1-.25,3,9.77,9.77,0,0,1,2.42-.31,4.84,4.84,0,0,1,0,9.67,13.92,13.92,0,0,1-4.4-.93c-.19,1.3-.37,2.78-.5,4.58C825.58,373.53,825.15,378.24,826.32,378.55Z"/><path class="cls-9" d="M840.7,377.8c.56-6.26-2-10.78-2-15.3,0-3.47,1.54-5,4-5h5.7c3.66,0,4.59,2.6,4.59,5,0,3.34-2,6.07-2,11.27,0,4.65,1.62,6.33,4,6.33a4.32,4.32,0,0,0,4.28-3.16c-.5-5.64-1.24-7.32-1.24-11.72,0-6.19,1.55-7.74,3.9-7.74h5.7c3.66,0,4.59,2.6,4.59,5.82,0,5.95-3.28,10.85-3.28,23.92,0,8.43,1.36,15.49-11.53,15.49-9.17,0-13.32-3.59-14.19-6.63-.87-3.28,2.29-5.88,6.44-5.88,5.27,0,5.27,4.09,7.63,3.84s2.29-4,2.23-8.49a11.84,11.84,0,0,1-9,4.21C845.35,389.76,840,386.48,840.7,377.8Z"/><polygon class="cls-1" points="1062.03 434.44 1061.26 484.85 1056.36 836.56 1056.2 847.2 1054.05 987.47 1045.85 987.47 1043.7 847.2 1043.54 836.56 1038.64 484.85 1037.87 434.44 1062.03 434.44"/><polygon class="cls-2" points="1037.87 434.44 1062.03 434.44 1061.26 484.85 1038.64 484.85 1037.87 434.44"/><polygon class="cls-1" points="1206.88 434.44 1206.11 484.85 1198.9 987.47 1190.7 987.47 1188.55 847.2 1188.39 836.56 1183.49 484.85 1182.72 434.44 1206.88 434.44"/><polygon class="cls-2" points="1206.88 434.44 1206.11 484.85 1183.49 484.85 1182.72 434.44 1206.88 434.44"/><polygon class="cls-1" points="989.67 434.44 988.9 484.85 984 836.56 983.85 847.2 981.69 987.47 973.5 987.47 966.29 484.85 965.52 434.44 989.67 434.44"/><polygon class="cls-2" points="965.52 434.44 989.67 434.44 988.9 484.85 966.29 484.85 965.52 434.44"/><polygon class="cls-1" points="1131.88 434.44 1131.11 484.85 1126.22 836.56 1126.06 847.2 1123.9 987.47 1115.71 987.47 1113.56 847.2 1113.4 836.56 1108.5 484.85 1107.73 434.44 1131.88 434.44"/><polygon class="cls-2" points="1107.73 434.44 1131.88 434.44 1131.11 484.85 1108.5 484.85 1107.73 434.44"/><rect class="cls-5" x="955.91" y="410.98" width="263.52" height="27.61"/><rect class="cls-10" x="955.91" y="410.98" width="208.5" height="27.61"/><polygon class="cls-5" points="1237.39 221.09 1219.38 410.98 1067.06 410.98 1065.54 387.65 1050.99 219.02 1214.83 220.85 1237.39 221.09"/><polygon class="cls-10" points="1214.83 220.85 1202.46 410.98 1067.06 410.98 1065.54 387.65 1050.99 219.02 1214.83 220.85"/><path class="cls-3" d="M991.28,530.18c2.5,31.05,74.25,167.41,74.25,167.41L952.47,754.28S865.3,600.6,870,531.43c4-58.68,105.61-132.64,168.1-204.94h84.22c-26.57,81.85-124.07,172.22-130.88,199.81a12.4,12.4,0,0,0-.16,3.83Z"/><path class="cls-8" d="M1112.44,339.4c-26.94,45.13-56.86,88.3-90.53,128.69-8.2,9.83-16.67,19.43-25.15,29-7.18,8.12-14.45,17.1-15.81,28.23-1.53,12.39,3.86,24.44,8.21,35.72,4.79,12.45,9.61,24.88,14.68,37.21,5.47,13.3,11.2,26.49,17.57,39.39,3.26,6.59,6.65,13.12,10.23,19.55q2.68,4.83,5.49,9.57c.94,1.59,7.54,12.49,8.5,14.06.31.52,1.12,1.14.32-.19-1.81-3-9.19-15.32-10.89-18.35-6.69-12-12.68-24.31-18.36-36.79-5.74-12.65-11.07-25.49-16.18-38.4s-10.3-25.52-14.74-38.51C983.51,542,981.64,535,982,527.89s3.13-13.25,7-18.95c7.25-10.68,16.92-19.89,25.26-29.71q26-30.54,49.32-63.19a879.16,879.16,0,0,0,49.15-76.46A.19.19,0,0,0,1112.44,339.4Z"/><path class="cls-3" d="M1078.25,942.22l137.94-8.09S1161,452.61,1170.25,434.47c21.1-41.21,23-59.16-.2-108l-105,.09s5.91,51.39,5.51,53.61C1044.35,525,1078.25,942.22,1078.25,942.22Z"/><path class="cls-8" d="M1061.21,332.12c1.69,13.48,2.21,36.59,10.06,36.59,7.59,0,5.16-28.19,5.08-34.69-.08-5.89,2-5.18,2.52,1.75,1.47,18.8,1.76,35.43-8.29,35.13-10.24-.31-11.3-29.51-11.36-36.18C1059.18,331.27,1060.67,327.87,1061.21,332.12Z"/><path class="cls-8" d="M1070.79,369.62c.59,2.6,1,12.26.36,14.27-.11.38-1.63.16-1.8-.15-1-1.91-.7-11.21-1.08-13.68A1.28,1.28,0,0,1,1070.79,369.62Z"/><path class="cls-8" d="M1068.25,386.42c-2.79,12-5.16,34.77-4.08,40.7.1.53.91.68,1,.11.78-6.4,4.1-37.11,4.43-40.34C1069.94,383.46,1069,383.08,1068.25,386.42Z"/><path class="cls-8" d="M1089.23,394.81a39.42,39.42,0,0,0-5.18-4c-1.81-1.3-3.63-2.56-5.51-3.76-3.82-2.44-7.77-4.66-11.77-6.8s-7.91-4-12-5.79c-4.24-1.91-8.72-3.29-13-5.18-.24-.11-.44.25-.2.37,4,2,7.8,4.55,11.74,6.75s7.86,4.51,11.81,6.73,7.68,4.39,11.56,6.53q3,1.66,6.13,3.27a49.6,49.6,0,0,0,5.79,2.89C1089.27,396.05,1089.62,395.2,1089.23,394.81Z"/><path class="cls-8" d="M1188.24,846.82q-3.93-28.58-7.44-57.19-7-57.23-12.27-114.67t-8.76-115q-1.76-28.77-3.08-57.58c-.87-19.05-2.18-44.49-2.06-63.57.06-9.7,16.75-17.94,18.92-46.28,1.35-17.71-.3-32.53-5.94-47.69a104.89,104.89,0,0,0-4.78-10.86c-.12-.24-.46,0-.35.23a105.28,105.28,0,0,1,10.58,49.87c-.31,8.63-1.22,17.26-4.12,25.53-4,11.56-14.88,21.31-15.19,27.37-.47,9.07-.25,16.87.06,25.91q.46,14.13,1,28.25,1.17,28.82,2.81,57.6Q1160.94,606,1166,663.2t11.87,114.15q6.81,57,15.43,113.73c.65,4.34,1.37,8.65,2.21,12.95.09.47.89.33.83-.14C1194.15,884.81,1190.86,865.84,1188.24,846.82Z"/><path class="cls-8" d="M1037.89,66.26c-19,11.93-29.14,36.31-29.14,36.31s-20.64,22.22-19.6,37a25.93,25.93,0,0,0,12.24,20.74l.26-8s2.75,11,18.51,18.73,38.93,7.56,51.69,4.34a45,45,0,0,0,20.17-11l-6.81,10.19s16.29,3.08,29.76-11.95-8.53-45.95-9.66-51.8,4.63-45.31-37.68-47.81C1067.63,63,1051,58,1037.89,66.26Z"/><path class="cls-8" d="M995.71,158c-4.12-3.22-6.89-8.77-8.23-13.73a24.19,24.19,0,0,1,.87-15.86c2.54-6,7.1-10.81,11.54-15.49,4.58-4.83,9.53-9.34,14-14.25.25-.27-.16-.64-.43-.44a149.07,149.07,0,0,0-13.14,11.07,69.9,69.9,0,0,0-11.1,11.9c-2.8,4.06-5,8.85-5.1,13.86a25.62,25.62,0,0,0,2.68,11.88c2.16,4.41,5.45,7.68,8.6,11.35C995.62,158.5,996,158.16,995.71,158Z"/><path class="cls-8" d="M1122.4,145.67c-1.67-15.38-12.47-27.33-17.48-41.54-2.71-7.7-4.3-15.9-8.49-23-.11-.19-.44,0-.33.2,3.33,6.28,4.51,13.21,6.42,20s5.1,13.22,8.34,19.56c5.9,11.53,13,25.17,8.09,38.33-2.27,6.07-7.53,12.17-14.4,12.68-.26,0-.2.46.06.41a20.62,20.62,0,0,0,13.75-8.72C1122,158.33,1123.08,152,1122.4,145.67Z"/><path class="cls-8" d="M1122.13,149.66a27.06,27.06,0,0,0-.08-16.3c-1.79-5.24-5.46-9.56-9.22-13.5-4.34-4.55-9-9-11-15.1-.09-.25-.46-.09-.38.16,3.14,10,12,16.38,16.92,25.34,5.64,10.24,2.85,22.68-4.56,31.27a44.29,44.29,0,0,1-17,11.75.1.1,0,0,0,.08.18C1108,169.29,1118.65,161.48,1122.13,149.66Z"/><path class="cls-11" d="M1066.79,225.77c-5.2,28.58-29.89,122.56-56.39,134.29-17.4,7.69-92.42,15.7-108.67.9-7.08-6.45-8.62-61.24,1.62-61.16S974.17,295.55,981,292s48.24-77.26,65.33-96.95C1075.77,161.05,1069.59,210.38,1066.79,225.77Z"/><path class="cls-12" d="M924.83,291.42l14.77,79.76s60.49-1.36,83.44-16.11c27.86-17.92,49.44-123,51.77-139.95,3.81-27.86-2.71-42.58-16-35.36-5.17,2.75-11.36,8.86-18.33,18.85C1033.19,209,992.7,274.89,978.29,289,970.23,296.87,924.83,291.42,924.83,291.42Z"/><path class="cls-6" d="M924.84,291.41l14.77,79.78s10-.22,23.48-1.49c19.57-1.86,46.35-5.89,59.94-14.64,27.86-17.91,49.46-123,51.78-139.94,2.76-20.16.1-33.44-6.62-36.51-2.54-1.18-5.69-.84-9.36,1.14-5.15,2.77-11.35,8.87-18.34,18.85-7.3,10.41-47.77,76.28-62.2,90.38C970.24,296.88,924.84,291.41,924.84,291.41Z"/><path class="cls-8" d="M953.68,366.48c-1.83-11.85-11.09-60.08-13.8-70.37-.19-.71-.69-.77-.59,0,4.63,35.65,11.53,58.89,13.92,70.42C953.27,366.82,953.73,366.78,953.68,366.48Z"/><path class="cls-8" d="M1074.81,215.11c-2.31,17-23.91,122.05-51.77,140-6.86,4.42-17.13,7.63-28.12,10l65.71-186.16c2.9-1.2,5.46-1.28,7.56-.29C1074.92,181.67,1077.58,195,1074.81,215.11Z"/><path class="cls-6" d="M1181.32,336.39a132.26,132.26,0,0,1-15.7,6.87c-.84.3-1.68.6-2.55.87a180.27,180.27,0,0,1-46.22,8.8c-47,3.13-90.49-9-93.88-15.26l7.55-46.88.4-2.53,1-6.37s-10.72-15.4-10.4-32.46a25.34,25.34,0,0,1,.84-5.47c.17-.79.4-1.6.66-2.46,4.16-13.63,16.27-33.48,26.43-47.15a106.35,106.35,0,0,1,10.91-13c11.29-10.6,23.25-12.5,34.74-8.68h0a50.37,50.37,0,0,1,14.54,8c9.85,7.5,18.88,18.7,26.23,31.38,7.69,13.29,15.59,32.59,22.57,52,.26.68.49,1.36.72,2C1171.78,301.34,1181.32,336.39,1181.32,336.39Z"/><path class="cls-8" d="M1042.76,203.91c-3.13,5.22-6.6,10.26-9.88,15.41,1.33-3.65,2.63-7.3,4.08-10.89,0-.07-.07-.14-.11-.06a75.68,75.68,0,0,0-5.62,13.57,103.88,103.88,0,0,0-6.55,12.11,48.62,48.62,0,0,0-4.4,15.88,40.94,40.94,0,0,0,2.31,16.34,104.84,104.84,0,0,0,8.22,17.29c.41.74,1.44.06,1.09-.67-4.6-9.81-9.68-20.14-9.22-31.26s5.58-21.14,10.6-30.68a150.8,150.8,0,0,1,9.85-16.84C1043.28,203.9,1042.9,203.68,1042.76,203.91Z"/><path class="cls-11" d="M1089.8,178.4c-.61,2.79-13.65,21.06-26.38,20.65-4.15-.15-4.39-22.82-4.39-22.82l-.4-1.67-5.58-23.38,27.3-18.08,4-2.39s1.1,6.49,2.4,14.6c.06.37.12.75.18,1.15s.17.89.23,1.32c.21,1.21.42,2.44.6,3.68.14.93.29,1.85.4,2.84s.25,1.95.39,2.94C1089.67,167.05,1090,177.21,1089.8,178.4Z"/><path class="cls-8" d="M1086.7,145.31a48.23,48.23,0,0,1-28.07,29.25l-5.58-23.38,27.3-18.08,4-2.39S1085.4,137.2,1086.7,145.31Z"/><path class="cls-11" d="M1018.84,112c-6.34,41.71,17.92,50.22,26.91,51.58,8.17,1.23,36.13,4.39,46.75-36.44s-6.77-57-25.3-60.77S1025.18,70.31,1018.84,112Z"/><path class="cls-8" d="M1025.87,109.38a25.66,25.66,0,0,0,2.89-.37,4.66,4.66,0,0,0,2.87-.94,1.49,1.49,0,0,0,.15-1.82,3.72,3.72,0,0,0-3.59-1.17,5.52,5.52,0,0,0-3.57,1.65A1.6,1.6,0,0,0,1025.87,109.38Z"/><path class="cls-8" d="M1055,110.38a24.19,24.19,0,0,1-2.79-.83,4.68,4.68,0,0,1-2.69-1.39,1.49,1.49,0,0,1,.15-1.82,3.7,3.7,0,0,1,3.73-.57,5.45,5.45,0,0,1,3.26,2.2A1.6,1.6,0,0,1,1055,110.38Z"/><path class="cls-8" d="M1048.17,118c0-.11.21.16.19.27-.39,2.85-.36,6.18,2.13,7.4.08,0,0,.18,0,.15C1047.34,125,1047.34,120.6,1048.17,118Z"/><path class="cls-8" d="M1051,115.25c4.63.13,4,9.39-.27,9.26S1047.15,115.14,1051,115.25Z"/><path class="cls-8" d="M1052.81,115.86c.78.58,1.51,1.55,2.48,1.71,1.12.19,2-.73,2.83-1.61.08-.09.16,0,.15.12-.09,1.77-.89,3.55-2.81,3.69-1.75.12-2.89-1.53-3.21-3.34C1052.18,116.1,1052.5,115.63,1052.81,115.86Z"/><path class="cls-8" d="M1031.36,115.81c0-.11-.23.12-.23.24-.08,2.88-.65,6.15-3.29,7-.09,0-.09.17,0,.16C1031,122.9,1031.75,118.55,1031.36,115.81Z"/><path class="cls-8" d="M1029,112.67c-4.59-.62-5.48,8.61-1.23,9.18S1032.82,113.19,1029,112.67Z"/><path class="cls-8" d="M1027,113.09c-.78.42-1.58,1.24-2.46,1.21s-1.67-1.1-2.22-2.12c-.06-.11-.14,0-.15.09-.22,1.75.19,3.65,1.85,4.15,1.51.46,2.79-.94,3.39-2.66C1027.51,113.44,1027.3,112.92,1027,113.09Z"/><path class="cls-8" d="M1045.71,142.43c-.7.66-1.41,1.57-2.45,1.64a7.5,7.5,0,0,1-3.07-.78.1.1,0,0,0-.13.14,3.85,3.85,0,0,0,3.61,1.63,3,3,0,0,0,2.31-2.49C1046,142.4,1045.81,142.34,1045.71,142.43Z"/><path class="cls-8" d="M1034.53,131.16s-.92,4.23-1.07,6.25c0,.19.46.31,1.15.41,0,0,0,0,.07,0a9.61,9.61,0,0,0,9.6-2.86c.15-.18-.09-.41-.28-.3-2.81,1.75-5.79,2-9,1.83-.1-.57,1.82-7.19,1.5-7.24-1.1-.18-3.33.4-4.66.68,1.66-8.87,4.73-17.4,6.25-26.26a.27.27,0,0,0-.51-.17c-3.85,8.72-6,18.88-8,28C1029.43,132.63,1033.7,131.44,1034.53,131.16Z"/><path class="cls-8" d="M1092.34,129.44c-9.34-4.43-9.73-14.22-9.73-14.22a45.48,45.48,0,0,1-18.5-15c.28.87,2.31,7.18,3.45,10.35-26.83-5.08-35.08-25.64-35.08-25.64-8.73,8.66-10.48,14.21-11.75,17,0,0-.15-16.47,8.35-27.47,10.39-13.47,24.52-10.87,24.52-10.87a37.92,37.92,0,0,1,37,11.5C1108,94.13,1092.34,129.44,1092.34,129.44Z"/><path class="cls-8" d="M1047.17,106.1a49.88,49.88,0,0,0,13.75,5.09s0,0,0-.06a42.14,42.14,0,0,1-19.67-12,40.22,40.22,0,0,1-5.77-8.11c-1.65-3.07-3.25-6.73-3.54-10.24a.21.21,0,0,0-.41,0c.3,3.71.61,7.13,2.1,10.59a29.46,29.46,0,0,0,5.94,8.9,33.91,33.91,0,0,0,7.59,5.77"/><path class="cls-11" d="M1085.38,129.35s10-12.55,15.79-8.89-2.39,22.26-9.56,24.42a7.14,7.14,0,0,1-9.29-4.45Z"/><path class="cls-8" d="M1098.7,125.73a.1.1,0,0,1,0,.19c-5,1.67-7.92,6.06-10,10.66,1.58-1.72,3.63-2.59,6-.69.12.09,0,.29-.15.25a4.38,4.38,0,0,0-4.92,1.22,21.21,21.21,0,0,0-2.56,3.75c-.25.42-1,.13-.83-.36a.54.54,0,0,1,0-.11C1086.52,134.37,1091.94,125.93,1098.7,125.73Z"/><path class="cls-11" d="M1131.76,204.18c23.88,34.48,49,84.92,51.21,124.79,1.1,19.48-31.91,38.49-44.41,33.06-29.39-12.78-70.78-43.18-87.4-63.62-5.87-7.22,51.89-59.55,56.61-50.79,4.6,8.54,7.64,13.88,12.17,17.15,2.21,1.59-8.5-19.18-16.3-55.68C1093,159.24,1123.1,191.68,1131.76,204.18Z"/><path class="cls-3" d="M1057.22,163.72s8.91-11.94.28-17.35-15.5,7.8-15.5,7.8Z"/><rect class="cls-5" x="1013.12" y="150.45" width="17.97" height="104.73" transform="translate(1780.29 917.64) rotate(-147.91)"/><rect class="cls-3" x="1038.63" y="157.65" width="20.98" height="4.16" transform="translate(1853.08 852.42) rotate(-147.91)"/><rect class="cls-3" x="1036.18" y="161.55" width="20.98" height="4.16" transform="translate(1846.49 858.32) rotate(-147.91)"/><path class="cls-4" d="M986.67,242.39l-1.14,14.55-.39,4.79,4.17-2.42,12.6-7.36-.16-3.18s-2.83,1.26-2.89,1.27l-.15-3.18s-2.84,1.26-2.9,1.27l-.12-3.16-2.92,1.25-.13-3.16-2.92,1.25-.12-3.16S986.72,242.38,986.67,242.39Z"/><polygon class="cls-3" points="985.53 256.94 985.14 261.73 989.31 259.31 985.53 256.94"/><path class="cls-11" d="M1015.05,179.3c-5,7.57,14.68,18.42,14.68,18.42s-6.28-.19-10.74,3.88c-5.1,4.67,0,14.72,0,14.72a20.72,20.72,0,0,0-10.67,5.9c-4.43,4.95-.75,15.82-.75,15.82s-5.38,4.32-6.11,11.1c-1.25,11.59,13.61,21.63,21.57,29.67,8.54,8.6,24.93,16.5,31.42,22.74l55.41-49.39s-20.12-45.82-36.7-57.73C1064,187.82,1022.76,167.73,1015.05,179.3Z"/><path class="cls-8" d="M1030,197.61c11.83,3.65,22.76,10.13,33.24,16.5.23.14,0,.5-.23.36-10.35-6.46-22.67-10.29-33.25-16.32A.3.3,0,0,1,1030,197.61Z"/><path class="cls-8" d="M1019.75,215.73c2.66.91,5,2.68,7.3,4.24q3.72,2.52,7.34,5.16c4.84,3.52,9.61,7.15,14.26,10.92.2.17,0,.53-.23.36-4.83-3.5-9.71-6.92-14.69-10.22q-3.74-2.48-7.51-4.89c-2.34-1.49-4.93-2.88-6.89-4.87A.42.42,0,0,1,1019.75,215.73Z"/><path class="cls-8" d="M1007.76,238.18c2.34.7,4.45,2.72,6.36,4.18,2.18,1.65,4.36,3.28,6.55,4.91,4.38,3.25,8.77,6.5,13.26,9.6.22.15,0,.51-.23.36-4.58-3.13-9.2-6.19-13.75-9.35q-3.36-2.32-6.68-4.7c-1.89-1.34-4.4-2.8-5.68-4.78A.15.15,0,0,1,1007.76,238.18Z"/><path class="cls-8" d="M1076.41,197.12c-2.66-3-7.1-7.59-17.53-10.65-.29-.09-.29.08,0,.21a80,80,0,0,1,17.44,10.55A.07.07,0,0,0,1076.41,197.12Z"/><path class="cls-6" d="M1048.73,309l59.88-63.71,10.17,16.85s-12.68-32.77-17.1-53.56-4.76-45.31,23-15c27.17,29.69,62.41,111.87,61.52,134.87s-29.54,38-44.33,36S1048.73,309,1048.73,309Z"/><path class="cls-8" d="M1065.24,315c8.38-8.59,41.37-45,48-53.31.45-.58.2-1-.36-.47-25.71,25.12-40.15,44.59-47.93,53.43C1064.72,314.88,1065,315.22,1065.24,315Z"/><path class="cls-8" d="M1165.71,322.53c-3.59-5.69-7.71-11.11-11.66-16.6s-7.91-11-12.08-16.35-8.61-10.59-13-15.83c-2.2-2.62-6.49-7.74-8.7-10.35s-2.4-1.94-.3.89,6.12,7.95,8.12,10.67c4,5.38,7.83,10.8,11.91,16.08s8.32,10.52,12.51,15.76,8.31,10.8,12.8,16C1165.49,323,1165.86,322.78,1165.71,322.53Z"/><path class="cls-8" d="M1112.89,243.33c-2.42-6.25-5.26-12.43-7.2-18.85a.2.2,0,0,0-.39.12c1.41,4.23,2.57,8.53,3.84,12.8l-.33-.51c-1-1.63-2.06-3.27-3-4.94a.21.21,0,0,0-.35.22q1.39,2.55,2.7,5.16a23.2,23.2,0,0,0,2.28,4c.31.93.59,1.86.93,2.78a141.32,141.32,0,0,0,7.88,18.33.36.36,0,0,0,.66-.29C1117.78,255.84,1115.29,249.55,1112.89,243.33Z"/><path class="cls-8" d="M1109.08,245c-.22-.33-1.69,1.34-2.38,2.22-.12.14,0,.2.23.06.49-.39,1-.64,1.5-1.07,1.57,2.86,10.19,16.27,10.79,16.84.26.26.5,0,.37-.35C1119,261.15,1111,247.87,1109.08,245Z"/><path class="cls-8" d="M1121,354.56c-18.48-12.42-37.28-24.4-56.47-35.68-5.25-3.09-10.24-6.44-15.41-9.68.54-.39,5.4-5.95,5.55-6.15a.11.11,0,0,0-.16-.15c-.55.5-6.81,6-7.23,6.61-.26.37,19.28,12.64,28.55,18.65s18.92,11.71,28.5,17.35q8.18,4.82,16.47,9.4A.2.2,0,0,0,1121,354.56Z"/><polygon class="cls-6" points="946.37 386.38 1040.69 385.02 994.9 264.66 900.58 266.02 946.37 386.38"/><polygon class="cls-5" points="939.92 386.48 1034.24 385.11 988.44 264.75 894.13 266.12 939.92 386.48"/><path class="cls-12" d="M978.42,264.91a8.41,8.41,0,0,0,4.12,4.87c.9.46,1.13-.72.23-1.16a6.24,6.24,0,0,1-2.78-3.07c-.08-.21-.17-.45-.23-.66a4.38,4.38,0,0,1-.17-2.3,1.5,1.5,0,0,1,.51-.84.22.22,0,0,0,.06-.05c.05,0,.1,0,.12-.06l.17,0a1.2,1.2,0,0,1,.67,0,2.75,2.75,0,0,1,1.09.69,5.59,5.59,0,0,1,1,1.24,6.66,6.66,0,0,1,.42.69l.06.16a.9.9,0,0,1,.12.24c0,.05.07.11.06.16l1.34,0a9.79,9.79,0,0,0-1.31-2.31,5.11,5.11,0,0,0-3.66-2.25,2.08,2.08,0,0,0-2.08,2A5.6,5.6,0,0,0,978.42,264.91Z"/><path class="cls-12" d="M971,265a8.37,8.37,0,0,0,4.11,4.87c.91.47,1.13-.71.24-1.15a6.24,6.24,0,0,1-2.78-3.07,5.3,5.3,0,0,1-.23-.67,4.48,4.48,0,0,1-.18-2.3,1.45,1.45,0,0,1,.52-.83l.06-.06s.1,0,.11-.05l.18,0a1.08,1.08,0,0,1,.66,0,2.75,2.75,0,0,1,1.1.68,5.64,5.64,0,0,1,1,1.25,6.66,6.66,0,0,1,.42.69l.06.16a.9.9,0,0,1,.12.24c0,.05.07.1.06.16l1.34,0a10,10,0,0,0-1.31-2.31,5.11,5.11,0,0,0-3.66-2.25,2.07,2.07,0,0,0-2.08,1.95A5.46,5.46,0,0,0,971,265Z"/><path class="cls-12" d="M963.66,265.12a8.37,8.37,0,0,0,4.11,4.87c.91.47,1.13-.71.24-1.16a6.2,6.2,0,0,1-2.79-3.06,5.82,5.82,0,0,1-.22-.67,4.49,4.49,0,0,1-.18-2.3,1.46,1.46,0,0,1,.52-.84.18.18,0,0,0,.06,0s.1,0,.11-.06l.18,0a1.16,1.16,0,0,1,.66.05,2.65,2.65,0,0,1,1.1.68,5.77,5.77,0,0,1,.95,1.24c.17.22.28.46.43.69l.06.16a.9.9,0,0,1,.12.24c0,.06.06.11.06.16l1.34,0a10.16,10.16,0,0,0-1.31-2.31,5.16,5.16,0,0,0-3.66-2.25,2.07,2.07,0,0,0-2.08,2A5.47,5.47,0,0,0,963.66,265.12Z"/><path class="cls-12" d="M956.28,265.23a8.36,8.36,0,0,0,4.11,4.87c.91.46,1.13-.72.23-1.16a6.29,6.29,0,0,1-2.78-3.07,5.67,5.67,0,0,1-.22-.66,4.49,4.49,0,0,1-.18-2.3,1.46,1.46,0,0,1,.52-.84L958,262s.09,0,.11-.06l.18,0a1.08,1.08,0,0,1,.66.05,2.56,2.56,0,0,1,1.09.68,5.59,5.59,0,0,1,1,1.24c.16.21.28.45.43.69l.06.16a1.28,1.28,0,0,1,.11.24c0,.05.07.11.07.16l1.33,0a9.45,9.45,0,0,0-1.31-2.31,5.09,5.09,0,0,0-3.65-2.25,2.06,2.06,0,0,0-2.08,2A5.47,5.47,0,0,0,956.28,265.23Z"/><path class="cls-12" d="M948.89,265.33A8.35,8.35,0,0,0,953,270.2c.9.47,1.13-.71.23-1.15a6.24,6.24,0,0,1-2.78-3.07c-.08-.21-.17-.45-.23-.66a4.42,4.42,0,0,1-.17-2.31,1.5,1.5,0,0,1,.51-.83s0,0,.06-.06a.48.48,0,0,0,.12-.05l.17,0a1.19,1.19,0,0,1,.67,0,2.66,2.66,0,0,1,1.09.68,5.64,5.64,0,0,1,1,1.25,6.66,6.66,0,0,1,.42.69l.06.16a.9.9,0,0,1,.12.24s.07.1.06.16l1.34,0a9.6,9.6,0,0,0-1.31-2.31,5.11,5.11,0,0,0-3.65-2.25,2.08,2.08,0,0,0-2.09,1.95A5.58,5.58,0,0,0,948.89,265.33Z"/><path class="cls-12" d="M941.51,265.44a8.38,8.38,0,0,0,4.12,4.87c.9.47,1.12-.71.23-1.16a6.18,6.18,0,0,1-2.78-3.06c-.08-.21-.17-.45-.23-.67a4.38,4.38,0,0,1-.17-2.3,1.44,1.44,0,0,1,.51-.84s0,0,.06,0,.1,0,.12-.06l.17,0a1.2,1.2,0,0,1,.67.05,2.68,2.68,0,0,1,1.09.68,5.82,5.82,0,0,1,1,1.24c.16.22.28.46.42.69l.06.16a.9.9,0,0,1,.12.24c0,.06.07.11.06.16l1.34,0A10,10,0,0,0,947,263a5.14,5.14,0,0,0-3.66-2.25,2.07,2.07,0,0,0-2.08,2A5.47,5.47,0,0,0,941.51,265.44Z"/><path class="cls-12" d="M934.13,265.55a8.4,8.4,0,0,0,4.11,4.87c.91.47,1.13-.72.24-1.16a6.22,6.22,0,0,1-2.78-3.06,4.84,4.84,0,0,1-.23-.67,4.49,4.49,0,0,1-.18-2.3,1.51,1.51,0,0,1,.52-.84l.06-.05s.1,0,.11-.06l.18,0a1.16,1.16,0,0,1,.66.05,2.65,2.65,0,0,1,1.1.68,5.59,5.59,0,0,1,1,1.24c.16.21.27.45.42.69l.06.16a.9.9,0,0,1,.12.24c0,.05.07.11.06.16l1.34,0a10.16,10.16,0,0,0-1.31-2.31,5.13,5.13,0,0,0-3.66-2.25,2.07,2.07,0,0,0-2.08,2A5.47,5.47,0,0,0,934.13,265.55Z"/><path class="cls-12" d="M926.75,265.66a8.35,8.35,0,0,0,4.11,4.86c.91.47,1.13-.71.24-1.15a6.26,6.26,0,0,1-2.79-3.07,5.67,5.67,0,0,1-.22-.66,4.5,4.5,0,0,1-.18-2.3,1.46,1.46,0,0,1,.52-.84.31.31,0,0,0,.06-.06.58.58,0,0,0,.11-.05l.18,0a1.16,1.16,0,0,1,.66,0,2.66,2.66,0,0,1,1.09.68,5.88,5.88,0,0,1,1,1.25c.16.21.28.45.43.69l.06.16a1.34,1.34,0,0,1,.12.24.44.44,0,0,1,.06.16l1.34,0a10.16,10.16,0,0,0-1.31-2.31,5.13,5.13,0,0,0-3.66-2.25,2.06,2.06,0,0,0-2.08,1.95A5.51,5.51,0,0,0,926.75,265.66Z"/><path class="cls-12" d="M919.37,265.76a8.3,8.3,0,0,0,4.11,4.87c.9.47,1.13-.71.23-1.15a6.29,6.29,0,0,1-2.78-3.07c-.08-.21-.17-.45-.23-.67a4.38,4.38,0,0,1-.17-2.3,1.46,1.46,0,0,1,.52-.84.18.18,0,0,0,.06-.05s.09,0,.11-.06l.18,0a1.08,1.08,0,0,1,.66,0,2.56,2.56,0,0,1,1.09.68,5.82,5.82,0,0,1,1,1.24,8.1,8.1,0,0,1,.42.7l.07.15a1.28,1.28,0,0,1,.11.24c0,.06.07.11.06.16l1.34,0a10,10,0,0,0-1.31-2.31,5.18,5.18,0,0,0-3.65-2.25,2.06,2.06,0,0,0-2.08,2A5.36,5.36,0,0,0,919.37,265.76Z"/><path class="cls-12" d="M912,265.87a8.38,8.38,0,0,0,4.12,4.87c.9.47,1.13-.72.23-1.16a6.26,6.26,0,0,1-2.78-3.06c-.08-.22-.17-.46-.23-.67a4.38,4.38,0,0,1-.17-2.3,1.5,1.5,0,0,1,.51-.84.22.22,0,0,0,.06,0s.1,0,.12-.06l.17,0a1.2,1.2,0,0,1,.67.05,2.62,2.62,0,0,1,1.09.68,5.59,5.59,0,0,1,1,1.24,6.66,6.66,0,0,1,.42.69l.06.16a.9.9,0,0,1,.12.24c0,.05.07.11.06.16l1.34,0a9.79,9.79,0,0,0-1.31-2.31,5.11,5.11,0,0,0-3.66-2.25,2.08,2.08,0,0,0-2.08,2A5.59,5.59,0,0,0,912,265.87Z"/><path class="cls-12" d="M904.6,266a8.38,8.38,0,0,0,4.11,4.86c.91.47,1.13-.71.24-1.15a6.24,6.24,0,0,1-2.78-3.07,5.75,5.75,0,0,1-.23-.66,4.5,4.5,0,0,1-.18-2.3,1.51,1.51,0,0,1,.52-.84.31.31,0,0,0,.06-.06s.1,0,.11-.05l.18,0a1.16,1.16,0,0,1,.66,0,2.75,2.75,0,0,1,1.1.68,5.88,5.88,0,0,1,1,1.25,6.66,6.66,0,0,1,.42.69l.06.16a.9.9,0,0,1,.12.24c0,.05.07.1.06.16l1.34,0a10.16,10.16,0,0,0-1.31-2.31,5.11,5.11,0,0,0-3.66-2.25,2.07,2.07,0,0,0-2.08,2A5.48,5.48,0,0,0,904.6,266Z"/><path class="cls-12" d="M897.22,266.08a8.34,8.34,0,0,0,4.11,4.87c.91.47,1.13-.71.24-1.15a6.26,6.26,0,0,1-2.79-3.07,5.25,5.25,0,0,1-.22-.67,4.49,4.49,0,0,1-.18-2.3,1.45,1.45,0,0,1,.52-.83l.06-.06s.1,0,.11-.05l.18,0a1.08,1.08,0,0,1,.66,0,2.65,2.65,0,0,1,1.1.68,5.59,5.59,0,0,1,1,1.25,6.71,6.71,0,0,1,.43.69l.06.16a.85.85,0,0,1,.12.23c0,.06.06.11.06.16H904a10.22,10.22,0,0,0-1.31-2.32,5.2,5.2,0,0,0-3.66-2.25,2.08,2.08,0,0,0-2.08,2A5.47,5.47,0,0,0,897.22,266.08Z"/><path class="cls-11" d="M900.28,295.5c-3.76,10.7-14.59,24.64-14.7,33.07a9.66,9.66,0,0,0,6.42,9.58s-7.86,5-6.71,12.69c.6,3.94,7.42,6.46,7.42,6.46s-6.12,4.29-4.68,11.05c1.16,5.38,7.82,7.09,7.82,7.09s-4,6.86-1,12c5.95,10.35,52.91,5.36,58.33-12.71,2.52-8.42-8.88-6.58-8.88-6.58s15.76-6.61,15-16.32-15.46-6.42-15.46-6.42,15.22-6.53,13.4-16.52c-1.9-10.39-16-4.59-16-4.59s9.69-8.19,6.54-15.51c-5.19-12.09-23.29,5.73-33.88,4.38l-7.5-16.41Z"/><path class="cls-11" d="M892.43,311.3c2.67-10.44-11.08-21.52-10-31.87,1.52-14,18.34-2.23,23.88,17.29l1.64,15.9Z"/><path class="cls-8" d="M896.87,375.86a.13.13,0,0,0,0,.25c15.84,2.12,33.9-.4,48.07-8,.46-.24.26-1.11-.31-.93C928.51,372.21,913.82,375.43,896.87,375.86Z"/><path class="cls-8" d="M892.49,357.42c-.18,0-.18.31,0,.33,16.34,2.1,36.6-1.3,51.89-12,.53-.37.63-1.22,0-.85C933.69,351.24,907.76,357.1,892.49,357.42Z"/><path class="cls-8" d="M942.05,323.13c-15.06,9.7-31.71,13.6-49.39,15.14-.23,0-.18.35,0,.38,8.85,1.6,20-.56,28.57-3a47.24,47.24,0,0,0,21.14-12C942.63,323.43,942.37,322.92,942.05,323.13Z"/><path class="cls-5" d="M194.16,413.74s-64.4-9-49.35-86.76C144.81,327,216.76,343.13,194.16,413.74Z"/><path class="cls-13" d="M194.16,413.74s-64.4-9-49.35-86.76C144.81,327,216.76,343.13,194.16,413.74Z"/><path class="cls-8" d="M190.9,397.51c-1.26-3.94-2.74-7.8-4.38-11.59-.05-.5-.13-1-.17-1.47l-.27-3.21c-.18-2.32-.32-4.64-.46-7-.27-4.65-.57-9.3-.64-13.95a.2.2,0,0,0-.4,0c0,4.66-.11,9.31.07,14,.09,2.32.23,4.65.38,7,0,.51.08,1,.11,1.54a137.62,137.62,0,0,0-12.91-22.08c-2.21-3.09-4.54-6.06-7-8.93s-5.28-5.73-7.88-8.64c-.16-.19-.44.1-.27.29,4.74,4.93,8.65,10.8,12.41,16.49q2.94,4.46,5.57,9.1l-.6-.24c-.77-.31-1.53-.63-2.3-.93l-5.26-2c-3.45-1.28-6.91-2.54-10.35-3.85-.21-.08-.35.28-.15.36,3.43,1.37,6.81,2.81,10.2,4.27l5,2.15c.83.36,1.67.69,2.51,1a8.32,8.32,0,0,0,1.71.61c1.3,2.33,2.59,4.67,3.77,7.06a168,168,0,0,1,7.87,18.55c.16.44.31.89.46,1.33a38.11,38.11,0,0,0-5.28-2.54c-2.21-1-4.44-2-6.66-3-4.51-2.07-9-4.18-13.33-6.62a.19.19,0,0,0-.19.34c4.42,2.42,8.76,5,13.19,7.4,2.22,1.2,4.45,2.37,6.71,3.47,1.87.9,4,2.16,6.05,2.42a75.9,75.9,0,0,1,4.22,18.27c.72,8.79.64,17.65.85,26.46,0,.16.22.14.23,0,.64-8,1-16.07,1-24.09A69.6,69.6,0,0,0,190.9,397.51Z"/><path class="cls-8" d="M181,351.79a76.69,76.69,0,0,0-.65,13.71.1.1,0,0,0,.2,0c.26-4.55.3-9.08.83-13.61C181.4,351.64,181,351.54,181,351.79Z"/><path class="cls-8" d="M162.57,355.68a49.29,49.29,0,0,1-8.28-4.07c-.21-.14-.4.21-.19.35a31.42,31.42,0,0,0,8.37,4C162.62,356,162.73,355.75,162.57,355.68Z"/><path class="cls-8" d="M196.21,537.15c-.05-7.11-.19-14.23-.27-21.34-.13-23.64-.33-47.27-.75-70.9q-.51-28.14-1.31-56.28a.31.31,0,0,0-.16-.24c0-5.12-.05-10.25-.09-15.37,0-.13-.15-.19-.3-.19s-.31.07-.31.2q0,7.7-.1,15.4a.3.3,0,0,0-.14.22c-.95,33.39-1.8,66.78-2,100.18,0,6.79,0,13.58-.07,20.37q-.34,32.67-.25,65.32c0,3.47-.06,6.94-.08,10.4-.07,19.92.21,39.85.22,59.77,0,1.07,1.19,1.6,2.45,1.65,1.45.06,3-.52,3-1.74,0-22,.15-43.94.15-65.91C196.26,564.85,196.32,551,196.21,537.15Z"/><path class="cls-5" d="M169.32,515.54s-31-22.95-60.37-7.45-34,75.28-34,75.28,43.17,6.18,70.35-19.7C171.49,538.74,169.32,515.54,169.32,515.54Z"/><path class="cls-8" d="M177.76,517a37,37,0,0,0-17.94-2.34,25.6,25.6,0,0,0-3.8-.37l-4.36-.33c-3-.23-6-.41-9-.64-6.11-.46-12.24-.83-18.33-1.44-.22,0-.26.36,0,.39,6,.77,12,1.63,18.09,2.24,3.12.31,6.23.63,9.35.86.73,0,1.49.13,2.27.22-.93.2-1.85.42-2.75.68a72.9,72.9,0,0,0-14,5.7c-2.44.44-4.86,1.12-7.26,1.69-3.83.9-7.64,1.89-11.45,2.89-7.52,2-15,4.18-22.43,6.35a.2.2,0,0,0,.11.38c7.46-1.83,15-3.51,22.43-5.28,3.63-.87,7.27-1.72,10.89-2.61q1.41-.35,2.85-.66a91,91,0,0,0-22,19.14A119.89,119.89,0,0,0,95,568c-.1.22.21.44.34.21a117.12,117.12,0,0,1,18.51-24.3l-.4,1.24c-.58,1.82-1.15,3.65-1.72,5.47-1.15,3.65-2.31,7.29-3.4,11-.07.24.29.32.38.09,1.3-3.53,2.54-7.09,3.79-10.64.62-1.75,1.23-3.49,1.84-5.24.32-.9.62-1.81.93-2.72.09-.28.2-.55.3-.83a110.39,110.39,0,0,1,11-9.36A83.28,83.28,0,0,1,143,523.4c-.11.54-.21,1.08-.32,1.59-.3,1.41-.62,2.82-.91,4.24-.6,2.93-1.17,5.87-1.75,8.81-1.16,6-1.89,12.06-3,18.06a.2.2,0,0,0,.38.1c1.39-6,3.18-12,4.52-18,.68-3,1.36-6,2-9.07.29-1.41.57-2.83.86-4.25.16-.79.34-1.58.43-2.37.56-.22,1.12-.48,1.68-.69,8.13-3,17.11-5.2,25.77-3.53a25.35,25.35,0,0,1,18.65,14.93c.28.68,1.34.26,1.19-.43C190.78,525.34,184.57,519.81,177.76,517Z"/><path class="cls-8" d="M130.34,542.48l-2.61,11.77a86.17,86.17,0,0,0-2.16,11.45c0,.16.2.16.25,0a88.48,88.48,0,0,0,2.63-11.54q1.14-5.81,2.27-11.62A.2.2,0,0,0,130.34,542.48Z"/><path class="cls-8" d="M100.39,552.45c-4,2-7.77,4.28-11.89,5.92a.19.19,0,1,0,.16.35,127,127,0,0,0,11.82-6.12C100.58,552.54,100.49,552.4,100.39,552.45Z"/><path class="cls-5" d="M176.28,473.39s-37.85,2.41-55.46-22.55-13.66-60.61-13.66-60.61,39.76,4.83,55.56,22.76S176.28,473.39,176.28,473.39Z"/><path class="cls-8" d="M194.05,510.74c-1.31-4.05-2.94-8.05-4.47-12q-2.21-5.73-4.7-11.34a237,237,0,0,0-11.35-22.3c-2.67-4.6-5.54-9.07-8.48-13.47-.06-.67-.2-1.34-.3-2-.18-1.17-.34-2.34-.53-3.51-.37-2.4-.79-4.79-1.19-7.18-.87-5.23-1.95-10.42-2.78-15.65,0-.25-.43-.25-.4,0,.77,5.16,1.29,10.36,2,15.53.36,2.54.69,5.08,1.07,7.61.14.92.29,1.84.43,2.75a272,272,0,0,0-18.72-24.29c-.91-1-1.84-2.06-2.77-3.09-.09-.29-.23-.57-.35-.87-.28-.72-.55-1.44-.82-2.16-.56-1.51-1.1-3-1.64-4.52-1.06-3-2-6-2.82-9-.06-.25-.44-.13-.38.11.77,3.11,1.57,6.21,2.48,9.28.44,1.48.93,2.94,1.45,4.4l.27.73c-4.84-5.27-9.88-10.36-15-15.38-.18-.18-.45.1-.27.28a272,272,0,0,1,26.82,32.86,25.52,25.52,0,0,0-2.8-.71c-2.92-.56-5.86-1-8.8-1.35-6.17-.79-12.32-1.56-18.46-2.53-.25,0-.35.33-.1.38,5.87,1.15,11.68,2.48,17.51,3.81,2.75.63,5.51,1.17,8.27,1.72a53.27,53.27,0,0,1,6.65,1.89c.61.88,1.25,1.74,1.85,2.62,2.78,4.05,5.44,8.17,8.05,12.33l-3.86-.76c-2.92-.56-5.86-1.09-8.8-1.58-5.77-.95-11.55-1.95-17.26-3.25-.24-.05-.34.33-.09.38,5.79,1.36,11.52,2.95,17.27,4.48,2.77.74,5.57,1.41,8.37,2,1.4.31,2.8.62,4.21.91a10.26,10.26,0,0,0,1.7.29q8.29,13.46,15.52,27.51,3.18,6.18,6.12,12.47c2,4.3,3.75,8.69,5.62,13.05C193,512.05,194.36,511.69,194.05,510.74Z"/><path class="cls-8" d="M155.3,423.74q-1.08-5.42-2.28-10.81c-.06-.25-.43-.13-.38.11q1.08,5.32,2.05,10.67a105.79,105.79,0,0,0,2.14,10.6.06.06,0,0,0,.12,0A73.94,73.94,0,0,0,155.3,423.74Z"/><path class="cls-8" d="M133.22,422.68c-1.76-.87-3.61-1.58-5.44-2.29l-2.87-1.12-1.46-.59a6.37,6.37,0,0,1-1.6-.7c-.29-.21-.47.29-.19.34a6.9,6.9,0,0,1,1.62.66l1.44.64,2.76,1.23a50.72,50.72,0,0,0,5.59,2.21A.21.21,0,0,0,133.22,422.68Z"/><path class="cls-5" d="M215,443.62S238,400.83,272.8,394.2,329,423.43,329,423.43s-25.42,32.47-57.41,38.14S215,443.62,215,443.62Z"/><path class="cls-8" d="M296.16,413.38a94.2,94.2,0,0,0-27.34.32c.53-.28,1.05-.57,1.56-.83,2.59-1.31,5.16-2.65,7.73-4,5.35-2.79,10.76-5.75,16.37-8a.19.19,0,1,0-.16-.35c-5.46,2.54-11.11,4.67-16.58,7.18-2.73,1.26-5.42,2.57-8.08,4-1.72.91-3.63,1.77-5.32,2.86a96.55,96.55,0,0,0-22.15,7.36l4.36-4.74c3.24-3.56,6.44-7.29,10-10.53.19-.17-.1-.44-.29-.27-3.65,3.31-7.49,6.37-11,9.82-1.72,1.67-3.36,3.4-5,5.19-.8.88-1.6,1.8-2.36,2.75a91.94,91.94,0,0,0-46.73,63.1c-.05.24.3.38.38.13A105.16,105.16,0,0,1,217.19,444a100.74,100.74,0,0,1,46.69-27,102.6,102.6,0,0,1,32.23-2.93A.34.34,0,0,0,296.16,413.38Z"/><path class="cls-13" d="M329,423.44s-25.43,32.47-57.43,38.13c-24.4,4.33-44.47-8.4-52.62-14.66l-1.76-2.9s16.5-13.91,47.72-21.93S329,423.44,329,423.44Z"/><path class="cls-8" d="M275.92,398.12a86.36,86.36,0,0,0-7.75,5.11,50.19,50.19,0,0,0-6.72,6.15.21.21,0,0,0,.3.28c2.31-2,4.64-4,7-5.92a74.46,74.46,0,0,1,7.33-5.29A.19.19,0,0,0,275.92,398.12Z"/><path class="cls-8" d="M295,405.36c-1.29.54-2.61,1-3.9,1.54l-3.88,1.61c-.27.12-.14.57.14.46l3.89-1.58c1.3-.53,2.57-1.13,3.87-1.65C295.39,405.65,295.28,405.27,295,405.36Z"/><path class="cls-5" d="M210.46,497.48s6.12,42.45,38,57.3,70.84,0,70.84,0S304,462.93,210.46,497.48Z"/><path class="cls-8" d="M297.35,527.17c-2.94-.34-5.87-.84-8.78-1.37q-2.16-.39-4.29-.81c-.73-.14-1.49-.32-2.24-.45-.86-.8-1.71-1.62-2.59-2.39A128.73,128.73,0,0,0,259.92,508a110.28,110.28,0,0,0-11.7-6l.6,0c3.51.15,7,.29,10.51.45,7,.33,14,.48,21,.94.25,0,.24-.38,0-.4-7-.47-14-1.24-21-1.85-3.4-.29-6.81-.6-10.21-.91-1.75-.16-3.51-.3-5.26-.45l-1.35-.15c-1.82-.68-3.65-1.32-5.51-1.9-8.73-2.71-18.09-3.78-27-1.49-8,2.06-16,7.32-18.12,15.79-.07.29.38.49.51.2,3-7.08,10.84-10.64,17.93-12.11a42.55,42.55,0,0,1,14.46-.28,35.08,35.08,0,0,0,1.61,6.42c.89,3,1.76,6,2.66,9,1.81,6,3.8,11.87,5.57,17.85.07.24.44.13.38-.12-1.49-6-2.74-12-4.17-17.94-.71-2.93-1.45-5.85-2.17-8.78a51.46,51.46,0,0,0-1.61-6,76.65,76.65,0,0,1,8.28,1.95,121.25,121.25,0,0,1,14.47,5.3c.47,3,1.14,6,1.84,9,.87,3.75,1.85,7.46,3,11.12a.19.19,0,0,0,.36-.11c-.05-.23-.1-.46-.14-.69h0c-.72-3.47-1.48-6.93-2.21-10.4-.59-2.79-1.14-5.6-1.74-8.39,4,1.78,7.86,3.72,11.63,5.89.08.86.29,1.75.41,2.54.24,1.45.5,2.9.77,4.35.6,3.28,1.25,6.54,2,9.78A154,154,0,0,0,271.19,549a.21.21,0,0,0,0,.25l.18.21c.14.16.36,0,.32-.2-1.48-6.29-3.16-12.53-4.54-18.84-.69-3.16-1.39-6.31-2-9.47-.32-1.58-.61-3.17-.91-4.76-.08-.44-.15-.93-.22-1.42a131.71,131.71,0,0,1,12.43,8.3,133.93,133.93,0,0,1,19,17.37c.23.25.68-.11.47-.39-2.44-3.19-4.86-6.32-7.61-9.28-1.61-1.72-3.27-3.38-5-5l.53.1c1.49.25,3,.47,4.49.67,3,.39,5.92.68,8.88,1C297.51,527.58,297.6,527.2,297.35,527.17Z"/><path class="cls-8" d="M274.92,541.56h0c-.05-.37-.11-.73-.18-1.1s-.32-.92-.39-1.39c0,0,0,0,0,0-.66-2.84-1.21-5.7-1.73-8.57,0-.2-.35-.14-.34.06a34.35,34.35,0,0,0,2.43,11.08c0,.11.24.1.22,0Z"/><path class="cls-8" d="M248.2,540.88a.19.19,0,0,0-.19-.18c-.9-3.76-1.76-7.52-2.53-11.3-.41-2-.83-4-1.21-6-.2-1.07-.4-2.15-.59-3.22a9.56,9.56,0,0,0-.69-2.76.2.2,0,0,0-.36,0c-.26,1.79.47,4,.8,5.7.39,2.07.8,4.14,1.25,6.2q1.4,6.29,3.16,12.49a.22.22,0,0,0,.42-.07Z"/><path class="cls-8" d="M294.44,514.94c-5.83-.8-11.65-1.64-17.5-2.35-.24,0-.34.35-.09.38,5.82.86,11.66,1.59,17.5,2.35C294.59,515.36,294.69,515,294.44,514.94Z"/><path class="cls-5" d="M194.11,397.92s-19.54-85.71,72.54-120.38C266.65,277.54,292.16,390.34,194.11,397.92Z"/><path class="cls-8" d="M214,349.31c.35-.22.68-.43,1-.6,1.74-1,3.47-1.94,5.21-2.91l10.68-6c7-3.93,14-8,21-11.87.22-.12,0-.45-.21-.33-7.09,3.85-14.3,7.46-21.43,11.23l-10.56,5.58-4.31,2.28c3.07-5.83,6.35-11.54,10-17,4.81-7.34,10.08-14.33,15.57-21.18a.31.31,0,0,0-.45-.43,146.5,146.5,0,0,0-21.29,26.1c0-.3,0-.6,0-.89q.15-3.19.19-6.4c.06-4.18-.14-8.37,0-12.55,0-.25-.38-.24-.39,0-.17,4.12-.67,8.22-.9,12.34q-.18,3.07-.27,6.16c0,1.11-.13,2.38-.09,3.6q-2.85,4.51-5.44,9.18a158,158,0,0,0-8.23,17.26c-.09-2.14-.22-4.27-.35-6.4-.28-4.7-.85-9.37-1.05-14.06a.2.2,0,0,0-.39,0c.1,4.69-.12,9.38,0,14.08.07,2.35.14,4.69.3,7,.05.86.1,1.74.16,2.62a155.06,155.06,0,0,0-7,23.55c-1.79,8.58-2.52,17.18-3.43,25.88,0,.06.09.06.1,0a139.18,139.18,0,0,1,4.89-23.08c1.14-4,2.34-8.07,3.63-12.06,3.84-1.8,7.5-4.05,11.2-6.11s7.71-4.21,11.56-6.32c7.68-4.21,15.35-8.5,23.28-12.22.23-.11,0-.44-.21-.34-8,3.64-16.12,7.1-24,11.06-3.92,2-7.78,4.07-11.61,6.23-3.2,1.8-6.48,3.6-9.54,5.68.9-2.67,1.83-5.33,2.85-7.95A228.79,228.79,0,0,1,214,349.31Z"/><path class="cls-8" d="M206.22,329.72c0-.25-.41-.25-.39,0,.33,4.89.49,9.77,1,14.65,0,.27.44.27.43,0C207.1,339.47,206.58,334.61,206.22,329.72Z"/><path class="cls-8" d="M250.37,346.08c-5.77,2.32-11.58,4.53-17.32,6.93-.16.06-.08.32.08.26,5.82-2.18,11.56-4.55,17.35-6.81C250.72,346.37,250.6,346,250.37,346.08Z"/><path class="cls-8" d="M259.12,306.56a151.51,151.51,0,0,0-16.38,8.78.25.25,0,0,0,.26.42c5.34-3.12,10.78-6.12,16.32-8.87C259.55,306.78,259.34,306.45,259.12,306.56Z"/><rect class="cls-3" x="124.94" y="583.24" width="132.79" height="139.97"/></svg>