<svg id="Слой_1" data-name="Слой 1" xmlns="http://www.w3.org/2000/svg" viewBox="0 0 800 560"><defs><style>.cls-1{fill:#ececec;}.cls-2{fill:#192e35;}.cls-3{fill:#f29383;}.cls-4{fill:#fec703;}.cls-5{fill:#f196b8;}.cls-6{fill:#a7a7a7;}.cls-7{fill:#dcdcdc;}.cls-8{fill:#32245e;}</style></defs><rect class="cls-1" x="312.88" y="167.18" width="553.65" height="496.8"/><path class="cls-2" d="M538.88,137.21c16.4-19.23,44.4-23.87,71.62-18.39s59.69,19.2,62.7,64.62c2.45,36.88-9,72.85-8.8,114s46.57,141.39-28,190.3c-67,43.93-202.66,3.59-206.83-86.85-3.31-71.7,81.73-138,90.69-166.37S520.91,158.29,538.88,137.21Z"/><path class="cls-2" d="M526.64,177.68c-.51,20.51-3.46,41.26-12,60.64a59,59,0,0,1-8.44,13.61c-3.31,4.14-6.81,8-10.29,11.92-7.05,7.68-14,15.31-20.61,23.23-13.21,15.77-24.72,32.86-32.78,51.54a161.88,161.88,0,0,0-13,59.42,138.3,138.3,0,0,1,.91-30.89A150.45,150.45,0,0,1,438.35,337c7.26-19.62,19-37.4,32.37-53.53,6.72-8,13.89-15.69,21-23.28s14.33-14.87,18.75-23.84c4.65-8.93,7.81-18.7,10.29-28.58A246.4,246.4,0,0,0,526.64,177.68Z"/><path class="cls-2" d="M671.28,214.42c-.52,20.93-1.83,41.82-1.27,62.6A252.82,252.82,0,0,0,672.62,308c1.54,10.06,4.55,20.15,7.07,30.35s4.77,20.55,6.44,31a179.71,179.71,0,0,1,2,31.7,112.52,112.52,0,0,1-5.88,31.25,78.55,78.55,0,0,1-17.46,26.5c6.53-8.36,11.75-17.46,14.71-27.38a110.49,110.49,0,0,0,4.09-30.47c-.32-20.62-4.53-41-9.66-61.28-2.39-10.17-5.41-20.26-6.86-30.95a207.08,207.08,0,0,1-1.6-31.64C665.87,256,668.34,235.15,671.28,214.42Z"/><path class="cls-3" d="M563.56,390.41c-68.3,75.08-123.81,111.12-178.66,111.12-52.16,0-163.57-126.61-171.75-143.31-7-14.39,84.42-93.22,98.47-83.43,23.58,16.43,99.79,111.51,107.84,112,8.39.44,37.76-19.18,109.3-52.69C572.12,313.76,610.87,338.4,563.56,390.41Z"/><path class="cls-3" d="M223.65,370.71c-10.12-10.91-52.08-65-60.39-82.7s-28.52-70.25-15.64-78,20,7.19,20,7.19-5-23.56,8.66-30.16,24,17,24,17-3.39-24.57,10.73-30.18,20.56,19.84,20.56,19.84-4.15-22.32,9.43-22.05c16.33.33,19.33,42.34,30,61.16,2.41,4.27,55.11,83.14,55.11,83.14Z"/><path class="cls-2" d="M231.06,191.51c2.28,30.89,8.62,44,26.75,68.52.35.48-.28,1.12-.69.65-19.94-22.39-30.27-37.7-27.57-69.14C229.69,190,231,190,231.06,191.51Z"/><path class="cls-2" d="M200.23,201.56c5.17,31.88,11.92,46.17,29,73.24.24.38-.38.83-.66.47-19-25.16-29-40.67-29.93-73.19C198.61,200.61,200,200.11,200.23,201.56Z"/><path class="cls-2" d="M168.58,218.56c7.23,30.5,14,46.48,33.93,70.63a.58.58,0,0,1-.84.79c-22.76-22.65-31.31-42.53-34-71.1C167.49,216.93,168.12,216.64,168.58,218.56Z"/><path class="cls-3" d="M349.65,323.32s-.68-38.8-4.74-55.78-42.48-74.69-55.42-67.1c-16.7,9.8-1.08,47.48,9,64.94,0,0-38.66,22.64-33.3,52.11S349.65,323.32,349.65,323.32Z"/><path class="cls-2" d="M285.78,204.64c-8.78,19.92,5.91,42,14.4,59.65a1.8,1.8,0,0,1-1.33,2.63c-15.57,10.57-34.45,30-34.69,49.87a.45.45,0,0,1-.9.06c-2.64-21.33,14.35-42,32.14-52.43-9-18-22.75-40.75-9.8-59.88A.1.1,0,0,1,285.78,204.64Z"/><path class="cls-4" d="M445.89,364.92l54.78,102.22S575,395,586.82,364.92,585.9,313,533,329.1,445.89,364.92,445.89,364.92Z"/><path class="cls-2" d="M513.33,445.79c-2.71-5.54-5.08-11.27-7.89-16.78s-5.64-10.94-8.57-16.35c-5.92-10.93-11.83-21.84-18-32.6-3.5-6.06-7.16-12.05-11-17.91-.17-.26-.66-.07-.52.24,10,22.49,22.23,44.05,34.39,65.45,3.52,6.2,7.54,12.09,11.21,18.19C513.1,446.29,513.46,446.05,513.33,445.79Z"/><path class="cls-2" d="M586.82,364.93C575,395,500.66,467.15,500.66,467.15l-36.9-68.87L585.51,331C592.51,338.36,592.42,350.72,586.82,364.93Z"/><path class="cls-4" d="M458.37,537s-30.14,72.1-19.48,127H770.83c-10.78-149.12-85.11-277.25-129-318.7-35.42-33.46-72.68-30.47-98.6-13.35-6.13,4.05-73.51,97.18-80.81,111.92C433.63,502,458.37,537,458.37,537Z"/><path class="cls-3" d="M545.54,327.54s-20.82,59.67-8.71,62.79c29.95,7.71,70.12-41.19,72.52-46.15.6-1.27,3.25-34.7,5.24-60.7,1.28-16.72,2.27-30.37,2.27-30.37L543,278.44l2.38,45.82Z"/><path class="cls-2" d="M543,278.44l2.38,45.82c15-2.1,48.08-10.27,69.24-40.78,1.28-16.72,2.27-30.37,2.27-30.37L607.6,256Z"/><path class="cls-3" d="M487.94,214.33c-.87,23.26,1.44,42.09,7.11,54.59,13.87,30.6,42.82,36.75,55.1,37.19,8.84.32,34.5-2,53-16.13,14.41-11,23.1-30.76,28-65.53C642.45,145,606.1,118.21,570.25,115S490.92,134.1,487.94,214.33Z"/><path class="cls-2" d="M508.49,196.58a52.21,52.21,0,0,0,5.41-1.21c2.07-.49,3.77-.66,5.28-2.29a2.84,2.84,0,0,0,0-3.48c-1.8-2-4.49-2.06-7-1.57a10.44,10.44,0,0,0-6.49,3.75C503.92,193.85,506,196.9,508.49,196.58Z"/><path class="cls-2" d="M560.87,198.58a54.9,54.9,0,0,1-5.4-1.25c-2.07-.5-3.77-.69-5.27-2.32a2.87,2.87,0,0,1,.07-3.49c1.81-2,4.5-2,7-1.52a10.38,10.38,0,0,1,6.46,3.8C565.45,195.87,563.35,198.91,560.87,198.58Z"/><path class="cls-2" d="M547.78,218.61c.06-.2.42.28.4.5-.44,5.45,0,11.77,4.83,13.82.15.07.12.34-.06.3C547,232.1,546.5,223.71,547.78,218.61Z"/><path class="cls-2" d="M552.93,213.14c8.82-.24,8.66,17.41.49,17.63S545.55,213.35,552.93,213.14Z"/><path class="cls-2" d="M556.39,214.11c1.53,1,3,2.79,4.88,3,2.15.23,3.79-1.6,5.21-3.37.15-.18.3,0,.3.21,0,3.38-1.31,6.84-4.94,7.31-3.31.43-5.66-2.59-6.47-6C555.22,214.62,555.77,213.7,556.39,214.11Z"/><path class="cls-2" d="M518.57,216.31c0-.2-.43.26-.42.49.16,5.46-.57,11.75-5.51,13.56-.16,0-.14.33,0,.3C518.72,229.82,519.6,221.47,518.57,216.31Z"/><path class="cls-2" d="M513.7,210.6c-8.79-.68-9.51,17-1.36,17.58S521.07,211.17,513.7,210.6Z"/><path class="cls-2" d="M510,211.61c-1.43.88-2.87,2.52-4.54,2.56-1.94.05-3.29-1.91-4.45-3.79-.12-.2-.26,0-.28.18-.23,3.36.75,6.92,4,7.7,2.93.71,5.21-2.1,6.15-5.42C511,212.22,510.55,211.26,510,211.61Z"/><path class="cls-2" d="M547.23,261.07c-1.26,1.33-2.5,3.14-4.48,3.38s-4.15-.55-5.92-1.17a.19.19,0,0,0-.22.29,7.36,7.36,0,0,0,7,2.72c2.45-.52,3.6-2.71,4.12-5C547.84,261,547.42,260.88,547.23,261.07Z"/><path class="cls-2" d="M524.8,240.84s-1.3,8.14-1.38,12c0,.36.92.55,2.23.65.06,0,.09.05.15,0,6.77,1.2,13.67-1,17.92-6.46.27-.37-.21-.78-.57-.55-5.15,3.62-10.78,4.47-16.81,4.44-.25-1.07,2.69-13.86,2.08-13.92-2.1-.22-6.28,1.12-8.78,1.8,2.21-17,7.13-33.57,9.08-50.56a.52.52,0,0,0-1-.27c-6.39,17-9.36,36.51-12.1,54C515.26,244.19,523.24,241.46,524.8,240.84Z"/><path class="cls-2" d="M528.24,251.47s3,4.86,7.58,6.87a9,9,0,0,0,5.47.77c4.06-.74,4.44-4.38,4-7.56a21.73,21.73,0,0,0-1.41-4.92A26.11,26.11,0,0,1,528.24,251.47Z"/><path class="cls-5" d="M535.82,258.34a9,9,0,0,0,5.47.77c4.06-.74,4.44-4.38,4-7.56C541,251.66,536.5,254.23,535.82,258.34Z"/><path class="cls-2" d="M629.74,217.32c-8.74.27-33.54-21.57-38.06-63.47,0,0,6.66,37.35,10,42.61s-13.87-12.3-18-46.05c0,0-17.51,15.24-33.08,21.18s-25.36,6.67-26.61,5.62,21.59-10.6,27.28-18.52c0,0-40.7,23.64-60.16,26.92-2.25.38,1.55-34.64,30-57.18s67.67-16.9,81.71-5.62c0,0,15.35.78,33.86,21.69S639.15,217,629.74,217.32Z"/><path class="cls-3" d="M618.22,230.13s16.26-25.89,27.92-20.21.3,42.61-12.79,48.23-18.52-6.39-18.52-6.39Z"/><path class="cls-2" d="M642.62,220.43a.18.18,0,0,1,.09.35c-9.16,4.25-13.65,13.16-16.66,22.32,2.61-3.6,6.3-5.68,11.1-2.6.25.16,0,.55-.23.51-3.87-.63-6.6.17-9,3.36a40.17,40.17,0,0,0-4,7.65c-.4.85-1.93.48-1.66-.5,0-.07,0-.14.07-.22C621.44,239.39,629.88,222.26,642.62,220.43Z"/><path class="cls-3" d="M667.67,361.54c32.84,37.92,124.93,175.19,103.58,212.28-20.49,35.58-66.93,45.58-93.69-2.19-19.17-34.2-51.59-136.17-59.62-185.06C611.43,346.93,637.3,326.48,667.67,361.54Z"/><path class="cls-4" d="M637,483.08l108.85-40s-61.09-83.61-89.24-99.53-51.54-6.32-43,48.26S637,483.08,637,483.08Z"/><path class="cls-2" d="M726.45,427.55c-5.87,1.92-11.87,3.47-17.71,5.48s-11.63,4.07-17.39,6.21c-11.64,4.34-23.27,8.68-34.79,13.32-6.49,2.62-12.93,5.41-19.26,8.38-.28.13-.17.65.16.55,23.67-6.82,46.71-15.89,69.6-24.95,6.63-2.62,13-5.78,19.57-8.57C726.91,427.86,726.73,427.46,726.45,427.55Z"/><path class="cls-2" d="M643.11,480.52a40.31,40.31,0,0,0-6.31,1.94c-3-6.43-10-34.71-11.61-42-3.26-14.48-6-29.09-9.36-43.55-.09-.41-.8-.31-.75.12,1,8,2.27,16,3.67,24-1.48-3.8-2.88-7.64-4.13-11.51a.18.18,0,0,0-.34.1,120.09,120.09,0,0,0,5,14.17c1.16,14.79,14.64,61.93,15,61.76a93.38,93.38,0,0,0,9-4.64A.23.23,0,0,0,643.11,480.52Z"/><path class="cls-6" d="M589.27,201.45l-31,132.26c-1.34,3.88.65,7,4.45,6.93l59.14,12c3.8-.06,8-3.27,9.31-7.16l31-132.25c1.35-3.9-.65-7-4.44-6.94l-59.15-12C594.78,194.35,590.61,197.56,589.27,201.45Z"/><path class="cls-7" d="M594.34,202.2l-31,132.25c-1.34,3.89.65,7,4.45,6.93L627,353.43c3.79-.06,8-3.28,9.31-7.16l31-132.26c1.34-3.89-.65-7-4.45-6.93l-59.14-12C599.86,195.1,595.69,198.3,594.34,202.2Z"/><path class="cls-2" d="M613.08,207.9a5.78,5.78,0,1,1-5.75-5.8A5.79,5.79,0,0,1,613.08,207.9Z"/><path class="cls-3" d="M693.37,583.59c19.24,35.7,70.17,15.31,77.88-9.77,18.08-58.86,6.86-156.7-3.92-211.32-3.47-17.57-122.89-.16-122.18,19C646,404.46,655.65,513.62,693.37,583.59Z"/><path class="cls-3" d="M766,388.6s10.12-37.79,1-78.9C760.78,281.28,740.23,221,657.63,194c-19.59-6.4-52-1.62-23.85,20.45,20,15.68,37.48,19.57,47.47,30.81,0,0-40.56,11-46.21,30.85-2.52,8.89-8.84,33.29-11,53a81,81,0,0,0,9.74,2.95s-4,24.32,11.42,49.46Z"/><path class="cls-3" d="M756.73,283.53c-12.28-9.06-38.62-27.83-65.5-35.69-29.87-8.73-89.75-17.49-96,4.62-4.56,16.21,18,21.57,18,21.57s-25.51,1.6-26.42,17.14c-.84,14.17,16.87,17.27,16.87,17.27s-15.31,3.63-13.48,17.43c2.19,16.6,33.92,6.27,50.67,21.16C644.68,350.37,756.73,283.53,756.73,283.53Z"/><path class="cls-2" d="M687.27,280.94c-12.95-6.63-46.2-14.15-73.54-7.37-.62.16-.83.71-.24.69a305.48,305.48,0,0,1,73.69,7C687.35,281.26,687.41,281,687.27,280.94Z"/><path class="cls-2" d="M677.58,310.83c-11.76-4.57-46.38-10.79-73.84-3-.62.18-.8.75-.2.7,33.05-2.48,61.4.38,74,2.55C677.68,311.14,677.73,310.89,677.58,310.83Z"/><path class="cls-2" d="M682.45,558.81c-.87-2.89-1.75-5.77-2.7-8.64-1.94-5.84-3.65-11.75-5.37-17.66-3.49-11.93-6.85-23.89-9.77-36a639.87,639.87,0,0,1-13.32-73.19c-.83-6.81-1.52-13.63-2.28-20.44s-1-13.91-2.27-20.7c-.07-.36-3.47-5.57-4.84-8.15a71.6,71.6,0,0,1-3.7-8.3,77.06,77.06,0,0,1-4.49-18,.19.19,0,0,0-.37,0c-.35,6.33.46,14.64,2.61,20.63,2,5.55,4.78,10.81,9.19,14.87-.1.91.19,11.81.55,18s.92,12.27,1.6,18.38q2.07,18.42,5.27,36.68A563.72,563.72,0,0,0,670.2,529c.13.39.27.77.39,1.16,0,.89-.06,1.77-.06,2.67a53.39,53.39,0,0,0,.54,6.56,63.41,63.41,0,0,0,3.16,12.66.25.25,0,0,0,.47-.14,80.61,80.61,0,0,1-2.14-13c-.17-1.5-.36-3-.55-4.51,1.64,4.81,3.35,9.6,5,14.4,1.17,3.3,2.41,6.55,3.77,9.77s2.43,6.39,4,9.38c.12.24.47.06.41-.19C684.55,564.72,683.36,561.8,682.45,558.81Z"/><path class="cls-4" d="M313.76,160.56c3.84,38.39,36.74,66.28,73.47,62.26a65.2,65.2,0,0,0,38.25-18l33.45,5.13-16.74-30.23A72,72,0,0,0,446.78,146c-3.84-38.39-36.74-66.27-73.47-62.26S309.92,122.17,313.76,160.56Z"/><path class="cls-2" d="M333.77,102.84a67.76,67.76,0,0,1,25.79-16.53,65.52,65.52,0,0,1,58.77,8.27,70.29,70.29,0,0,1,20.95,23.31c10.39,18.59,12.22,42.35,4.12,62.3l-.08-1.19L460,209.29l1.23,2.23-2.43-.39-33.42-5.36.79-.25a66.4,66.4,0,0,1-33.08,17.07,56.54,56.54,0,0,1-9.25,1,62.64,62.64,0,0,1-9.29-.19,64.48,64.48,0,0,1-18-4.48,65.4,65.4,0,0,1-16.13-9.39,77.13,77.13,0,0,1-7.06-6.25,79.92,79.92,0,0,1-6.06-7.29c-7.63-10.17-12.1-22.67-13.49-35.44C311.59,139.52,319,117.51,333.77,102.84Zm-6.32,93a76.46,76.46,0,0,0,6.09,7.22,73.61,73.61,0,0,0,7.06,6.16,61.23,61.23,0,0,0,16.13,9.09,63.7,63.7,0,0,0,17.86,4.11,62.1,62.1,0,0,0,9.15,0,55.42,55.42,0,0,0,9.07-1.15,65,65,0,0,0,32-17.24l.33-.33.46.07,33.48,4.9-1.19,1.85-16.84-30.17-.32-.57.24-.63a72.58,72.58,0,0,0,4.71-30.45c-.8-10.32-3.42-20.61-8.49-29.58a71,71,0,0,0-20-22.81,64.08,64.08,0,0,0-57.36-9.07,66.86,66.86,0,0,0-25.79,15.9c-14.77,14.47-22.33,36.35-20.3,57.41C315.24,173.32,319.78,185.76,327.45,195.84Z"/><path class="cls-8" d="M343,155.41a8.1,8.1,0,1,0,8.09-8.46A8.28,8.28,0,0,0,343,155.41Z"/><path class="cls-8" d="M372,155.41a8.1,8.1,0,1,0,8.09-8.46A8.28,8.28,0,0,0,372,155.41Z"/><path class="cls-8" d="M401,155.41A8.1,8.1,0,1,0,409.1,147,8.28,8.28,0,0,0,401,155.41Z"/></svg>