<svg id="Слой_1" data-name="Слой 1" xmlns="http://www.w3.org/2000/svg" viewBox="0 0 800 385.87"><defs><style>.cls-1{fill:#472682;}.cls-2{fill:#fff;}.cls-3{fill:#ececec;}.cls-4{fill:#c9c8c8;}.cls-5{fill:#32245e;}.cls-6{fill:#c46358;}.cls-7{fill:#fec703;}.cls-8{opacity:0.1;}.cls-9{fill:#f298bc;}.cls-10{fill:#ee776b;}.cls-11{fill:#f18fb8;}.cls-12{fill:#f29383;}.cls-13{fill:#f5a8a2;}</style></defs><ellipse class="cls-1" cx="431.7" cy="165.44" rx="107.88" ry="109.56" transform="translate(-11.09 298.36) rotate(-37.68)"/><ellipse class="cls-2" cx="431.7" cy="165.44" rx="84.15" ry="85.46" transform="translate(-11.1 298.34) rotate(-37.67)"/><ellipse class="cls-1" cx="431.7" cy="165.44" rx="60.67" ry="61.62" transform="translate(-11.09 298.35) rotate(-37.68)"/><ellipse class="cls-2" cx="431.7" cy="165.44" rx="36.94" ry="37.51" transform="translate(-11.1 298.34) rotate(-37.67)"/><path class="cls-3" d="M422.92,179.37a16.77,16.77,0,0,1-5.24-23,16.37,16.37,0,0,1,22.8-4.91,16.77,16.77,0,0,1,5.24,23A16.37,16.37,0,0,1,422.92,179.37Z"/><rect class="cls-4" x="420.92" y="120.71" width="178.77" height="1.86" transform="translate(5.65 264.93) rotate(-29.26)"/><polygon class="cls-4" points="589.07 69.96 588.98 70.39 586.89 77.69 600.97 69.81 603.23 62.03 589.07 69.96"/><path class="cls-4" d="M609.58,73.38l-7.71-2L587.79,79.3a34.88,34.88,0,0,1,7.68,2Z"/><polygon class="cls-4" points="431.35 169.34 428.49 163.91 433.41 157.62 434.13 164.33 439.45 168.44 431.35 169.34"/><path class="cls-5" d="M577.64,184.54s-4.11-9.23-11.87-10.06-9.73,3.84-14.51,3.68-14.36-3.49-20.2.16-5.91,13.43-8.73,15.8-10.39,1.31-13.5,8c-3.62,7.76.49,13.63-.58,17.8-1.78,6.93-7.78,11.65-5.53,20.6,2.41,9.64,10.15,11,14.62,14.82,4.29,3.7,3.45,13.21,14.2,16s15-3.56,21.81-4.79,15.18,4.83,22.89,1.56,6.87-10.31,9.44-13.41,8.08-2.17,11.41-7.86-1-12.27-1-14.75c.08-4.25,3.33-5.92,3.5-12s-6.14-11.51-7.2-13.57c-2.53-4.94,2.58-13.24-2.11-18.22C584.36,182,577.64,184.54,577.64,184.54Z"/><path class="cls-5" d="M527.23,182.73c-1.33,4.15-2.43,9.3-7.11,10.88-6.78,1.71-13.87,5.49-13.92,13.33-.4,4.34,2.45,8.53,1.73,13.07-1.53,4-4.45,7.31-5.47,12a14.9,14.9,0,0,0,.26,8.52c-2.8-5.46-.77-12,1.91-17.06.34-.67,1.14-2.27,1.45-2.92.68-1.51.29-3.1-.14-4.81-3.55-9.55-1.1-19.14,9.56-22.08,2.73-.86,5.71-1,7.69-3.29,1.83-2.1,2.75-5,4-7.62Z"/><path class="cls-5" d="M570.06,269c11.26,0,12.23-2.7,15.83-12.54a5.59,5.59,0,0,1,2.86-2.5c4-1.73,7.85-3.63,9-8.07,1.62-4-.3-8.38-1.46-12.6a49.49,49.49,0,0,1,2.64,6.15c1.46,4.34.23,9.9-3.47,12.83-2.36,2.06-5.38,2.64-7.66,4.45a17.29,17.29,0,0,0-1.58,3.54c-2.61,8.29-8.06,10.16-16.2,8.74Z"/><path class="cls-6" d="M540.59,290.79c-27.12,29.36-81.85,77.54-93.69,57.6-16.47-27.75-24.85-84.7-27.33-105.63-1.4-11.85,54.58-20.41,55.75-9.68,1.57,14.5,5.28,53.91,8.21,59.42,1.55,2.91,36.14-13.17,53.59-20.49C562.29,261.47,549.25,281.41,540.59,290.79Z"/><path class="cls-6" d="M466.12,236.16c-.21-6.44-2.91-42-4.9-50.2-3.64-15.09-10.75-29.87-17.25-29.77-5.19.09-5.63,9.35-5.63,9.35s-5.62-8.76-11.83-6.63-2.23,12.52-2.23,12.52-6.43-8.58-12.47-6-.29,12.35-.29,12.35-5.51-8.12-9.6-3.91c-4.92,5.07,6.93,18.89,9.39,27.91.37,1.37,2.73,23.42,6.81,37.35a24.71,24.71,0,0,0,7.37,11.2Z"/><path class="cls-5" d="M410.75,177.68c8.7,10.19,10.74,16.15,12.62,29.19,0,.26.42.26.41,0-.68-12.94-2.16-20.79-12.55-29.63C410.72,176.8,410.34,177.2,410.75,177.68Z"/><path class="cls-5" d="M423.65,171c7.14,12,8.88,18.61,10.74,32.32a.18.18,0,0,0,.35,0c-.7-13.61-1.72-21.51-10.43-32.55C423.91,170.25,423.32,170.47,423.65,171Z"/><path class="cls-5" d="M438.41,166c5.76,12.27,7.78,19.49,7.52,33a.25.25,0,0,0,.5,0c1.61-13.79-.85-22.82-7.63-33.21C438.34,165.16,438,165.23,438.41,166Z"/><path class="cls-6" d="M472.8,236.82s6.94-15.27,8.51-22.66-2.72-37-9.18-36.49c-8.34.73-9.24,18.34-8.55,27,0,0-19.3,1.66-22.68,14.16S472.8,236.82,472.8,236.82Z"/><path class="cls-5" d="M463.41,198.43c.3,2.21.51,4.43.72,6.65l-.47.12A51.76,51.76,0,0,0,441,217.67a46.66,46.66,0,0,0-5.7,6.7,30.23,30.23,0,0,1,4.74-7.6,38.6,38.6,0,0,1,23.42-12.58l-.43.52c.08-2.09.17-4.18.34-6.28Z"/><path class="cls-7" d="M484.69,245.06l-68,22s16.3,85.41,29.91,89.85c21.69,7.07,71.17-36.73,89.88-56.56s30.88-44.36-3.07-28.27c-29.3,13.88-46.74,20.7-47.35,20.17S484.69,245.06,484.69,245.06Z"/><path class="cls-5" d="M486,290.76a153.41,153.41,0,0,1-.71,20.33c-.28,3.36-.73,6.69-1.19,10a74.05,74.05,0,0,1-1.91,9.82.1.1,0,0,1-.2-.05c0-3.33.38-6.72.72-10s.61-6.7,1-10c.69-6.69,1.12-13.41,2-20.07A.16.16,0,0,1,486,290.76Z"/><path class="cls-5" d="M479.42,260.94c-3.12.75-6.19,1.77-9.26,2.71s-6.14,1.9-9.19,2.91c-6.1,2-12.19,4.05-18.26,6.18-1.66.58-3.31,1.16-5,1.77s-3.45,1.53-5.22,2.17a.11.11,0,0,0,.08.21c1.5-.46,3.08-.72,4.6-1.15s3.14-.94,4.7-1.44q4.59-1.47,9.17-3c6.1-2,12.2-4,18.23-6.24,3.41-1.25,6.89-2.4,10.22-3.85A.16.16,0,0,0,479.42,260.94Z"/><path class="cls-7" d="M536.45,300.34c-18.71,19.85-68.17,63.64-89.86,56.58-5-1.66-10.49-14.48-15.31-30L553.7,270.9a8.52,8.52,0,0,0,1,1.29C554,278.7,546.07,290.14,536.45,300.34Z"/><path class="cls-7" d="M515.69,354.63l-5.5,33.52L622.41,388s-21.72-95-40.12-114.42c-14.63-15.4-31.5-14-42.1-2.89-2.68,2.81-29.45,43-32.63,59.48C504.8,344.67,515.69,354.63,515.69,354.63Z"/><g class="cls-8"><path class="cls-7" d="M540.44,350.75a46,46,0,0,0-11.29,1.07c-1.9.46-3.8,1.07-5.71,1.74-1,.34-1.89.62-2.84.9a7.38,7.38,0,0,1-2.94.39c-.08,0-.12.21,0,.23a10.79,10.79,0,0,0,2.66.43,11.44,11.44,0,0,0,2.69-.36c1.93-.43,3.86-1,5.79-1.49a101,101,0,0,1,11.62-2.36C540.55,351.27,540.62,350.76,540.44,350.75Z"/><path class="cls-7" d="M557.68,355.57a112.68,112.68,0,0,0-14.3-1.36c-2.4-.06-4.78,0-7.18.2-1.14.08-2.29.19-3.43.31s-2.5.45-3.75.56c-.13,0-.14.24,0,.24,1.19-.07,2.39.09,3.57.11l3.59,0c2.39,0,4.77.09,7.16.09,4.79,0,9.55.07,14.33.27C557.92,356,557.92,355.61,557.68,355.57Z"/></g><path class="cls-6" d="M541.07,269.8c-1.65,2.34-10.44,25.06-9,26.29s21.84,2.87,24,1.55,8.45-28.78,8.4-30.57S541.07,269.8,541.07,269.8Z"/><path class="cls-6" d="M564.41,267.07c-.35,2.16-9.51,16.69-19.26,16.94-3.18.07-4.35-17.25-4.35-17.25l-.38-1.26-5.29-17.63,20.07-15,2.91-2s1.13,4.92,2.48,11.06c.06.28.13.57.19.87s.17.67.23,1c.22.91.43,1.85.62,2.78.15.72.3,1.41.43,2.16s.28,1.48.43,2.23C563.81,258.4,564.54,266.15,564.41,267.07Z"/><path class="cls-5" d="M560.59,241.91a36.9,36.9,0,0,1-20.17,23.59l-5.29-17.63,20.07-15,2.91-2S559.24,235.77,560.59,241.91Z"/><path class="cls-6" d="M517.43,208.61c-13.38,29.39,2.72,40.73,9.06,43.6,5.76,2.62,25.7,10.78,42-17.08s6.9-43.37-5.95-50S530.81,179.21,517.43,208.61Z"/><path class="cls-5" d="M523.16,208.13a20.51,20.51,0,0,0,2.2.34,3.68,3.68,0,0,0,2.32-.1,1.13,1.13,0,0,0,.48-1.31,2.86,2.86,0,0,0-2.39-1.61,4.19,4.19,0,0,0-3,.47A1.22,1.22,0,0,0,523.16,208.13Z"/><path class="cls-5" d="M543.66,214.94a20.76,20.76,0,0,1-1.89-1.2,3.65,3.65,0,0,1-1.69-1.58,1.16,1.16,0,0,1,.5-1.31,2.83,2.83,0,0,1,2.86.35,4.17,4.17,0,0,1,1.94,2.31A1.22,1.22,0,0,1,543.66,214.94Z"/><path class="cls-5" d="M525.72,214.74c0-.08-.2,0-.23.13-.65,2.1-1.76,4.39-3.87,4.43-.07,0-.1.11,0,.12C524,219.9,525.43,216.84,525.72,214.74Z"/><path class="cls-5" d="M524.61,211.93c-3.25-1.42-5.84,5.2-2.82,6.5S527.34,213.11,524.61,211.93Z"/><path class="cls-5" d="M523.06,211.82c-.66.15-1.42.58-2.06.38s-1-1.16-1.19-2c0-.09-.1,0-.13,0-.53,1.25-.63,2.73.49,3.44s2.26-.11,3.05-1.25C523.37,212.19,523.33,211.76,523.06,211.82Z"/><path class="cls-5" d="M537.7,219.5c0-.08.13.15.09.24-.83,2-1.43,4.51.18,5.89,0,0,0,.14-.06.1C535.75,224.57,536.59,221.29,537.7,219.5Z"/><path class="cls-5" d="M540.34,218c3.41,1,1.2,7.72-2,6.82S537.49,217.21,540.34,218Z"/><path class="cls-5" d="M541.61,218.93c.41.53.73,1.36,1.35,1.61s1.51-.26,2.21-.81c.07-.06.1,0,.08.11-.39,1.3-1.26,2.5-2.58,2.34s-1.67-1.52-1.55-2.9C541.14,219,541.44,218.72,541.61,218.93Z"/><path class="cls-5" d="M532,236.37c-.62.39-1.29,1-2.08.86a5.87,5.87,0,0,1-2.19-1.06.08.08,0,0,0-.12.09,2.94,2.94,0,0,0,2.47,1.77,2.34,2.34,0,0,0,2.11-1.52C532.25,236.4,532.09,236.31,532,236.37Z"/><path class="cls-5" d="M525.34,226.21s-1.34,3-1.76,4.52c0,.14.3.31.8.48,0,0,0,0,.06,0a7.36,7.36,0,0,0,7.63-.68.16.16,0,0,0-.17-.27,11.14,11.14,0,0,1-7,0c0-.44,2.46-5.12,2.23-5.21a13.88,13.88,0,0,0-3.6-.2c2.6-6.4,6.2-12.33,8.7-18.74a.22.22,0,0,0-.37-.21c-4.21,5.95-7.37,13.25-10.22,19.79C521.28,226.54,524.67,226.29,525.34,226.21Z"/><path class="cls-5" d="M524.68,230.71a8.93,8.93,0,0,0,2.46,3.79,4,4,0,0,0,2.25.95c1.81.14,2.39-1.37,2.54-2.78a9.68,9.68,0,0,0,0-2.26A11.59,11.59,0,0,1,524.68,230.71Z"/><path class="cls-9" d="M527.14,234.5a4,4,0,0,0,2.25.95c1.81.14,2.39-1.37,2.54-2.78C530.09,232.23,527.9,232.82,527.14,234.5Z"/><path class="cls-5" d="M567.93,236.79a13.36,13.36,0,0,1-4.19-12.51,34.75,34.75,0,0,1-10.5-14.9c0,.71.2,5.77.37,8.35-18.7-9.35-20.48-26.22-20.48-26.22-8.24,4.56-10.69,8.29-12.2,10.06,0,0,3.32-12.16,11.88-18.49,10.47-7.76,20.34-2.89,20.34-2.89A29,29,0,0,1,578,196.39C586.85,214,567.93,236.79,567.93,236.79Z"/><path class="cls-5" d="M539.53,210.16a37.92,37.92,0,0,0,9.07,6.62s0,0,0,0a32.3,32.3,0,0,1-12-12.92,30.43,30.43,0,0,1-2.56-7.18,21.24,21.24,0,0,1-.47-8.28.16.16,0,0,0-.31-.06,24.8,24.8,0,0,0-.66,8.23,22.46,22.46,0,0,0,2.52,7.8,25.67,25.67,0,0,0,4.38,5.83"/><path class="cls-6" d="M562.83,235.26s10-7.15,13.48-3.25-6.4,15.9-12.13,16a5.46,5.46,0,0,1-5.92-5.21Z"/><path class="cls-5" d="M573.4,235.38c.08,0,.06.14,0,.15-4.06.18-7.1,2.81-9.62,5.76,1.53-.94,3.22-1.15,4.53.73.07.09-.07.21-.16.15a3.37,3.37,0,0,0-3.88-.13,16.2,16.2,0,0,0-2.67,2.23c-.27.26-.79-.12-.54-.44l.06-.07C562.62,239.2,568.38,234.12,573.4,235.38Z"/><path class="cls-7" d="M577.64,270c35.37,32.77,66.56,83.35,64.5,112.06-2,28.35-11.68,24.8-14.47,24.39-17-2.52-49-80.92-58.77-114C560,262.23,568.89,261.89,577.64,270Z"/><path class="cls-5" d="M606.73,382.47c-1.69-3.74-3.44-7.43-5.08-11.18l-5-11.2c-3.3-7.48-6.67-14.93-9.86-22.46s-6.49-15-9.63-22.56c-1.58-3.77-3.12-7.55-4.6-11.37s-2.93-7.63-4.34-11.48a217.68,217.68,0,0,0,7.52,23.41c2.85,7.69,6,15.24,9.23,22.79,3.35,7.48,6.7,14.95,10.31,22.31S602.58,375.4,606.73,382.47Z"/><path class="cls-5" d="M571.42,302.05a34.79,34.79,0,0,0-2-3.89c-.38-.62-.74-1.24-1.14-1.85s-.78-1.23-1.24-1.83a10.87,10.87,0,0,0,1.53,4.18A12.14,12.14,0,0,0,571.42,302.05Z"/><rect class="cls-7" x="470.77" y="321.82" width="76.83" height="100.02" transform="translate(-97.15 198.96) rotate(-20.23)"/><rect class="cls-5" x="470.77" y="321.82" width="76.83" height="100.02" transform="translate(-97.15 198.96) rotate(-20.23)"/><rect class="cls-4" x="474.12" y="319.63" width="36.42" height="11.04" transform="translate(-81.9 189.6) rotate(-20.16)"/><polygon class="cls-4" points="499.76 316.55 495.55 318.1 493.8 313.32 483.57 317.08 485.32 321.85 481.11 323.4 477.92 314.7 496.63 307.83 499.76 316.55"/><path class="cls-6" d="M634.93,406c-11.46,6.45-30.27,3-80.71-10.15-7-1.82-7.4-54.53.16-53,9.51,2,46,11.64,48.58,12.69C624.72,364.34,642.7,401.59,634.93,406Z"/><path class="cls-6" d="M573.82,351.16s-17.32-11.25-28.26-14.34c-14.64-4.14-29-1.69-34.93-.3-12.42,2.9-40.44,18.5-37.35,27.35,2.79,8,30.63-9.38,30.63-9.38s-31.31,13.06-26.17,22.09,36.3-13,36.3-13-31.87,14.13-25.1,22.61c5.12,6.4,34.47-12,34.47-12s-27.31,12.34-22.33,19.15c5.5,7.53,33.66-7.72,33.66-7.72,15.57,15.19,29.51,15.7,39.27,15.16C576.38,400.69,573.82,351.16,573.82,351.16Z"/><path class="cls-5" d="M514.44,349.29c-3.73,1.4-7.52,2.79-11.11,4.52s-7.14,3.58-10.56,5.63a68.86,68.86,0,0,0-12.54,9.26c7.23-5.81,20-12.2,23.61-13.92s7.09-3.63,10.68-5.36C514.61,349.38,514.53,349.25,514.44,349.29Z"/><path class="cls-5" d="M520.92,362.16c-4.69,2-9.42,3.8-14,6s-8.74,4.67-13.16,7.17c-.34.19-.12.31.23.13,4.51-2.32,8.87-4.12,13.41-6.39s9-4.71,13.59-6.8A.06.06,0,1,0,520.92,362.16Z"/><path class="cls-5" d="M528.46,372.21c-7.32,2.68-14.14,6.7-20.74,10.82-.33.2,0,.32.32.13,6.82-3.72,12.15-6.69,20.51-10.7C528.68,372.4,528.61,372.15,528.46,372.21Z"/><path class="cls-7" d="M571.37,344.94l6.75,62.32s50.12,9.11,58.1-2.09c7-9.8-12.67-40.09-27.91-48.38C602,353.33,571.37,344.94,571.37,344.94Z"/><path class="cls-5" d="M571.59,347l-.12-2.09-.13.11c5.17,1.65,10.34,3.27,15.49,5s10.28,3.38,15.31,5.33a61.26,61.26,0,0,1,7.35,3.23,46.92,46.92,0,0,1,6.6,4.51,51.28,51.28,0,0,1,10.56,12.15,42.54,42.54,0,0,0-9.81-13,38.22,38.22,0,0,0-6.67-4.84,62.87,62.87,0,0,0-7.48-3.44c-5.11-1.93-10.29-3.57-15.5-5.1s-10.49-2.84-15.8-4l-.15,0,0,.14Z"/><path class="cls-5" d="M585.94,355.32c.15,3.13.56,6.27.89,9.39s.69,6.24,1.09,9.36c.8,6.23,1.63,12.45,2.54,18.66.25,1.7.51,3.4.79,5.1s.83,3.59,1.11,5.41a.11.11,0,0,0,.22,0c-.17-1.53-.12-3.09-.26-4.63s-.32-3.18-.51-4.77q-.55-4.68-1.14-9.35c-.79-6.23-1.61-12.46-2.61-18.66-.56-3.5-1-7.05-1.8-10.52A.16.16,0,0,0,585.94,355.32Z"/><path class="cls-10" d="M296.11,279.32C312.85,313,353.94,372.25,370,357.47c24-22.11,41.31-76.81,47.23-96,3.32-10.73-50.52-22.48-53.44-12.75-4.16,13.85-13.46,46.16-17.57,50.37-2.17,2.22-28.19-24.63-42-35.86C284.25,247.08,290.76,268.56,296.11,279.32Z"/><path class="cls-10" d="M375.18,254.79c-.37-6-1-39.62.15-47.48,2.09-14.47,7.45-29,13.55-29.44,4.87-.38,6.1,8.27,6.1,8.27s4.5-8.72,10.51-7.27,3.19,11.55,3.19,11.55,5.27-8.62,11.16-6.74,1.36,11.55,1.36,11.55,4.45-8.1,8.66-4.51c5.06,4.31-4.83,18.32-6.33,27-.23,1.32-.49,22.2-3.09,35.62a23.21,23.21,0,0,1-5.92,11.15Z"/><path class="cls-5" d="M421.92,195.08c-7.25,10.32-8.64,16.08-9.25,28.48,0,.24-.37.28-.39,0-.5-12.2.19-19.68,9.15-28.89C421.87,194.25,422.26,194.59,421.92,195.08Z"/><path class="cls-5" d="M409.24,190c-5.64,11.87-6.68,18.22-7.21,31.25,0,.18-.33.19-.33,0-.55-12.82-.3-20.32,6.9-31.44C408.92,189.27,409.5,189.43,409.24,190Z"/><path class="cls-5" d="M395,186.58c-4.31,12-5.58,18.95-4.14,31.63a.23.23,0,0,1-.46.08c-2.72-12.78-1.21-21.46,4.22-31.8C395,185.78,395.23,185.82,395,186.58Z"/><path class="cls-10" d="M369,256s-7.85-13.71-10-20.49-.73-35,5.37-35c7.89-.06,10.29,16.37,10.41,24.58,0,0,18.24-.15,22.51,11.27S369,256,369,256Z"/><path class="cls-5" d="M374.39,219.19c.36,1.95.63,3.9.9,5.85l-.47-.48a36.06,36.06,0,0,1,23.09,9.73A28.15,28.15,0,0,1,403,241a46.14,46.14,0,0,0-6-5.75,49.3,49.3,0,0,0-22.29-9.68l-.48-.08c0-2.11,0-4.21.12-6.32Z"/><path class="cls-1" d="M358.72,252.78l55.65,37.88s-37.33,72.87-50.8,73.28c-21.47.66-54.6-52-66.26-74.88s-16.17-48.26,10.26-24.74c22.8,20.29,36.76,31.07,37.45,30.76S358.72,252.78,358.72,252.78Z"/><path class="cls-5" d="M345.46,293.74a146,146,0,0,0-4.73,18.57c-.64,3.1-1.11,6.23-1.58,9.37a70,70,0,0,0-.86,9.37c0,.12.16.12.19,0,.84-3,1.43-6.18,2-9.27s1.22-6.22,1.79-9.33c1.15-6.22,2.53-12.41,3.49-18.67C345.79,293.6,345.53,293.56,345.46,293.74Z"/><path class="cls-5" d="M359.28,268.53c2.62,1.51,5.13,3.24,7.66,4.9s5,3.34,7.53,5.06c5,3.43,9.95,6.89,14.86,10.41,1.35,1,2.69,1.93,4,2.92s2.71,2.29,4.14,3.34a.1.1,0,0,1-.12.17c-1.24-.82-2.6-1.47-3.85-2.26s-2.59-1.68-3.87-2.54q-3.76-2.55-7.5-5.11c-5-3.42-10-6.88-14.83-10.46-2.75-2-5.59-4-8.22-6.18A.15.15,0,0,1,359.28,268.53Z"/><path class="cls-7" d="M297.32,289.05C309,311.94,342.09,364.6,363.56,364c5-.17,13.31-10.32,21.76-23l-95.8-83a7.68,7.68,0,0,1-1.28.89C287.21,264.86,291.32,277.28,297.32,289.05Z"/><path class="cls-3" d="M217.88,426.86c.33.34,137-5.67,138.19-7.13,1.65-2.06-41.37-142.65-56.26-160.28-3.19-3.77-13.13-4.4-21.5-2.95a37.38,37.38,0,0,0-6.42,1.62.56.56,0,0,1-.21.07,15.6,15.6,0,0,0-4.65,2.56c-22.53,19.79-34,80-37.64,99.85C223.29,393.28,216.69,425.63,217.88,426.86Z"/><path class="cls-1" d="M278.31,256.5s27.91,50.83,30.59,66.5,4.25,110.26,4.25,110.26l-105.65,4.9s15.94-56,16-59.5c0,0,12.1-64.59,25.75-92.59C264.77,254.24,278.31,256.5,278.31,256.5Z"/><path class="cls-1" d="M300.67,258.69s20.26,52.95,21.49,58S348,430.8,348,430.8l12.33-7.91L347,377.62S311.51,271.28,300.67,258.69Z"/><path class="cls-10" d="M300.59,276.38c-6.39,1.52-21.94-7.77-26.51-16.91-.31-.63,1.9-21.72,2.08-26.64,0-1,30.58,8.65,30.58,8.65s-3.42,10.2-3.68,18.78a11.06,11.06,0,0,0,.13,2c0,.09,0,.2,0,.33C303.71,266.48,307.44,274.76,300.59,276.38Z"/><path class="cls-5" d="M303.2,262.29c0,.1,0,.21,0,.33a20.47,20.47,0,0,1-3.16.05c-18.15-1.08-22.1-24-22.81-29.79,5.46,1,29.49,8.6,29.49,8.6s-3.42,10.21-3.69,18.79A11.92,11.92,0,0,0,303.2,262.29Z"/><path class="cls-10" d="M265.28,197.65c-2,11.27,7.66,42,16.26,48,12.46,8.76,30.93,7.46,37.88-7.08,6.74-14.09-6.52-53.86-15.94-59.15C289.6,171.62,268.19,181,265.28,197.65Z"/><path class="cls-3" d="M319.43,238.57c-6.95,14.53-25.42,15.84-37.89,7.07-3.48-2.44-7.14-8.95-10.12-16.56l5.17-13.3s5,8.68,9.41,10.88c8,3.93,19.53,1,22.13-5.84l3.57-.5s6.43,3.72,8.58-2.78C321.7,226,321.74,233.76,319.43,238.57Z"/><path class="cls-3" d="M270.46,224.56c4.79.21,6.42-4.22,6.92-7.3s-4.46-20-3.24-24.72,5.36-8.15,9.32-7.91,11.7,3,14.38,2.11.16-6,2.06-6.41c4.2-1,11,8.35,12.85,12.77,0,0-4-20.4-26.3-16.65-19.92,3.36-21.86,17.51-22.19,23.82C263.61,212.34,270.46,224.56,270.46,224.56Z"/><path class="cls-10" d="M276.87,221.48s-8.55-9.1-12.78-5.91,3.22,17.09,8.9,18.32a5.55,5.55,0,0,0,6.93-4Z"/><path class="cls-5" d="M266.33,219.5c-.09,0-.09.13,0,.15,4,1,6.5,4.2,8.42,7.64-1.33-1.24-3-1.78-4.65-.18-.09.09,0,.23.13.19a3.41,3.41,0,0,1,3.88.64,16.4,16.4,0,0,1,2.22,2.75c.22.31.81,0,.62-.33l0-.08C276.3,225.44,271.57,219.24,266.33,219.5Z"/><path class="cls-5" d="M297.56,211.85c0-.08-.14.15-.11.23.71,2,1.17,4.52-.49,5.78,0,0,0,.14.05.11C299.2,216.94,298.55,213.68,297.56,211.85Z"/><path class="cls-5" d="M295,210.26c-3.41.77-1.61,7.53,1.55,6.81S297.9,209.61,295,210.26Z"/><path class="cls-5" d="M309.76,209c0-.08.19.06.21.15.5,2.11,1.41,4.44,3.49,4.63.07,0,.09.12,0,.12C311.08,214.15,309.89,211,309.76,209Z"/><path class="cls-5" d="M311.05,206.28c3.3-1.15,5.36,5.53,2.3,6.6S308.29,207.25,311.05,206.28Z"/><path class="cls-5" d="M292.43,209.68c.95-.24,1.79-.63,2.71-1a4.67,4.67,0,0,0,2.57-1.51,1.49,1.49,0,0,0-.24-1.79,3.7,3.7,0,0,0-3.7-.37,5.48,5.48,0,0,0-3.1,2.34A1.58,1.58,0,0,0,292.43,209.68Z"/><path class="cls-5" d="M312.1,201c-1,.09-1.9,0-2.87,0a4.7,4.7,0,0,1-2.93-.54,1.48,1.48,0,0,1-.39-1.77,3.66,3.66,0,0,1,3.35-1.6,5.32,5.32,0,0,1,3.71,1.14A1.58,1.58,0,0,1,312.1,201Z"/><path class="cls-5" d="M300.45,231.79a3.26,3.26,0,0,0,2.09.76,5.61,5.61,0,0,0,2.11-1.13.08.08,0,0,1,.12.09,2.93,2.93,0,0,1-2.35,1.84,2.3,2.3,0,0,1-2.14-1.41C300.21,231.82,300.36,231.74,300.45,231.79Z"/><path class="cls-5" d="M301.41,224.84a7.37,7.37,0,0,0,5.6,1.91,9.32,9.32,0,0,0,2.59-.57,2.53,2.53,0,0,0,.48-.19,3.25,3.25,0,0,0,.44-.19.54.54,0,0,0,.29-.58h0a.76.76,0,0,0-.08-.21v0l-.05-.18c-.39-1.62-1.2-4-1.2-4,.67.13,4,.69,3.76-.14-2.27-6.86-4.8-14.49-8.51-20.84a.2.2,0,0,0-.37.16c1.93,6.68,5,13,7.05,19.65a12.58,12.58,0,0,0-3.64-.12c-.21.12,1.65,4.62,1.76,5.37a.28.28,0,0,1,0,.08c-2.62,1.06-4.87.79-8-.33C301.37,224.52,301.24,224.71,301.41,224.84Z"/><path class="cls-5" d="M308.48,226.3a8.55,8.55,0,0,1-2.85,3.24,3.93,3.93,0,0,1-2.26.59c-1.74-.12-2.07-1.63-2-3a9.16,9.16,0,0,1,.36-2.13A11.08,11.08,0,0,0,308.48,226.3Z"/><path class="cls-11" d="M305.63,229.54a3.93,3.93,0,0,1-2.26.59c-1.74-.12-2.07-1.63-2-3C303.16,227,305.15,227.85,305.63,229.54Z"/><polygon class="cls-3" points="303.32 261.09 301.44 274.38 274.43 251.16 272.93 258.68 299.83 285.83 301.99 275.88 308.61 281.37 306.8 266.67 303.32 261.09"/><path class="cls-5" d="M272.93,258.68c9.23,8.78,18.26,17.77,27.22,26.83l-.76.22,2.21-9.93.15-.65.5.43,6.56,5.56-.5.27c-.56-4.91-1-9.83-1.51-14.74.76,5.13,1.54,10.27,2.22,15.42l-.6-.49-6.68-5.41.64-.22-2.11,9.95-.17.81c-9.18-9.24-18.28-18.54-27.17-28.05Z"/><path class="cls-1" d="M273.07,259.53l-.52-8.35s14.07,11.39,15.3,13.45,5.06,24.84,5.06,24.84S276.4,268.9,273.07,259.53Z"/><path class="cls-10" d="M255.12,308.58c-14.37-21.49-27.56-48.62-44.92-79-19.37-33.88-35.81-68.94-39.84-76.31-5.18-9.47,53.34-14.37,55.9-7.41,1.63,4.46,15,38.17,27.1,68.95s18.56,65.28,23.28,87.33C282.09,327.6,265.71,324.42,255.12,308.58Z"/><path class="cls-10" d="M162.59,137.49c1.69,11.07,14,32.37,18.94,36.36s41.84-15.72,42.93-22.15-7.48-43.27-15.88-51S160.85,126,162.59,137.49Z"/><path class="cls-10" d="M219.11,115.19c-4.65,3.68-7.43-.33-7.43-.33s5.41,10.16.89,14.91c-4.38,4.56-10.37-2.68-10.8-3.2.28.54,5,10,0,14.31-5.24,4.46-10-3.84-10.31-4.38.11.6,1.37,8.46-3.2,10.86-7.86,4.12-11.65-15.91-17.75-19.71,0,0-7.61,9.61-7.89,9.84,0,0-4-19,1.58-26.92a6.2,6.2,0,0,1,7.42-2.28s-2-6,1.9-9.49c2-1.79,6.63-.21,6.63-.21s-1.38-4.86,2.25-7.77c2.89-2.33,7.1-.38,7.1-.38S187.4,90.75,193,87c9.7-6.55,22.5,20.58,27.57,21.57C223.11,109,221.14,113.59,219.11,115.19Z"/><path class="cls-5" d="M190.18,90.65c-.08-.07,0-.2.09-.14,9.19,5.63,17.56,14.63,21.72,24.64.14.32-.18,1.95-.35,1.59C207.24,107.79,198.86,98.08,190.18,90.65Z"/><path class="cls-5" d="M180.05,98.43c-.1-.08,0-.24.15-.17,9.44,5.85,18.58,16.25,22,28.35.12.42-.19.91-.36.44C199,119.18,187.89,105.08,180.05,98.43Z"/><path class="cls-5" d="M191.38,137.43c-3.75-11.47-10.8-20.59-19.38-28.92-.12-.11.05-.26.17-.19,5.31,2.93,10.23,8.81,13.67,13.7a31.86,31.86,0,0,1,5.94,15.28C191.8,137.52,191.46,137.68,191.38,137.43Z"/><path class="cls-5" d="M211.88,114.91c.16.39-1.11,0-1,.43,1.61,4.35,4.11,12.28.86,14.39-2.6,1.69-6.67-.64-7.88-2.15l-3.05-3.79,1.55,4.62a20,20,0,0,1,1.08,6.36,7.13,7.13,0,0,1-2,5.45,4.07,4.07,0,0,1-5.1.51,12.4,12.4,0,0,1-4.05-4.65L189.55,131l.93,5.67a18.55,18.55,0,0,1,.18,4.77,7.62,7.62,0,0,1-1.5,4.18,3.63,3.63,0,0,1-3.64,1.27,8.07,8.07,0,0,1-3.61-2.74,64.53,64.53,0,0,1-5.42-8.4c-.85-1.46-1.71-2.92-2.63-4.34a12.1,12.1,0,0,0-3.38-3.77,13.08,13.08,0,0,1,3,4c.8,1.47,1.54,3,2.28,4.5a53.87,53.87,0,0,0,5.09,8.87,9.39,9.39,0,0,0,4.22,3.43,5.19,5.19,0,0,0,5.45-1.67,9.37,9.37,0,0,0,2-5.14,21.08,21.08,0,0,0-.12-5.32l-1.81.6a14.11,14.11,0,0,0,4.72,5.54,5.92,5.92,0,0,0,3.89.91,6.72,6.72,0,0,0,3.55-1.7,9,9,0,0,0,2.6-6.9,21.53,21.53,0,0,0-1.31-7l-1.5.83c1.61,1.87,5.87,5,10.24,2.86C218,127.89,213,116.86,211.88,114.91Z"/><path class="cls-10" d="M224.46,151.7s11.77-28.65,8.27-38.53-26.16-15-34.73-15.53c-11.82-.75-11.17,7.8-6.2,11.84,5.75,4.68,16.34,8.56,17.07,8.84,0,0-13.67,12-11.49,25S224.46,151.7,224.46,151.7Z"/><path class="cls-5" d="M214.48,101c-6.68-1.41-13.75-3.33-20.53-2.46-5.18,1-6.15,5.43-2.65,9.13a26.23,26.23,0,0,0,5.32,4.13,51.66,51.66,0,0,0,14,6.23,32.35,32.35,0,0,0-12.27,16.68,31.2,31.2,0,0,0-1.22,6.47,28.58,28.58,0,0,1,6.46-18.64,28.09,28.09,0,0,1,4.77-4.86l.28,1.46a47.78,47.78,0,0,1-13-5.78c-3-1.94-6.33-4.18-7.7-7.73-1.73-4.18,1.59-8,5.74-8.5,7.18-.63,14.09,1.66,20.8,3.87Z"/><path class="cls-1" d="M174.48,177.92l58.38-30.37s21.72,55.74,28.56,75,15.07,67.51,17.12,85.14-10.45,18.76-22.43,3.65S215,240,213.66,238.44,174.48,177.92,174.48,177.92Z"/><path class="cls-5" d="M209.61,175.88c-3.65,2-7.26,4.08-10.87,6.16-1.73,1-3.47,2-5.17,3s-3.8,2.15-5.54,3.41a.12.12,0,0,0,.11.21c2-.79,3.91-1.91,5.85-2.83s3.57-1.81,5.34-2.73c3.69-1.93,7.38-3.85,11-5.86,7.3-4,14.47-8.25,21.6-12.57a.15.15,0,0,0-.15-.27C224.34,168.12,216.93,171.89,209.61,175.88Z"/><path class="cls-5" d="M248.39,187.79c6.27,15.73,13.35,31.27,17.9,47.62a469.07,469.07,0,0,1,9,50c-3.19-14.67-7.17-35.27-10.81-49.58-4.36-16.33-11.25-31.87-16.07-48.08Z"/><path class="cls-5" d="M272,265.13a40.5,40.5,0,0,1,4.64,11.6,40.79,40.79,0,0,1-4.64-11.6Z"/><path class="cls-12" d="M645.29,302.81c6,.46,18.7-10.29,23.83-19.52.35-.64-.58-7.34-1.33-15.54-.43-5-.79-10.53-.76-15.63l-32,7.55s3.07,10.7,3,19.57a10.7,10.7,0,0,1-.23,2.09c0,.1,0,.21,0,.35C637.05,285.64,636,302.09,645.29,302.81Z"/><path class="cls-5" d="M637.73,281.67a19.74,19.74,0,0,0,3.27.2c17.73-.28,22.76-21.73,24-29.26l-30,7.07s3.06,10.69,3,19.57a11.29,11.29,0,0,1-.24,2.07C637.76,281.43,637.73,281.55,637.73,281.67Z"/><path class="cls-5" d="M634.82,197.62s-7.33,1.94-10.37,8.24-2.59,17.7-2.59,17.7Z"/><path class="cls-12" d="M669.07,246.69c-3.86,8.7-8.6,16.34-12.78,18.85-13.48,8.14-32.43,5.47-38.57-10-4.15-10.51,2.7-33.29,10.65-47.66l0,0c3.4-6.13,7-10.75,10-12.17,14.87-7,36.29,4.15,38.1,21.55C677.19,223.7,673.8,236,669.07,246.69Z"/><path class="cls-5" d="M640.32,230.71c0-.08.13.16.1.24-.82,2.09-1.4,4.61.26,6,.05.05,0,.15-.06.12C638.4,235.9,639.21,232.55,640.32,230.71Z"/><path class="cls-5" d="M643,229.17c3.49,1,1.33,7.86-1.9,7S640.07,228.38,643,229.17Z"/><path class="cls-5" d="M628.46,227.33c0-.08-.2,0-.22.14-.61,2.16-1.66,4.53-3.81,4.64-.07,0-.1.11,0,.12C626.87,232.64,628.24,229.48,628.46,227.33Z"/><path class="cls-5" d="M627.25,224.5c-3.36-1.33-5.78,5.48-2.67,6.72S630.06,225.62,627.25,224.5Z"/><path class="cls-5" d="M646.57,227a27.14,27.14,0,0,1-2.37-1.78c-.91-.69-1.7-1.15-2.08-2.27a1.52,1.52,0,0,1,.78-1.69c1.33-.6,2.64,0,3.77.76a5.56,5.56,0,0,1,2.34,3.26A1.63,1.63,0,0,1,646.57,227Z"/><path class="cls-5" d="M625.73,220.68a29.19,29.19,0,0,0,3,.15,4.83,4.83,0,0,0,3-.43,1.54,1.54,0,0,0,.48-1.81,3.8,3.8,0,0,0-3.39-1.81,5.66,5.66,0,0,0-3.89,1A1.63,1.63,0,0,0,625.73,220.68Z"/><path class="cls-5" d="M636,251.08a3.4,3.4,0,0,1-2.19.69,6,6,0,0,1-2.13-1.25.08.08,0,0,0-.13.08,3,3,0,0,0,2.35,2,2.37,2.37,0,0,0,2.27-1.36C636.28,251.13,636.13,251,636,251.08Z"/><path class="cls-5" d="M635.79,244a7.65,7.65,0,0,1-5.87,1.72,10.06,10.06,0,0,1-2.66-.7,2.62,2.62,0,0,1-.48-.22,3.61,3.61,0,0,1-.44-.22.55.55,0,0,1-.28-.61h0a2,2,0,0,1,.09-.22h0l.06-.19c.47-1.66,1.41-4.11,1.41-4.11-.7.11-4.19.53-3.87-.31,2.65-7,5.59-14.76,9.71-21.15a.21.21,0,0,1,.37.18c-2.28,6.81-5.75,13.18-8.15,20a13.06,13.06,0,0,1,3.76,0c.22.14-1.9,4.71-2.05,5.47a.28.28,0,0,0,0,.08c2.65,1.22,5,1,8.26,0C635.85,243.65,636,243.85,635.79,244Z"/><path class="cls-5" d="M628.5,244.47a9,9,0,0,0,2.62,3.76,4.09,4.09,0,0,0,2.31.88c1.85.09,2.38-1.47,2.48-2.9a9.34,9.34,0,0,0-.12-2.3A11.69,11.69,0,0,1,628.5,244.47Z"/><path class="cls-9" d="M631.12,248.23a4.09,4.09,0,0,0,2.31.88c1.85.09,2.38-1.47,2.48-2.9C634,245.82,631.83,246.5,631.12,248.23Z"/><path class="cls-5" d="M665.64,245.07c-5.79-1.32-1.68-17.17-1.68-17.17s-11.12-4.56-8.7-19.75c0,0-18.08,1.75-24.62-9s21.57-26.5,43.34.13c0,0,12.11,5.24,11.53,16S672.64,246.67,665.64,245.07Z"/><path class="cls-5" d="M656.07,206.55a.15.15,0,0,1,.26.15c-4.28,9.41-.12,20,10.59,21.82a.28.28,0,0,1-.07.56C656,228.28,648.88,215.52,656.07,206.55Z"/><path class="cls-5" d="M651.44,184.9s0,0,0,0a36.55,36.55,0,0,0-11,.12c-5.46,1.12-13.3,5.57-11.3,12.33,2.74,9.27,15.54,10,23.51,9.9a.41.41,0,0,1,.11.82c-8.36,1.54-24.3-1.32-25.09-12C626.73,184.19,643.57,183.21,651.44,184.9Z"/><path class="cls-12" d="M662.66,240.79s9.47-8.77,13.6-5.18-4.54,17.4-10.49,18.26a5.74,5.74,0,0,1-6.86-4.63Z"/><path class="cls-5" d="M673.68,239.51c.09,0,.08.14,0,.15-4.2.73-7,3.87-9.23,7.28,1.46-1.18,3.19-1.63,4.81.15.08.1,0,.23-.15.19a3.5,3.5,0,0,0-4.05.38,16.53,16.53,0,0,0-2.48,2.67c-.26.31-.84,0-.62-.38a.22.22,0,0,1,0-.08C663,244.92,668.28,238.86,673.68,239.51Z"/><path class="cls-3" d="M633.61,298l.22-17.41,34.92-14.4,3.77,12.34s-4.27,11.17-12.94,19.12S640.58,306,633.61,298Z"/><path class="cls-1" d="M752.61,441.76c-.28.4-134.87,13-136.33,11.72-2.06-1.79.21-131.52,18.93-164.84,4.69-8.33,26.38-16.7,36.41-11.17C706.71,296.85,753.59,440.28,752.61,441.76Z"/><path class="cls-12" d="M656.63,296.59c-22.74-15.45-51.48-29.69-83.63-48.38-35.87-20.87-49.91-34.47-57.71-38.81-10-5.58-41.77,41.85-34.39,44.62,4.72,1.77,43.43,26.84,76.06,40s69.26,20.25,92.66,25.44C676.64,325.41,673.38,308,656.63,296.59Z"/><path class="cls-12" d="M516.74,217.44a145.08,145.08,0,0,0-10.82-26.14c-3.9-7.16-11.7-18.84-17-22.79-7.9-5.9-44.67-25.54-49.63-16.73-4.48,8,29.26,20.85,29.26,20.85s-32.9-16-36.54-5.4,36.42,20.07,36.42,20.07-34.17-15.67-36.19-4.15c-1.52,8.71,34.27,19.33,34.27,19.33s-29.46-13.27-31.42-4.38c-2.16,9.82,30.27,21.7,30.27,21.7-1.17,23.43,8,28.3,15.51,34.22C482.91,255.6,516.74,217.44,516.74,217.44Z"/><path class="cls-5" d="M480.31,177.43c-3.8-2-7.63-4.09-11.59-5.76s-8-3.21-12.09-4.51c-10.06-3.18-16.85-3.6-16.43-3.53,9.86,1.69,24.13,7.46,28.1,9.14s8,3.14,11.95,4.81C480.35,177.62,480.4,177.48,480.31,177.43Z"/><path class="cls-5" d="M474.52,191.85c-5-2.37-9.79-4.9-14.86-7s-10-3.73-15.18-5.52c-.4-.13-.34.13,0,.28,5.1,2,9.66,4.23,14.74,6.28s10.23,3.9,15.21,6.13C474.55,192,474.6,191.88,474.52,191.85Z"/><path class="cls-5" d="M471.78,205.11c-7.39-4-15.51-6.64-23.54-9-.4-.11-.29.21.11.36,7.88,2.85,14.09,5,23.29,8.94C471.79,205.43,471.94,205.2,471.78,205.11Z"/><path class="cls-1" d="M518.36,209.82,485.6,271.65s59.1,23.53,79.53,31,71.66,16.56,90.39,18.88,20-11,4.06-23.82S584,253.36,582.39,252,518.36,209.82,518.36,209.82Z"/><path class="cls-5" d="M515.91,247.16c2.15-3.87,4.39-7.69,6.63-11.51,1.07-1.83,2.13-3.68,3.27-5.48s2.31-4,3.67-5.86a.12.12,0,0,1,.21.12c-.85,2.12-2.05,4.14-3.05,6.2-.93,1.91-1.95,3.77-2.95,5.65-2.07,3.91-4.15,7.82-6.31,11.68-4.34,7.73-8.88,15.32-13.53,22.87a.17.17,0,0,1-.29-.16C507.54,262.75,511.61,254.91,515.91,247.16Z"/><path class="cls-5" d="M605.55,313.22a496.5,496.5,0,0,0,53.36,8.63C643.27,318.73,588.1,308.68,605.55,313.22Z"/><path class="cls-5" d="M637.25,318.76a43.3,43.3,0,0,0,12.42,4.72,42.9,42.9,0,0,0-12.42-4.72Z"/><path class="cls-13" d="M192,303.89c-9.48,25.63-24.51,53.76-39.71,87.46-17,37.61-36.77,73.44-40.57,81.46-4.89,10.31-50.49-34.61-46.12-41.11,2.8-4.17,91.6-124.51,107.53-142.24C191.48,269,198.93,285,192,303.89Z"/><path class="cls-7" d="M124,458.68,68,422.89a32.43,32.43,0,0,1,5.25-16.37c11-17,33-42.64,41.22-54.64,12.24-17.81,48.41-54.79,62.23-67.49s22.54-2.7,17,16.92-35.53,79.5-36.05,81.59c-.37,1.5-12.13,41.84-21.81,63.4A27.47,27.47,0,0,1,124,458.68Z"/><path class="cls-7" d="M193.71,301.31c-5.49,19.63-35.53,79.51-36.05,81.6-.37,1.49-12.13,41.82-21.81,63.39A27.41,27.41,0,0,1,124,458.67L68,422.88a28.2,28.2,0,0,1,1.13-7.11L180.71,281.22C192.1,273.83,198.65,283.69,193.71,301.31Z"/><path class="cls-5" d="M220.94,204.42c-12.92,18.85-.68,33-6.53,39.19-15.28,16.3-3.41,20.7-7.31,26.5-3.21,4.77-17.09,9.56-10.67,25.17l65-5.58c1-10.85-10.2-15.66-11.51-23.15s7-15.78-8.68-30.67C231.07,226.22,227.14,195.37,220.94,204.42Z"/><path class="cls-7" d="M237.2,368.66l3.63,32.88-126.27-10s40-89.31,59.65-107.2c15.6-14.21,32.22-11.59,41.93.16,2.46,3,26.11,44.74,28.08,61.29C245.91,360.34,237.2,368.66,237.2,368.66Z"/><path class="cls-5" d="M213.42,360.16a38.8,38.8,0,0,1,10,2.72,52.2,52.2,0,0,1,4.91,2.55c.82.47,1.63.89,2.45,1.3a6.31,6.31,0,0,0,2.59.82c.08,0,.09.23,0,.24a9.49,9.49,0,0,1-2.44,0,10.28,10.28,0,0,1-2.38-.76c-1.68-.71-3.34-1.57-5-2.32a89.06,89.06,0,0,0-10.16-4C213.26,360.65,213.26,360.14,213.42,360.16Z"/><path class="cls-5" d="M205.59,366.35a37.21,37.21,0,0,1,8.17-1.18,25.1,25.1,0,0,1,4.13.29c.66.09,1.32.21,2,.34s1.45.48,2.18.61c.07,0,.09.24,0,.23a17.48,17.48,0,0,0-2.05.07H218c-1.37,0-2.74,0-4.11,0-2.75,0-5.49,0-8.23.09C205.47,366.8,205.45,366.39,205.59,366.35Z"/><path class="cls-13" d="M194.23,314.41c43.16,18.44,93.37,23.78,104.29,19.82,12-4.36,40.3-26,64.16-50.06,4.88-4.92-36.63-39.16-42-34.11-14.21,13.26-39.4,40.32-46.25,42.44-6.34,2-46.11-.13-70.24,1.76C181,296.07,174.15,305.84,194.23,314.41Z"/><path class="cls-13" d="M316.36,255.73s5.63-20.63,9.94-33.94c2.4-7.43,7.66-19.8,11.93-24.45,6.38-7,37.49-32,43.72-24.55,5.63,6.71-23.83,24.8-23.83,24.8S386.23,176.7,391.54,186s-30.7,25.35-30.7,25.35,29.36-20.81,33.3-10.33c3,7.92-28.8,24.27-28.8,24.27s25.36-17.72,28.78-9.7c3.77,8.86-24.63,25.78-24.63,25.78,5.26,21.84-1.17,34.39-6.81,42.77C361.32,286.2,316.36,255.73,316.36,255.73Z"/><path class="cls-5" d="M347.94,204.19c3.21-2.57,6.45-5.2,9.88-7.48s6.94-4.44,10.57-6.38c8.9-4.78,15.22-6.39,14.84-6.24-9,3.34-21.39,11.31-24.82,13.59s-7,4.37-10.39,6.64C347.93,204.38,347.86,204.25,347.94,204.19Z"/><path class="cls-5" d="M355.94,216.73c4.24-3.11,8.34-6.35,12.73-9.27s8.76-5.28,13.31-7.88c.35-.2.34,0,0,.27-4.45,2.78-8.34,5.69-12.75,8.52s-8.94,5.49-13.23,8.47C355.94,216.88,355.88,216.78,355.94,216.73Z"/><path class="cls-5" d="M360.87,228.73c6.25-5.09,13.42-9,20.55-12.69.36-.18.31.14,0,.35-6.91,4.09-12.36,7.25-20.33,12.55C360.92,229,360.74,228.83,360.87,228.73Z"/><path class="cls-7" d="M312.54,254.79,361,292.28s1.9,5.08-8,14.07-34.12,26.42-56.17,30.58-81.79-11.14-101.09-20.31-19.49-19.71,4.54-23.6,66.59-1.3,71-2.47,24.36-25.08,29.83-29.93A25.24,25.24,0,0,1,312.54,254.79Z"/><path class="cls-5" d="M282.47,339.26a110.29,110.29,0,0,1-16.16-2.19c-4.21-.77-39.22-9.57-43.41-10.43a43.69,43.69,0,0,1-8.48-.24c-.1,0-.09-.19,0-.19,2.14.06,4.27,0,6.41,0l-1.63-.33q-9.33-1.9-18.52-4.44c-.11,0-.08-.21,0-.19,10.74,1.92,52.25,12,63,13.85,5.3.92,10.62,1.93,16,2.34a59.62,59.62,0,0,0,16.48-1.2,172.45,172.45,0,0,0,18-5,.38.38,0,0,1,.26.71C304.23,335.94,293.57,339.61,282.47,339.26Z"/><path class="cls-13" d="M194.3,282.17c.45,2.13,10.28,16.09,20,15.83,3.16-.09,3.44-17.34,3.44-17.34l.31-1.27,4.36-17.76-20.69-13.87-3-1.85s-.88,4.94-1.9,11.1c-.05.29-.09.57-.14.88s-.14.67-.18,1c-.17.92-.33,1.86-.48,2.79-.11.72-.22,1.41-.31,2.16s-.2,1.49-.31,2.25C194.45,273.54,194.12,281.27,194.3,282.17Z"/><path class="cls-5" d="M196.8,257A36.67,36.67,0,0,0,218,279.39l4.36-17.76-20.69-13.87-3-1.85S197.82,250.85,196.8,257Z"/><path class="cls-13" d="M239.5,222.8c13.64,29.06-2.23,40.51-8.5,43.44-5.69,2.66-25.4,11-42-16.49s-7.36-43,5.34-49.79S225.87,193.74,239.5,222.8Z"/><path class="cls-5" d="M237,224.2a20.33,20.33,0,0,1-2.2.27,3.62,3.62,0,0,1-2.3-.16,1.14,1.14,0,0,1-.45-1.31,2.82,2.82,0,0,1,2.43-1.53,4.14,4.14,0,0,1,2.94.54A1.22,1.22,0,0,1,237,224.2Z"/><path class="cls-5" d="M216.5,230.05c.69-.33,1.26-.74,1.91-1.13s1.35-.73,1.72-1.53a1.14,1.14,0,0,0-.46-1.32,2.83,2.83,0,0,0-2.85.28,4.14,4.14,0,0,0-2,2.23A1.22,1.22,0,0,0,216.5,230.05Z"/><path class="cls-5" d="M223,234.36c0-.07-.13.16-.1.24.82,2,1.42,4.49-.18,5.85,0,0,0,.14.06.11C224.9,239.41,224.08,236.15,223,234.36Z"/><path class="cls-5" d="M220.36,232.9c-3.4,1-1.22,7.67,1.92,6.78S223.2,232.09,220.36,232.9Z"/><path class="cls-5" d="M219.15,233.68c-.46.57-.82,1.42-1.5,1.72s-1.64-.15-2.39-.66c-.08-.05-.12,0-.09.12.4,1.29,1.32,2.45,2.76,2.19s1.85-1.66,1.75-3.06C219.66,233.73,219.34,233.45,219.15,233.68Z"/><path class="cls-5" d="M234.16,230c0-.08.19.05.22.13.59,2.11,1.62,4.42,3.72,4.52.07,0,.1.11,0,.12C235.72,235.14,234.38,232.06,234.16,230Z"/><path class="cls-5" d="M235.33,227.21c3.27-1.32,5.66,5.32,2.63,6.54S232.59,228.31,235.33,227.21Z"/><path class="cls-5" d="M236.87,227.14c.65.17,1.4.62,2,.44s1-1.13,1.24-2c0-.09.1,0,.13,0,.49,1.26.55,2.73-.58,3.41s-2.24-.17-3-1.33C236.56,227.5,236.61,227.08,236.87,227.14Z"/><path class="cls-5" d="M227.14,251.33c.61.41,1.25,1,2,.92a5.54,5.54,0,0,0,2.21-1,.08.08,0,0,1,.12.09,3,3,0,0,1-2.51,1.68,2.33,2.33,0,0,1-2.05-1.58C226.9,251.35,227.05,251.27,227.14,251.33Z"/><path class="cls-5" d="M234.12,241.47s1.22,3.06,1.59,4.56c0,.14-.31.29-.81.45,0,0,0,0-.06,0a7.33,7.33,0,0,1-7.56-1c-.14-.12,0-.32.18-.26a11,11,0,0,0,6.94.26c0-.44-2.26-5.17-2-5.25a13.69,13.69,0,0,1,3.59-.07c-2.36-6.45-5.73-12.47-8-18.93a.21.21,0,0,1,.37-.19c4,6.06,6.85,13.42,9.45,20C238.14,241.94,234.78,241.58,234.12,241.47Z"/><path class="cls-5" d="M234.61,246a8.84,8.84,0,0,1-2.57,3.68,4,4,0,0,1-2.27.87c-1.81.08-2.33-1.45-2.43-2.85a9.87,9.87,0,0,1,.13-2.25A11.43,11.43,0,0,0,234.61,246Z"/><path class="cls-9" d="M232,249.64a4,4,0,0,1-2.27.87c-1.81.08-2.33-1.45-2.43-2.85C229.19,247.28,231.35,248,232,249.64Z"/><path class="cls-5" d="M206.64,196.49c-15,1.11-27,6.07-31.91,14.27-10.31,17.11.65,42.18-4.14,47.92-12.49,15-1.92,18.22-5,23.49-2.55,4.32-14.42,9.2-8,22.49l62.11-7.12c.35-9.52-9.7-13.14-11.22-19.61s5.32-14.12-9.13-26.31C189.92,243.71,206.64,196.49,206.64,196.49Z"/><path class="cls-5" d="M187,249.94c3.66-.69,12.2-2.38,16.32-8.15,2.27-3.18,3.74-8,3.33-15.72-.72-13.56,5.75-24.28,21.44-20.41,0,0-.28-12.68-9.58-15.24S203.21,198,203.21,198,185,200.9,179,216.87,187,249.94,187,249.94Z"/><path class="cls-13" d="M199.55,246.37s-10-7-13.43-3.07,6.55,15.73,12.24,15.75a5.43,5.43,0,0,0,5.82-5.25Z"/><path class="cls-5" d="M189.06,246.61a.08.08,0,0,0,0,.15c4,.13,7.08,2.71,9.62,5.61-1.53-.92-3.21-1.11-4.5.78-.06.1.08.21.17.15a3.32,3.32,0,0,1,3.85-.17,16,16,0,0,1,2.68,2.18c.28.25.78-.12.53-.44l-.06-.07C199.81,250.29,194,245.3,189.06,246.61Z"/></svg>