<?xml version="1.0" encoding="utf-8"?>
<!-- Generator: Adobe Illustrator 26.0.3, SVG Export Plug-In . SVG Version: 6.00 Build 0)  -->
<svg version="1.1" id="Слой_1" xmlns="http://www.w3.org/2000/svg" xmlns:xlink="http://www.w3.org/1999/xlink" x="0px" y="0px"
	 viewBox="0 0 41.3 50" style="enable-background:new 0 0 41.3 50;" xml:space="preserve">
<style type="text/css">
	.st0{fill:#FEC704;}
	.st1{fill:#FFFFFF;}
</style>
<g>
	<path class="st0" d="M26,12.1c2.9-0.3,5.8,0.7,8,2.6c2,1.9,3.1,5.1,3.1,9.7c-0.1,3.7-1.3,6.4-3.4,8.2c-2.4,1.9-5.4,2.8-8.4,2.7
		c-3.8,0-6.7-1-8.5-3.1s-2.6-4.9-2.5-8.6c0-2.9,1.1-5.7,3-7.9C19.2,13.4,22.1,12.3,26,12.1z M25.6,21.5c-0.4,0-0.7,0.5-0.9,1.4
		c-0.2,0.9-0.2,1.8-0.1,2.6c0.1,0.9,0.4,1.3,0.8,1.4s0.8-0.6,1-1.4s0.2-1.7,0.1-2.6"/>
	<path class="st1" d="M22.4,42.6c-0.1-0.3-0.2-0.5-0.4-0.8c-0.5-0.6-1.3-1-2.1-1h-0.2c-0.2,0-0.4,0.1-0.6,0.1
		c-0.3,0.1-0.5,0.2-0.8,0.4c-0.2,0.1-0.4,0.3-0.5,0.5c-0.4,0.5-0.5,1.1-0.5,1.7C17.6,45,18.7,46,20,46h0.2c1.3-0.1,2.3-1.3,2.3-2.6
		c0-0.1,0-0.1,0-0.2C22.6,43,22.5,42.8,22.4,42.6z"/>
	<path class="st1" d="M36.1,40c-0.2-0.2-0.4-0.3-0.6-0.4c-0.3-0.1-0.6-0.2-0.9-0.2h-0.3c-0.8,0.1-1.6,0.5-2,1.3
		C32.1,41,32,41.3,32,41.6c0,0.2,0,0.4,0,0.7c0,0,0,0,0,0.1c0.2,1.3,1.2,2.2,2.5,2.2h0.2c1.4-0.1,2.4-1.4,2.3-2.8
		C36.9,41.1,36.6,40.4,36.1,40L36.1,40z"/>
	<path class="st1" d="M13,26.8l-0.5-4.7c-0.2-2.3-2.1-4-4.4-4H7.7l-4.2,0.4c-1.1,0.1-2,1-1.9,2.1s1,2,2.1,1.9h0.2l4.2-0.4l0,0
		c0.2,0,0.3,0.1,0.3,0.3l0.5,4.7C9,28,9.2,28.9,9.4,29.7c1.1,4.2,3.7,7.8,7.4,10c0.4-1.3,0.8-2.7,1.2-4.1c-2.5-2-4.3-4.9-4.9-8.1
		C13,27.3,13,27.1,13,26.8z"/>
	<path class="st1" d="M39.2,31.5L39,31.4c-0.9-0.7-2.1-0.5-2.8,0.4l0,0l-1.5,2c-0.2,0.3-0.4,0.5-0.7,0.8l0,0
		c0.7,0.4,1.5,0.7,2.2,1.1c0.5,0.3,0.9,0.6,1.3,1c0.2-0.2,0.3-0.3,0.4-0.5l1.5-2C40.1,33.4,39.9,32.2,39.2,31.5z"/>
	<path class="st1" d="M35.1,33.5c-0.8,0.9-1.7,1.8-2.7,2.5c-1.7,1.2-3.7,1.9-5.8,2.1c-0.4,0-0.8,0.1-1.2,0.1c-1.5,0-3.1-0.3-4.5-0.8
		c-1.3-0.5-2.6-1.2-3.6-2.2l-0.3,1c-0.4,1.1-1.6,1.7-2.7,1.3c-0.6-0.2-1-0.6-1.3-1.2l-0.8-1.9L11,33.8c1.5,2.8,3.9,5.1,6.7,6.6
		c0.6-0.4,1.3-0.7,2-0.8H20l0,0c1.7,0,3.2,1.1,3.7,2.7c0.6,0,1.1,0.1,1.7,0.1s1,0,1.6-0.1c1.2-0.1,2.4-0.4,3.6-0.8
		c0.1-0.7,0.4-1.3,0.8-1.9c0.7-0.8,1.6-1.3,2.6-1.4h0.4l0,0c0.5,0,1,0.1,1.5,0.3c1.3-1.1,2.5-2.4,3.4-3.9
		C38,33.9,36.6,33.5,35.1,33.5z"/>
</g>
</svg>
